<svg version="1.1" viewBox="0.0 0.0 388.0 239.0" fill="none" stroke="none" stroke-linecap="square" stroke-miterlimit="10" width="388" height="239" xmlns:xlink="http://www.w3.org/1999/xlink" xmlns="http://www.w3.org/2000/svg"><path fill="#ffffff" d="M0 0L388.0 0L388.0 239.0L0 239.0L0 0Z" fill-rule="nonzero"/><path fill="#cc4125" d="M194.0 43.916668C233.66908 43.916668 268.82666 69.46014 281.08508 107.187675L194.0 135.48334Z" fill-rule="nonzero"/><path fill="#9fc5e8" d="M106.914925 107.187675C119.17335 69.46014 154.33092 43.916668 194.0 43.916668L194.0 135.48334Z" fill-rule="nonzero"/><path fill="#ffd966" d="M140.17847 209.56232C108.0855 186.24542 94.6565 144.91522 106.914925 107.187675L194.0 135.48334Z" fill-rule="nonzero"/><path fill="#ff6d00" d="M281.08508 107.187675C293.3435 144.91522 279.9145 186.24542 247.82153 209.56232C215.72858 232.87923 172.27142 232.87923 140.17847 209.56232L194.0 135.48334Z" fill-rule="nonzero"/><path fill="#757575" d="M19.496876 60.60829L18.371876 60.60829L14.075 54.030167L14.075 60.60829L12.934375 60.60829L12.934375 52.07704L14.075 52.07704L18.371876 58.686417L18.371876 52.07704L19.496876 52.07704L19.496876 60.60829ZM22.95 60.60829L21.871876 60.60829L21.871876 54.26454L22.95 54.26454L22.95 60.60829ZM21.778126 52.592667Q21.778126 52.32704 21.934376 52.13954Q22.10625 51.95204 22.41875 51.95204Q22.73125 51.95204 22.8875 52.13954Q23.059376 52.32704 23.059376 52.592667Q23.059376 52.842667 22.8875 53.030167Q22.73125 53.20204 22.41875 53.20204Q22.10625 53.20204 21.934376 53.030167Q21.778126 52.842667 21.778126 52.592667ZM26.54375 57.67079L25.85625 58.373917L25.85625 60.60829L24.778126 60.60829L24.778126 51.60829L25.85625 51.60829L25.85625 57.04579L26.434376 56.35829L28.41875 54.26454L29.73125 54.26454L27.2625 56.92079L30.028126 60.60829L28.746876 60.60829L26.54375 57.67079ZM31.95 60.60829L30.871876 60.60829L30.871876 54.26454L31.95 54.26454L31.95 60.60829ZM30.778126 52.592667Q30.778126 52.32704 30.934376 52.13954Q31.10625 51.95204 31.41875 51.95204Q31.73125 51.95204 31.8875 52.13954Q32.059376 52.32704 32.059376 52.592667Q32.059376 52.842667 31.8875 53.030167Q31.73125 53.20204 31.41875 53.20204Q31.10625 53.20204 30.934376 53.030167Q30.778126 52.842667 30.778126 52.592667ZM35.246876 52.73329L35.246876 54.26454L36.41875 54.26454L36.41875 55.10829L35.246876 55.10829L35.246876 59.030167Q35.246876 59.42079 35.403126 59.60829Q35.559376 59.79579 35.934376 59.79579Q36.121876 59.79579 36.45 59.73329L36.45 60.60829Q36.028126 60.73329 35.621876 60.73329Q34.903126 60.73329 34.528126 60.29579Q34.153126 59.842667 34.153126 59.030167L34.153126 55.10829L32.996876 55.10829L32.996876 54.26454L34.153126 54.26454L34.153126 52.73329L35.246876 52.73329ZM41.684376 60.60829Q41.590626 60.42079 41.528126 59.936417Q40.778126 60.73329 39.73125 60.73329Q38.79375 60.73329 38.184376 60.20204Q37.590626 59.67079 37.590626 58.842667Q37.590626 57.85829 38.340626 57.311417Q39.090626 56.76454 40.465626 56.76454L41.5125 56.76454L41.5125 56.26454Q41.5125 55.70204 41.16875 55.373917Q40.840626 55.030167 40.16875 55.030167Q39.590626 55.030167 39.2 55.32704Q38.809376 55.60829 38.809376 56.030167L37.715626 56.030167Q37.715626 55.54579 38.04375 55.10829Q38.3875 54.67079 38.965626 54.42079Q39.54375 54.155167 40.23125 54.155167Q41.340626 54.155167 41.95 54.70204Q42.575 55.248917 42.60625 56.20204L42.60625 59.123917Q42.60625 59.998917 42.825 60.51454L42.825 60.60829L41.684376 60.60829ZM39.8875 59.780167Q40.403126 59.780167 40.85625 59.51454Q41.309376 59.248917 41.5125 58.82704L41.5125 57.530167L40.66875 57.530167Q38.66875 57.530167 38.66875 58.70204Q38.66875 59.20204 39.0125 59.498917Q39.35625 59.780167 39.8875 59.780167Z" fill-rule="nonzero"/><path fill="#9e9e9e" d="M18.246876 78.60829L12.653125 78.60829L12.653125 77.82704L15.60625 74.54579Q16.2625 73.79579 16.5125 73.34267Q16.7625 72.87392 16.7625 72.37392Q16.7625 71.70204 16.35625 71.28017Q15.965625 70.84267 15.278125 70.84267Q14.48125 70.84267 14.028125 71.31142Q13.575 71.76454 13.575 72.59267L12.496875 72.59267Q12.496875 71.40517 13.246875 70.68642Q14.0125 69.95204 15.278125 69.95204Q16.48125 69.95204 17.16875 70.57704Q17.85625 71.20204 17.85625 72.24892Q17.85625 73.49892 16.246876 75.24892L13.965625 77.71767L18.246876 77.71767L18.246876 78.60829ZM25.0125 74.96767Q25.0125 76.87392 24.35625 77.81142Q23.715626 78.73329 22.325 78.73329Q20.965626 78.73329 20.309376 77.82704Q19.653126 76.92079 19.621876 75.10829L19.621876 73.67079Q19.621876 71.78017 20.2625 70.87392Q20.91875 69.95204 22.309376 69.95204Q23.684376 69.95204 24.340626 70.84267Q24.996876 71.71767 25.0125 73.56142L25.0125 74.96767ZM23.91875 73.48329Q23.91875 72.10829 23.528126 71.48329Q23.153126 70.84267 22.309376 70.84267Q21.48125 70.84267 21.090626 71.48329Q20.715626 72.10829 20.715626 73.40517L20.715626 75.13954Q20.715626 76.51454 21.10625 77.18642Q21.5125 77.84267 22.325 77.84267Q23.121876 77.84267 23.5125 77.21767Q23.903126 76.59267 23.91875 75.26454L23.91875 73.48329ZM26.79375 78.04579Q26.79375 77.76454 26.95 77.57704Q27.121876 77.38954 27.45 77.38954Q27.79375 77.38954 27.965626 77.57704Q28.1375 77.76454 28.1375 78.04579Q28.1375 78.31142 27.965626 78.49892Q27.79375 78.67079 27.45 78.67079Q27.121876 78.67079 26.95 78.49892Q26.79375 78.31142 26.79375 78.04579ZM35.0125 74.96767Q35.0125 76.87392 34.35625 77.81142Q33.715626 78.73329 32.325 78.73329Q30.965626 78.73329 30.309376 77.82704Q29.653126 76.92079 29.621876 75.10829L29.621876 73.67079Q29.621876 71.78017 30.2625 70.87392Q30.91875 69.95204 32.309376 69.95204Q33.684376 69.95204 34.340626 70.84267Q34.996876 71.71767 35.0125 73.56142L35.0125 74.96767ZM33.91875 73.48329Q33.91875 72.10829 33.528126 71.48329Q33.153126 70.84267 32.309376 70.84267Q31.48125 70.84267 31.090626 71.48329Q30.715626 72.10829 30.715626 73.40517L30.715626 75.13954Q30.715626 76.51454 31.10625 77.18642Q31.5125 77.84267 32.325 77.84267Q33.121876 77.84267 33.5125 77.21767Q33.903126 76.59267 33.91875 75.26454L33.91875 73.48329ZM36.559376 71.71767Q36.559376 70.95204 37.04375 70.45204Q37.54375 69.95204 38.309376 69.95204Q39.090626 69.95204 39.575 70.45204Q40.059376 70.95204 40.059376 71.74892L40.059376 72.17079Q40.059376 72.93642 39.559376 73.43642Q39.075 73.92079 38.325 73.92079Q37.559376 73.92079 37.059376 73.43642Q36.559376 72.93642 36.559376 72.12392L36.559376 71.71767ZM37.371876 72.17079Q37.371876 72.62392 37.621876 72.92079Q37.8875 73.21767 38.325 73.21767Q38.746876 73.21767 38.996876 72.93642Q39.246876 72.63954 39.246876 72.13954L39.246876 71.71767Q39.246876 71.26454 38.996876 70.96767Q38.746876 70.65517 38.309376 70.65517Q37.871876 70.65517 37.621876 70.96767Q37.371876 71.26454 37.371876 71.73329L37.371876 72.17079ZM40.715626 76.51454Q40.715626 75.74892 41.2 75.26454Q41.7 74.76454 42.465626 74.76454Q43.23125 74.76454 43.715626 75.26454Q44.215626 75.74892 44.215626 76.56142L44.215626 76.96767Q44.215626 77.73329 43.73125 78.23329Q43.246876 78.73329 42.48125 78.73329Q41.715626 78.73329 41.215626 78.24892Q40.715626 77.74892 40.715626 76.93642L40.715626 76.51454ZM41.528126 76.96767Q41.528126 77.43642 41.778126 77.73329Q42.04375 78.03017 42.48125 78.03017Q42.903126 78.03017 43.153126 77.74892Q43.403126 77.45204 43.403126 76.95204L43.403126 76.51454Q43.403126 76.04579 43.1375 75.76454Q42.8875 75.46767 42.465626 75.46767Q42.04375 75.46767 41.778126 75.76454Q41.528126 76.04579 41.528126 76.54579L41.528126 76.96767ZM38.575 77.96767L37.95 77.57704L42.121876 70.90517L42.73125 71.29579L38.575 77.96767Z" fill-rule="nonzero"/><path stroke="#757575" stroke-width="1.0" stroke-linecap="butt" d="M11.95 65.10829L96.433334 65.10829L142.86954 65.10829" fill-rule="nonzero"/><path fill="#9e9e9e" d="M144.86954 65.10829C144.86954 64.00372 143.9741 63.10829 142.86954 63.10829C141.76497 63.10829 140.86954 64.00372 140.86954 65.10829C140.86954 66.21286 141.76497 67.10829 142.86954 67.10829C143.9741 67.10829 144.86954 66.21286 144.86954 65.10829" fill-rule="nonzero"/><path fill="#757575" d="M15.45 154.06734Q14.0125 153.64546 13.340625 153.03609Q12.684375 152.42671 12.684375 151.53609Q12.684375 150.53609 13.48125 149.87984Q14.29375 149.20796 15.590625 149.20796Q16.465626 149.20796 17.153126 149.55171Q17.840626 149.89546 18.215626 150.48921Q18.60625 151.08296 18.60625 151.80171L17.465626 151.80171Q17.465626 151.02046 16.965626 150.58296Q16.48125 150.14546 15.590625 150.14546Q14.7625 150.14546 14.29375 150.52046Q13.825 150.87984 13.825 151.52046Q13.825 152.05171 14.2625 152.41109Q14.715625 152.77046 15.778125 153.06734Q16.840626 153.36421 17.434376 153.72359Q18.04375 154.08296 18.325 154.56734Q18.621876 155.05171 18.621876 155.69234Q18.621876 156.73921 17.809376 157.36421Q16.996876 157.98921 15.653125 157.98921Q14.7625 157.98921 13.996875 157.64546Q13.246875 157.30171 12.825 156.72359Q12.41875 156.12984 12.41875 155.39546L13.54375 155.39546Q13.54375 156.16109 14.121875 156.61421Q14.7 157.06734 15.653125 157.06734Q16.54375 157.06734 17.0125 156.70796Q17.48125 156.33296 17.48125 155.70796Q17.48125 155.08296 17.04375 154.73921Q16.60625 154.39546 15.45 154.06734ZM23.684376 157.86421Q23.590626 157.67671 23.528126 157.19234Q22.778126 157.98921 21.73125 157.98921Q20.79375 157.98921 20.184376 157.45796Q19.590626 156.92671 19.590626 156.09859Q19.590626 155.11421 20.340626 154.56734Q21.090626 154.02046 22.465626 154.02046L23.5125 154.02046L23.5125 153.52046Q23.5125 152.95796 23.16875 152.62984Q22.840626 152.28609 22.16875 152.28609Q21.590626 152.28609 21.2 152.58296Q20.809376 152.86421 20.809376 153.28609L19.715626 153.28609Q19.715626 152.80171 20.04375 152.36421Q20.3875 151.92671 20.965626 151.67671Q21.54375 151.41109 22.23125 151.41109Q23.340626 151.41109 23.95 151.95796Q24.575 152.50484 24.60625 153.45796L24.60625 156.37984Q24.60625 157.25484 24.825 157.77046L24.825 157.86421L23.684376 157.86421ZM21.8875 157.03609Q22.403126 157.03609 22.85625 156.77046Q23.309376 156.50484 23.5125 156.08296L23.5125 154.78609L22.66875 154.78609Q20.66875 154.78609 20.66875 155.95796Q20.66875 156.45796 21.0125 156.75484Q21.35625 157.03609 21.8875 157.03609ZM27.79375 151.52046L27.825 152.31734Q28.559376 151.41109 29.73125 151.41109Q31.746876 151.41109 31.7625 153.67671L31.7625 157.86421L30.66875 157.86421L30.66875 153.66109Q30.66875 152.98921 30.35625 152.66109Q30.059376 152.33296 29.403126 152.33296Q28.871876 152.33296 28.465626 152.61421Q28.075 152.89546 27.85625 153.34859L27.85625 157.86421L26.778126 157.86421L26.778126 151.52046L27.79375 151.52046ZM35.246876 149.98921L35.246876 151.52046L36.41875 151.52046L36.41875 152.36421L35.246876 152.36421L35.246876 156.28609Q35.246876 156.67671 35.403126 156.86421Q35.559376 157.05171 35.934376 157.05171Q36.121876 157.05171 36.45 156.98921L36.45 157.86421Q36.028126 157.98921 35.621876 157.98921Q34.903126 157.98921 34.528126 157.55171Q34.153126 157.09859 34.153126 156.28609L34.153126 152.36421L32.996876 152.36421L32.996876 151.52046L34.153126 151.52046L34.153126 149.98921L35.246876 149.98921ZM38.95 157.86421L37.871876 157.86421L37.871876 151.52046L38.95 151.52046L38.95 157.86421ZM37.778126 149.84859Q37.778126 149.58296 37.934376 149.39546Q38.10625 149.20796 38.41875 149.20796Q38.73125 149.20796 38.8875 149.39546Q39.059376 149.58296 39.059376 149.84859Q39.059376 150.09859 38.8875 150.28609Q38.73125 150.45796 38.41875 150.45796Q38.10625 150.45796 37.934376 150.28609Q37.778126 150.09859 37.778126 149.84859ZM44.684376 157.86421Q44.590626 157.67671 44.528126 157.19234Q43.778126 157.98921 42.73125 157.98921Q41.79375 157.98921 41.184376 157.45796Q40.590626 156.92671 40.590626 156.09859Q40.590626 155.11421 41.340626 154.56734Q42.090626 154.02046 43.465626 154.02046L44.5125 154.02046L44.5125 153.52046Q44.5125 152.95796 44.16875 152.62984Q43.840626 152.28609 43.16875 152.28609Q42.590626 152.28609 42.2 152.58296Q41.809376 152.86421 41.809376 153.28609L40.715626 153.28609Q40.715626 152.80171 41.04375 152.36421Q41.3875 151.92671 41.965626 151.67671Q42.54375 151.41109 43.23125 151.41109Q44.340626 151.41109 44.95 151.95796Q45.575 152.50484 45.60625 153.45796L45.60625 156.37984Q45.60625 157.25484 45.825 157.77046L45.825 157.86421L44.684376 157.86421ZM42.8875 157.03609Q43.403126 157.03609 43.85625 156.77046Q44.309376 156.50484 44.5125 156.08296L44.5125 154.78609L43.66875 154.78609Q41.66875 154.78609 41.66875 155.95796Q41.66875 156.45796 42.0125 156.75484Q42.35625 157.03609 42.8875 157.03609ZM47.5125 154.64546Q47.5125 153.16109 48.2 152.28609Q48.8875 151.41109 50.0125 151.41109Q51.16875 151.41109 51.825 152.22359L51.871876 151.52046L52.871876 151.52046L52.871876 157.70796Q52.871876 158.94234 52.1375 159.64546Q51.403126 160.36421 50.184376 160.36421Q49.496876 160.36421 48.840626 160.06734Q48.184376 159.77046 47.840626 159.27046L48.403126 158.61421Q49.090626 159.47359 50.10625 159.47359Q50.8875 159.47359 51.325 159.02046Q51.778126 158.58296 51.778126 157.77046L51.778126 157.22359Q51.121876 157.98921 49.996876 157.98921Q48.8875 157.98921 48.2 157.09859Q47.5125 156.19234 47.5125 154.64546ZM48.60625 154.77046Q48.60625 155.83296 49.04375 156.45796Q49.48125 157.06734 50.278126 157.06734Q51.29375 157.06734 51.778126 156.12984L51.778126 153.23921Q51.278126 152.33296 50.278126 152.33296Q49.496876 152.33296 49.04375 152.94234Q48.60625 153.55171 48.60625 154.77046ZM54.48125 154.62984Q54.48125 153.70796 54.840626 152.95796Q55.215626 152.20796 55.871876 151.81734Q56.528126 151.41109 57.35625 151.41109Q58.653126 151.41109 59.45 152.30171Q60.2625 153.19234 60.2625 154.69234L60.2625 154.77046Q60.2625 155.69234 59.903126 156.42671Q59.54375 157.16109 58.8875 157.58296Q58.23125 157.98921 57.371876 157.98921Q56.090626 157.98921 55.278126 157.09859Q54.48125 156.19234 54.48125 154.70796L54.48125 154.62984ZM55.575 154.77046Q55.575 155.81734 56.059376 156.45796Q56.559376 157.09859 57.371876 157.09859Q58.2 157.09859 58.684376 156.45796Q59.16875 155.80171 59.16875 154.62984Q59.16875 153.59859 58.66875 152.95796Q58.184376 152.30171 57.35625 152.30171Q56.559376 152.30171 56.059376 152.94234Q55.575 153.56734 55.575 154.77046Z" fill-rule="nonzero"/><path fill="#9e9e9e" d="M18.246876 175.86421L12.653125 175.86421L12.653125 175.08296L15.60625 171.80171Q16.2625 171.05171 16.5125 170.59859Q16.7625 170.12984 16.7625 169.62984Q16.7625 168.95796 16.35625 168.53609Q15.965625 168.09859 15.278125 168.09859Q14.48125 168.09859 14.028125 168.56734Q13.575 169.02046 13.575 169.84859L12.496875 169.84859Q12.496875 168.66109 13.246875 167.94234Q14.0125 167.20796 15.278125 167.20796Q16.48125 167.20796 17.16875 167.83296Q17.85625 168.45796 17.85625 169.50484Q17.85625 170.75484 16.246876 172.50484L13.965625 174.97359L18.246876 174.97359L18.246876 175.86421ZM25.0125 172.22359Q25.0125 174.12984 24.35625 175.06734Q23.715626 175.98921 22.325 175.98921Q20.965626 175.98921 20.309376 175.08296Q19.653126 174.17671 19.621876 172.36421L19.621876 170.92671Q19.621876 169.03609 20.2625 168.12984Q20.91875 167.20796 22.309376 167.20796Q23.684376 167.20796 24.340626 168.09859Q24.996876 168.97359 25.0125 170.81734L25.0125 172.22359ZM23.91875 170.73921Q23.91875 169.36421 23.528126 168.73921Q23.153126 168.09859 22.309376 168.09859Q21.48125 168.09859 21.090626 168.73921Q20.715626 169.36421 20.715626 170.66109L20.715626 172.39546Q20.715626 173.77046 21.10625 174.44234Q21.5125 175.09859 22.325 175.09859Q23.121876 175.09859 23.5125 174.47359Q23.903126 173.84859 23.91875 172.52046L23.91875 170.73921ZM26.79375 175.30171Q26.79375 175.02046 26.95 174.83296Q27.121876 174.64546 27.45 174.64546Q27.79375 174.64546 27.965626 174.83296Q28.1375 175.02046 28.1375 175.30171Q28.1375 175.56734 27.965626 175.75484Q27.79375 175.92671 27.45 175.92671Q27.121876 175.92671 26.95 175.75484Q26.79375 175.56734 26.79375 175.30171ZM35.0125 172.22359Q35.0125 174.12984 34.35625 175.06734Q33.715626 175.98921 32.325 175.98921Q30.965626 175.98921 30.309376 175.08296Q29.653126 174.17671 29.621876 172.36421L29.621876 170.92671Q29.621876 169.03609 30.2625 168.12984Q30.91875 167.20796 32.309376 167.20796Q33.684376 167.20796 34.340626 168.09859Q34.996876 168.97359 35.0125 170.81734L35.0125 172.22359ZM33.91875 170.73921Q33.91875 169.36421 33.528126 168.73921Q33.153126 168.09859 32.309376 168.09859Q31.48125 168.09859 31.090626 168.73921Q30.715626 169.36421 30.715626 170.66109L30.715626 172.39546Q30.715626 173.77046 31.10625 174.44234Q31.5125 175.09859 32.325 175.09859Q33.121876 175.09859 33.5125 174.47359Q33.903126 173.84859 33.91875 172.52046L33.91875 170.73921ZM36.559376 168.97359Q36.559376 168.20796 37.04375 167.70796Q37.54375 167.20796 38.309376 167.20796Q39.090626 167.20796 39.575 167.70796Q40.059376 168.20796 40.059376 169.00484L40.059376 169.42671Q40.059376 170.19234 39.559376 170.69234Q39.075 171.17671 38.325 171.17671Q37.559376 171.17671 37.059376 170.69234Q36.559376 170.19234 36.559376 169.37984L36.559376 168.97359ZM37.371876 169.42671Q37.371876 169.87984 37.621876 170.17671Q37.8875 170.47359 38.325 170.47359Q38.746876 170.47359 38.996876 170.19234Q39.246876 169.89546 39.246876 169.39546L39.246876 168.97359Q39.246876 168.52046 38.996876 168.22359Q38.746876 167.91109 38.309376 167.91109Q37.871876 167.91109 37.621876 168.22359Q37.371876 168.52046 37.371876 168.98921L37.371876 169.42671ZM40.715626 173.77046Q40.715626 173.00484 41.2 172.52046Q41.7 172.02046 42.465626 172.02046Q43.23125 172.02046 43.715626 172.52046Q44.215626 173.00484 44.215626 173.81734L44.215626 174.22359Q44.215626 174.98921 43.73125 175.48921Q43.246876 175.98921 42.48125 175.98921Q41.715626 175.98921 41.215626 175.50484Q40.715626 175.00484 40.715626 174.19234L40.715626 173.77046ZM41.528126 174.22359Q41.528126 174.69234 41.778126 174.98921Q42.04375 175.28609 42.48125 175.28609Q42.903126 175.28609 43.153126 175.00484Q43.403126 174.70796 43.403126 174.20796L43.403126 173.77046Q43.403126 173.30171 43.1375 173.02046Q42.8875 172.72359 42.465626 172.72359Q42.04375 172.72359 41.778126 173.02046Q41.528126 173.30171 41.528126 173.80171L41.528126 174.22359ZM38.575 175.22359L37.95 174.83296L42.121876 168.16109L42.73125 168.55171L38.575 175.22359Z" fill-rule="nonzero"/><path stroke="#757575" stroke-width="1.0" stroke-linecap="butt" d="M11.95 162.36421L96.433334 162.36421L111.26918 162.36421" fill-rule="nonzero"/><path fill="#9e9e9e" d="M113.26918 162.36421C113.26918 161.25964 112.37375 160.36421 111.26918 160.36421C110.16461 160.36421 109.26918 161.25964 109.26918 162.36421C109.26918 163.46878 110.16461 164.36421 111.26918 164.36421C112.37375 164.36421 113.26918 163.46878 113.26918 162.36421" fill-rule="nonzero"/><path fill="#757575" d="M358.9406 52.998917L356.1906 52.998917L356.1906 60.60829L355.08124 60.60829L355.08124 52.998917L352.33124 52.998917L352.33124 52.07704L358.9406 52.07704L358.9406 52.998917ZM360.95624 55.030167Q361.675 54.155167 362.83124 54.155167Q364.84686 54.155167 364.8625 56.42079L364.8625 60.60829L363.76874 60.60829L363.76874 56.405167Q363.76874 55.73329 363.45624 55.405167Q363.15936 55.07704 362.5031 55.07704Q361.97186 55.07704 361.5656 55.35829Q361.175 55.63954 360.95624 56.092667L360.95624 60.60829L359.8781 60.60829L359.8781 51.60829L360.95624 51.60829L360.95624 55.030167ZM370.78436 60.60829Q370.6906 60.42079 370.6281 59.936417Q369.8781 60.73329 368.83124 60.73329Q367.89374 60.73329 367.28436 60.20204Q366.6906 59.67079 366.6906 58.842667Q366.6906 57.85829 367.4406 57.311417Q368.1906 56.76454 369.5656 56.76454L370.6125 56.76454L370.6125 56.26454Q370.6125 55.70204 370.26874 55.373917Q369.9406 55.030167 369.26874 55.030167Q368.6906 55.030167 368.3 55.32704Q367.90936 55.60829 367.90936 56.030167L366.8156 56.030167Q366.8156 55.54579 367.14374 55.10829Q367.4875 54.67079 368.0656 54.42079Q368.64374 54.155167 369.33124 54.155167Q370.4406 54.155167 371.05 54.70204Q371.675 55.248917 371.70624 56.20204L371.70624 59.123917Q371.70624 59.998917 371.925 60.51454L371.925 60.60829L370.78436 60.60829ZM368.9875 59.780167Q369.5031 59.780167 369.95624 59.51454Q370.40936 59.248917 370.6125 58.82704L370.6125 57.530167L369.76874 57.530167Q367.76874 57.530167 367.76874 58.70204Q367.76874 59.20204 368.1125 59.498917Q368.45624 59.780167 368.9875 59.780167ZM375.05 60.60829L373.97186 60.60829L373.97186 54.26454L375.05 54.26454L375.05 60.60829ZM373.8781 52.592667Q373.8781 52.32704 374.03436 52.13954Q374.20624 51.95204 374.51874 51.95204Q374.83124 51.95204 374.9875 52.13954Q375.15936 52.32704 375.15936 52.592667Q375.15936 52.842667 374.9875 53.030167Q374.83124 53.20204 374.51874 53.20204Q374.20624 53.20204 374.03436 53.030167Q373.8781 52.842667 373.8781 52.592667Z" fill-rule="nonzero"/><path fill="#9e9e9e" d="M349.34686 78.60829L343.7531 78.60829L343.7531 77.82704L346.70624 74.54579Q347.3625 73.79579 347.6125 73.34267Q347.8625 72.87392 347.8625 72.37392Q347.8625 71.70204 347.45624 71.28017Q347.0656 70.84267 346.3781 70.84267Q345.58124 70.84267 345.1281 71.31142Q344.675 71.76454 344.675 72.59267L343.59686 72.59267Q343.59686 71.40517 344.34686 70.68642Q345.1125 69.95204 346.3781 69.95204Q347.58124 69.95204 348.26874 70.57704Q348.95624 71.20204 348.95624 72.24892Q348.95624 73.49892 347.34686 75.24892L345.0656 77.71767L349.34686 77.71767L349.34686 78.60829ZM356.1125 74.96767Q356.1125 76.87392 355.45624 77.81142Q354.8156 78.73329 353.425 78.73329Q352.0656 78.73329 351.40936 77.82704Q350.7531 76.92079 350.72186 75.10829L350.72186 73.67079Q350.72186 71.78017 351.3625 70.87392Q352.01874 69.95204 353.40936 69.95204Q354.78436 69.95204 355.4406 70.84267Q356.09686 71.71767 356.1125 73.56142L356.1125 74.96767ZM355.01874 73.48329Q355.01874 72.10829 354.6281 71.48329Q354.2531 70.84267 353.40936 70.84267Q352.58124 70.84267 352.1906 71.48329Q351.8156 72.10829 351.8156 73.40517L351.8156 75.13954Q351.8156 76.51454 352.20624 77.18642Q352.6125 77.84267 353.425 77.84267Q354.22186 77.84267 354.6125 77.21767Q355.0031 76.59267 355.01874 75.26454L355.01874 73.48329ZM357.89374 78.04579Q357.89374 77.76454 358.05 77.57704Q358.22186 77.38954 358.55 77.38954Q358.89374 77.38954 359.0656 77.57704Q359.2375 77.76454 359.2375 78.04579Q359.2375 78.31142 359.0656 78.49892Q358.89374 78.67079 358.55 78.67079Q358.22186 78.67079 358.05 78.49892Q357.89374 78.31142 357.89374 78.04579ZM366.1125 74.96767Q366.1125 76.87392 365.45624 77.81142Q364.8156 78.73329 363.425 78.73329Q362.0656 78.73329 361.40936 77.82704Q360.7531 76.92079 360.72186 75.10829L360.72186 73.67079Q360.72186 71.78017 361.3625 70.87392Q362.01874 69.95204 363.40936 69.95204Q364.78436 69.95204 365.4406 70.84267Q366.09686 71.71767 366.1125 73.56142L366.1125 74.96767ZM365.01874 73.48329Q365.01874 72.10829 364.6281 71.48329Q364.2531 70.84267 363.40936 70.84267Q362.58124 70.84267 362.1906 71.48329Q361.8156 72.10829 361.8156 73.40517L361.8156 75.13954Q361.8156 76.51454 362.20624 77.18642Q362.6125 77.84267 363.425 77.84267Q364.22186 77.84267 364.6125 77.21767Q365.0031 76.59267 365.01874 75.26454L365.01874 73.48329ZM367.65936 71.71767Q367.65936 70.95204 368.14374 70.45204Q368.64374 69.95204 369.40936 69.95204Q370.1906 69.95204 370.675 70.45204Q371.15936 70.95204 371.15936 71.74892L371.15936 72.17079Q371.15936 72.93642 370.65936 73.43642Q370.175 73.92079 369.425 73.92079Q368.65936 73.92079 368.15936 73.43642Q367.65936 72.93642 367.65936 72.12392L367.65936 71.71767ZM368.47186 72.17079Q368.47186 72.62392 368.72186 72.92079Q368.9875 73.21767 369.425 73.21767Q369.84686 73.21767 370.09686 72.93642Q370.34686 72.63954 370.34686 72.13954L370.34686 71.71767Q370.34686 71.26454 370.09686 70.96767Q369.84686 70.65517 369.40936 70.65517Q368.97186 70.65517 368.72186 70.96767Q368.47186 71.26454 368.47186 71.73329L368.47186 72.17079ZM371.8156 76.51454Q371.8156 75.74892 372.3 75.26454Q372.8 74.76454 373.5656 74.76454Q374.33124 74.76454 374.8156 75.26454Q375.3156 75.74892 375.3156 76.56142L375.3156 76.96767Q375.3156 77.73329 374.83124 78.23329Q374.34686 78.73329 373.58124 78.73329Q372.8156 78.73329 372.3156 78.24892Q371.8156 77.74892 371.8156 76.93642L371.8156 76.51454ZM372.6281 76.96767Q372.6281 77.43642 372.8781 77.73329Q373.14374 78.03017 373.58124 78.03017Q374.0031 78.03017 374.2531 77.74892Q374.5031 77.45204 374.5031 76.95204L374.5031 76.51454Q374.5031 76.04579 374.2375 75.76454Q373.9875 75.46767 373.5656 75.46767Q373.14374 75.46767 372.8781 75.76454Q372.6281 76.04579 372.6281 76.54579L372.6281 76.96767ZM369.675 77.96767L369.05 77.57704L373.22186 70.90517L373.83124 71.29579L369.675 77.96767Z" fill-rule="nonzero"/><path stroke="#757575" stroke-width="1.0" stroke-linecap="butt" d="M376.05 65.10829L291.56668 65.10829L245.13046 65.10829" fill-rule="nonzero"/><path fill="#9e9e9e" d="M247.13046 65.10829C247.13046 64.00372 246.23503 63.10829 245.13046 63.10829C244.0259 63.10829 243.13046 64.00372 243.13046 65.10829C243.13046 66.21286 244.0259 67.10829 245.13046 67.10829C246.23503 67.10829 247.13046 66.21286 247.13046 65.10829" fill-rule="nonzero"/><path fill="#757575" d="M337.4875 192.82712L340.28436 199.78024L343.0656 192.82712L344.53436 192.82712L344.53436 201.35837L343.40936 201.35837L343.40936 198.03024L343.51874 194.45212L340.70624 201.35837L339.84686 201.35837L337.05 194.46774L337.15936 198.03024L337.15936 201.35837L336.03436 201.35837L336.03436 192.82712L337.4875 192.82712ZM348.5031 201.48337Q347.20624 201.48337 346.39374 200.63962Q345.59686 199.78024 345.59686 198.35837L345.59686 198.17087Q345.59686 197.21774 345.95624 196.48337Q346.3156 195.73337 346.95624 195.32712Q347.6125 194.90524 348.3625 194.90524Q349.59686 194.90524 350.28436 195.71774Q350.97186 196.53024 350.97186 198.04587L350.97186 198.499L346.675 198.499Q346.70624 199.4365 347.22186 200.01462Q347.7531 200.59274 348.5656 200.59274Q349.1281 200.59274 349.51874 200.35837Q349.925 200.124 350.2375 199.73337L350.89374 200.249Q350.09686 201.48337 348.5031 201.48337ZM348.3625 195.79587Q347.70624 195.79587 347.2531 196.28024Q346.8156 196.749 346.72186 197.60837L349.89374 197.60837L349.89374 197.53024Q349.84686 196.70212 349.4406 196.249Q349.05 195.79587 348.3625 195.79587ZM352.89374 195.01462L352.925 195.8115Q353.65936 194.90524 354.83124 194.90524Q356.84686 194.90524 356.8625 197.17087L356.8625 201.35837L355.76874 201.35837L355.76874 197.15524Q355.76874 196.48337 355.45624 196.15524Q355.15936 195.82712 354.5031 195.82712Q353.97186 195.82712 353.5656 196.10837Q353.175 196.38962 352.95624 196.84274L352.95624 201.35837L351.8781 201.35837L351.8781 195.01462L352.89374 195.01462ZM358.6125 198.13962Q358.6125 196.65524 359.3 195.78024Q359.9875 194.90524 361.1125 194.90524Q362.26874 194.90524 362.925 195.71774L362.97186 195.01462L363.97186 195.01462L363.97186 201.20212Q363.97186 202.4365 363.2375 203.13962Q362.5031 203.85837 361.28436 203.85837Q360.59686 203.85837 359.9406 203.5615Q359.28436 203.26462 358.9406 202.76462L359.5031 202.10837Q360.1906 202.96774 361.20624 202.96774Q361.9875 202.96774 362.425 202.51462Q362.8781 202.07712 362.8781 201.26462L362.8781 200.71774Q362.22186 201.48337 361.09686 201.48337Q359.9875 201.48337 359.3 200.59274Q358.6125 199.6865 358.6125 198.13962ZM359.70624 198.26462Q359.70624 199.32712 360.14374 199.95212Q360.58124 200.5615 361.3781 200.5615Q362.39374 200.5615 362.8781 199.624L362.8781 196.73337Q362.3781 195.82712 361.3781 195.82712Q360.59686 195.82712 360.14374 196.4365Q359.70624 197.04587 359.70624 198.26462ZM368.9406 195.98337Q368.6906 195.95212 368.40936 195.95212Q367.33124 195.95212 366.95624 196.85837L366.95624 201.35837L365.8781 201.35837L365.8781 195.01462L366.925 195.01462L366.9406 195.749Q367.47186 194.90524 368.45624 194.90524Q368.76874 194.90524 368.9406 194.98337L368.9406 195.98337ZM373.78436 200.73337Q373.15936 201.48337 371.925 201.48337Q370.90936 201.48337 370.3781 200.88962Q369.84686 200.29587 369.84686 199.13962L369.84686 195.01462L370.925 195.01462L370.925 199.10837Q370.925 200.5615 372.09686 200.5615Q373.34686 200.5615 373.7531 199.624L373.7531 195.01462L374.84686 195.01462L374.84686 201.35837L373.8156 201.35837L373.78436 200.73337Z" fill-rule="nonzero"/><path fill="#9e9e9e" d="M348.33124 216.499L349.51874 216.499L349.51874 217.374L348.33124 217.374L348.33124 219.35837L347.2531 219.35837L347.2531 217.374L343.3625 217.374L343.3625 216.73337L347.175 210.82712L348.33124 210.82712L348.33124 216.499ZM344.59686 216.499L347.2531 216.499L347.2531 212.3115L347.1125 212.54587L344.59686 216.499ZM356.1125 215.71774Q356.1125 217.624 355.45624 218.5615Q354.8156 219.48337 353.425 219.48337Q352.0656 219.48337 351.40936 218.57712Q350.7531 217.67087 350.72186 215.85837L350.72186 214.42087Q350.72186 212.53024 351.3625 211.624Q352.01874 210.70212 353.40936 210.70212Q354.78436 210.70212 355.4406 211.59274Q356.09686 212.46774 356.1125 214.3115L356.1125 215.71774ZM355.01874 214.23337Q355.01874 212.85837 354.6281 212.23337Q354.2531 211.59274 353.40936 211.59274Q352.58124 211.59274 352.1906 212.23337Q351.8156 212.85837 351.8156 214.15524L351.8156 215.88962Q351.8156 217.26462 352.20624 217.9365Q352.6125 218.59274 353.425 218.59274Q354.22186 218.59274 354.6125 217.96774Q355.0031 217.34274 355.01874 216.01462L355.01874 214.23337ZM357.89374 218.79587Q357.89374 218.51462 358.05 218.32712Q358.22186 218.13962 358.55 218.13962Q358.89374 218.13962 359.0656 218.32712Q359.2375 218.51462 359.2375 218.79587Q359.2375 219.0615 359.0656 219.249Q358.89374 219.42087 358.55 219.42087Q358.22186 219.42087 358.05 219.249Q357.89374 219.0615 357.89374 218.79587ZM366.1125 215.71774Q366.1125 217.624 365.45624 218.5615Q364.8156 219.48337 363.425 219.48337Q362.0656 219.48337 361.40936 218.57712Q360.7531 217.67087 360.72186 215.85837L360.72186 214.42087Q360.72186 212.53024 361.3625 211.624Q362.01874 210.70212 363.40936 210.70212Q364.78436 210.70212 365.4406 211.59274Q366.09686 212.46774 366.1125 214.3115L366.1125 215.71774ZM365.01874 214.23337Q365.01874 212.85837 364.6281 212.23337Q364.2531 211.59274 363.40936 211.59274Q362.58124 211.59274 362.1906 212.23337Q361.8156 212.85837 361.8156 214.15524L361.8156 215.88962Q361.8156 217.26462 362.20624 217.9365Q362.6125 218.59274 363.425 218.59274Q364.22186 218.59274 364.6125 217.96774Q365.0031 217.34274 365.01874 216.01462L365.01874 214.23337ZM367.65936 212.46774Q367.65936 211.70212 368.14374 211.20212Q368.64374 210.70212 369.40936 210.70212Q370.1906 210.70212 370.675 211.20212Q371.15936 211.70212 371.15936 212.499L371.15936 212.92087Q371.15936 213.6865 370.65936 214.1865Q370.175 214.67087 369.425 214.67087Q368.65936 214.67087 368.15936 214.1865Q367.65936 213.6865 367.65936 212.874L367.65936 212.46774ZM368.47186 212.92087Q368.47186 213.374 368.72186 213.67087Q368.9875 213.96774 369.425 213.96774Q369.84686 213.96774 370.09686 213.6865Q370.34686 213.38962 370.34686 212.88962L370.34686 212.46774Q370.34686 212.01462 370.09686 211.71774Q369.84686 211.40524 369.40936 211.40524Q368.97186 211.40524 368.72186 211.71774Q368.47186 212.01462 368.47186 212.48337L368.47186 212.92087ZM371.8156 217.26462Q371.8156 216.499 372.3 216.01462Q372.8 215.51462 373.5656 215.51462Q374.33124 215.51462 374.8156 216.01462Q375.3156 216.499 375.3156 217.3115L375.3156 217.71774Q375.3156 218.48337 374.83124 218.98337Q374.34686 219.48337 373.58124 219.48337Q372.8156 219.48337 372.3156 218.999Q371.8156 218.499 371.8156 217.6865L371.8156 217.26462ZM372.6281 217.71774Q372.6281 218.1865 372.8781 218.48337Q373.14374 218.78024 373.58124 218.78024Q374.0031 218.78024 374.2531 218.499Q374.5031 218.20212 374.5031 217.70212L374.5031 217.26462Q374.5031 216.79587 374.2375 216.51462Q373.9875 216.21774 373.5656 216.21774Q373.14374 216.21774 372.8781 216.51462Q372.6281 216.79587 372.6281 217.29587L372.6281 217.71774ZM369.675 218.71774L369.05 218.32712L373.22186 211.65524L373.83124 212.04587L369.675 218.71774Z" fill-rule="nonzero"/><path stroke="#757575" stroke-width="1.0" stroke-linecap="butt" d="M376.05 205.85837L291.56668 205.85837L245.13046 205.85837" fill-rule="nonzero"/><path fill="#9e9e9e" d="M247.13046 205.85837C247.13046 204.7538 246.23503 203.85837 245.13046 203.85837C244.0259 203.85837 243.13046 204.7538 243.13046 205.85837C243.13046 206.96294 244.0259 207.85837 245.13046 207.85837C246.23503 207.85837 247.13046 206.96294 247.13046 205.85837" fill-rule="nonzero"/><path fill="#757575" d="M22.66875 28.465626L24.7 20.3875L26.5125 20.3875L23.434376 30.95L21.965626 30.95L19.403126 22.934376L16.903126 30.95L15.434375 30.95L12.371875 20.3875L14.16875 20.3875L16.246876 28.29375L18.715626 20.3875L20.16875 20.3875L22.66875 28.465626ZM32.7 31.153126Q30.559376 31.153126 29.2 29.746876Q27.85625 28.325 27.85625 25.965626L27.85625 25.621876Q27.85625 24.059376 28.45 22.825Q29.059376 21.590626 30.1375 20.8875Q31.215626 20.184376 32.48125 20.184376Q34.54375 20.184376 35.684376 21.54375Q36.825 22.903126 36.825 25.434376L36.825 26.184376L29.66875 26.184376Q29.7 27.746876 30.575 28.715626Q31.45 29.66875 32.79375 29.66875Q33.7625 29.66875 34.41875 29.278126Q35.090626 28.8875 35.590626 28.246876L36.684376 29.10625Q35.35625 31.153126 32.7 31.153126ZM32.48125 21.66875Q31.3875 21.66875 30.6375 22.465626Q29.903126 23.2625 29.73125 24.7L35.0125 24.7L35.0125 24.559376Q34.934376 23.184376 34.2625 22.434376Q33.60625 21.66875 32.48125 21.66875ZM43.7 31.153126Q41.559376 31.153126 40.2 29.746876Q38.85625 28.325 38.85625 25.965626L38.85625 25.621876Q38.85625 24.059376 39.45 22.825Q40.059376 21.590626 41.1375 20.8875Q42.215626 20.184376 43.48125 20.184376Q45.54375 20.184376 46.684376 21.54375Q47.825 22.903126 47.825 25.434376L47.825 26.184376L40.66875 26.184376Q40.7 27.746876 41.575 28.715626Q42.45 29.66875 43.79375 29.66875Q44.7625 29.66875 45.41875 29.278126Q46.090626 28.8875 46.590626 28.246876L47.684376 29.10625Q46.35625 31.153126 43.7 31.153126ZM43.48125 21.66875Q42.3875 21.66875 41.6375 22.465626Q40.903126 23.2625 40.73125 24.7L46.0125 24.7L46.0125 24.559376Q45.934376 23.184376 45.2625 22.434376Q44.60625 21.66875 43.48125 21.66875ZM53.2625 26.059376L52.1375 27.23125L52.1375 30.95L50.325 30.95L50.325 15.950001L52.1375 15.950001L52.1375 25.028126L53.10625 23.85625L56.3875 20.3875L58.590626 20.3875L54.48125 24.79375L59.075 30.95L56.95 30.95L53.2625 26.059376ZM62.278126 30.95L60.48125 30.95L60.48125 15.950001L62.278126 15.950001L62.278126 30.95ZM68.77812 28.309376L71.23125 20.3875L73.16875 20.3875L68.91875 32.575Q67.93437 35.215626 65.79375 35.215626L65.45 35.184376L64.77812 35.059376L64.77812 33.590626L65.2625 33.6375Q66.18437 33.6375 66.68437 33.2625Q67.2 32.8875 67.52812 31.903126L67.93437 30.825L64.16875 20.3875L66.1375 20.3875L68.77812 28.309376ZM88.66875 28.465626L90.7 20.3875L92.5125 20.3875L89.43437 30.95L87.96562 30.95L85.40312 22.934376L82.90312 30.95L81.43437 30.95L78.37187 20.3875L80.16875 20.3875L82.24687 28.29375L84.71562 20.3875L86.16875 20.3875L88.66875 28.465626ZM96.27812 30.95L94.48125 30.95L94.48125 20.3875L96.27812 20.3875L96.27812 30.95ZM94.325 17.575Q94.325 17.1375 94.59062 16.840626Q94.87187 16.528126 95.3875 16.528126Q95.91875 16.528126 96.18437 16.840626Q96.46562 17.1375 96.46562 17.575Q96.46562 18.0125 96.18437 18.309376Q95.91875 18.60625 95.3875 18.60625Q94.87187 18.60625 94.59062 18.309376Q94.325 18.0125 94.325 17.575ZM101.02812 20.3875L101.09062 21.715626Q102.29375 20.184376 104.24687 20.184376Q107.60625 20.184376 107.62187 23.965626L107.62187 30.95L105.825 30.95L105.825 23.95Q105.80937 22.809376 105.29375 22.2625Q104.79375 21.715626 103.7 21.715626Q102.825 21.715626 102.15312 22.184376Q101.49687 22.653126 101.12187 23.41875L101.12187 30.95L99.325 30.95L99.325 20.3875L101.02812 20.3875ZM112.02812 20.3875L112.09062 21.715626Q113.29375 20.184376 115.24687 20.184376Q118.60625 20.184376 118.62187 23.965626L118.62187 30.95L116.825 30.95L116.825 23.95Q116.80937 22.809376 116.29375 22.2625Q115.79375 21.715626 114.7 21.715626Q113.825 21.715626 113.15312 22.184376Q112.49687 22.653126 112.12187 23.41875L112.12187 30.95L110.325 30.95L110.325 20.3875L112.02812 20.3875ZM123.27812 30.95L121.48125 30.95L121.48125 20.3875L123.27812 20.3875L123.27812 30.95ZM121.325 17.575Q121.325 17.1375 121.59062 16.840626Q121.87187 16.528126 122.3875 16.528126Q122.91875 16.528126 123.18437 16.840626Q123.46562 17.1375 123.46562 17.575Q123.46562 18.0125 123.18437 18.309376Q122.91875 18.60625 122.3875 18.60625Q121.87187 18.60625 121.59062 18.309376Q121.325 18.0125 121.325 17.575ZM128.02812 20.3875L128.09062 21.715626Q129.29375 20.184376 131.24687 20.184376Q134.60625 20.184376 134.62187 23.965626L134.62187 30.95L132.825 30.95L132.825 23.95Q132.80937 22.809376 132.29375 22.2625Q131.79375 21.715626 130.7 21.715626Q129.825 21.715626 129.15312 22.184376Q128.49687 22.653126 128.12187 23.41875L128.12187 30.95L126.325 30.95L126.325 20.3875L128.02812 20.3875ZM136.8875 25.575Q136.8875 23.10625 138.02812 21.653126Q139.16875 20.184376 141.05937 20.184376Q142.99687 20.184376 144.075 21.559376L144.16875 20.3875L145.80937 20.3875L145.80937 30.7Q145.80937 32.746876 144.59062 33.91875Q143.3875 35.10625 141.325 35.10625Q140.18437 35.10625 139.09062 34.621876Q137.99687 34.1375 137.41875 33.278126L138.35625 32.2Q139.52812 33.6375 141.2 33.6375Q142.52812 33.6375 143.2625 32.8875Q143.99687 32.153126 143.99687 30.809376L143.99687 29.8875Q142.91875 31.153126 141.04375 31.153126Q139.18437 31.153126 138.02812 29.653126Q136.8875 28.153126 136.8875 25.575ZM138.7 25.778126Q138.7 27.575 139.43437 28.590626Q140.16875 29.60625 141.48125 29.60625Q143.2 29.60625 143.99687 28.059376L143.99687 23.23125Q143.16875 21.715626 141.5125 21.715626Q140.18437 21.715626 139.43437 22.746876Q138.7 23.778126 138.7 25.778126ZM158.41875 21.996876Q158.0125 21.934376 157.54375 21.934376Q155.7625 21.934376 155.12187 23.45L155.12187 30.95L153.325 30.95L153.325 20.3875L155.075 20.3875L155.10625 21.60625Q155.99687 20.184376 157.62187 20.184376Q158.15312 20.184376 158.41875 20.325L158.41875 21.996876ZM166.84062 30.95Q166.68437 30.6375 166.59062 29.840626Q165.325 31.153126 163.575 31.153126Q162.0125 31.153126 161.0125 30.2625Q160.0125 29.371876 160.0125 28.0125Q160.0125 26.371876 161.2625 25.465626Q162.52812 24.54375 164.79375 24.54375L166.55937 24.54375L166.55937 23.715626Q166.55937 22.7625 165.98125 22.2Q165.41875 21.6375 164.325 21.6375Q163.35625 21.6375 162.7 22.1375Q162.04375 22.621876 162.04375 23.309376L160.23125 23.309376Q160.23125 22.528126 160.79375 21.79375Q161.35625 21.04375 162.30937 20.621876Q163.27812 20.184376 164.43437 20.184376Q166.2625 20.184376 167.29375 21.10625Q168.325 22.0125 168.37187 23.621876L168.37187 28.48125Q168.37187 29.934376 168.73125 30.79375L168.73125 30.95L166.84062 30.95ZM163.84062 29.575Q164.7 29.575 165.45 29.1375Q166.21562 28.7 166.55937 27.996876L166.55937 25.825L165.1375 25.825Q161.825 25.825 161.825 27.7625Q161.825 28.621876 162.3875 29.10625Q162.95 29.575 163.84062 29.575ZM173.7625 17.825L173.7625 20.3875L175.74687 20.3875L175.74687 21.778126L173.7625 21.778126L173.7625 28.325Q173.7625 28.965626 174.02812 29.29375Q174.29375 29.60625 174.93437 29.60625Q175.24687 29.60625 175.79375 29.48125L175.79375 30.95Q175.075 31.153126 174.40312 31.153126Q173.2 31.153126 172.575 30.41875Q171.96562 29.684376 171.96562 28.325L171.96562 21.778126L170.04375 21.778126L170.04375 20.3875L171.96562 20.3875L171.96562 17.825L173.7625 17.825ZM180.27812 30.95L178.48125 30.95L178.48125 20.3875L180.27812 20.3875L180.27812 30.95ZM178.325 17.575Q178.325 17.1375 178.59062 16.840626Q178.87187 16.528126 179.3875 16.528126Q179.91875 16.528126 180.18437 16.840626Q180.46562 17.1375 180.46562 17.575Q180.46562 18.0125 180.18437 18.309376Q179.91875 18.60625 179.3875 18.60625Q178.87187 18.60625 178.59062 18.309376Q178.325 18.0125 178.325 17.575ZM182.84062 25.575Q182.84062 24.0125 183.45 22.778126Q184.05937 21.528126 185.1375 20.85625Q186.23125 20.184376 187.6375 20.184376Q189.79375 20.184376 191.12187 21.684376Q192.46562 23.16875 192.46562 25.653126L192.46562 25.778126Q192.46562 27.325 191.87187 28.559376Q191.27812 29.778126 190.16875 30.465626Q189.075 31.153126 187.65312 31.153126Q185.5125 31.153126 184.16875 29.653126Q182.84062 28.153126 182.84062 25.7L182.84062 25.575ZM184.65312 25.778126Q184.65312 27.54375 185.46562 28.60625Q186.29375 29.66875 187.65312 29.66875Q189.02812 29.66875 189.84062 28.590626Q190.65312 27.5125 190.65312 25.575Q190.65312 23.825 189.825 22.746876Q188.99687 21.66875 187.6375 21.66875Q186.29375 21.66875 185.46562 22.73125Q184.65312 23.79375 184.65312 25.778126Z" fill-rule="nonzero"/></svg>