<svg version="1.1" viewBox="0.0 0.0 388.0 239.0" fill="none" stroke="none" stroke-linecap="square" stroke-miterlimit="10" width="388" height="239" xmlns:xlink="http://www.w3.org/1999/xlink" xmlns="http://www.w3.org/2000/svg"><path fill="#ffffff" d="M0 0L388.0 0L388.0 239.0L0 239.0L0 0Z" fill-rule="nonzero"/><path fill="#ffd966" d="M194.0 43.916668C233.66908 43.916668 268.82666 69.46014 281.08508 107.187675C293.3435 144.91522 279.9145 186.24542 247.82153 209.56232L194.0 135.48334Z" fill-rule="nonzero"/><path fill="#6d9eeb" d="M140.17847 209.56232C108.0855 186.24542 94.6565 144.91522 106.914925 107.187675C119.17335 69.46014 154.33092 43.916668 194.0 43.916668L194.0 135.48334Z" fill-rule="nonzero"/><path fill="#cc4125" d="M247.82153 209.56232C215.72858 232.87923 172.27142 232.87923 140.17847 209.56232L194.0 135.48334Z" fill-rule="nonzero"/><path fill="#757575" d="M14.3875 95.57121L17.184376 102.52434L19.965626 95.57121L21.434376 95.57121L21.434376 104.10246L20.309376 104.10246L20.309376 100.77434L20.41875 97.19621L17.60625 104.10246L16.746876 104.10246L13.95 97.21184L14.059375 100.77434L14.059375 104.10246L12.934375 104.10246L12.934375 95.57121L14.3875 95.57121ZM25.403126 104.22746Q24.10625 104.22746 23.29375 103.38371Q22.496876 102.52434 22.496876 101.10246L22.496876 100.91496Q22.496876 99.96184 22.85625 99.22746Q23.215626 98.47746 23.85625 98.07121Q24.5125 97.64934 25.2625 97.64934Q26.496876 97.64934 27.184376 98.46184Q27.871876 99.27434 27.871876 100.78996L27.871876 101.24309L23.575 101.24309Q23.60625 102.18059 24.121876 102.75871Q24.653126 103.33684 25.465626 103.33684Q26.028126 103.33684 26.41875 103.10246Q26.825 102.86809 27.1375 102.47746L27.79375 102.99309Q26.996876 104.22746 25.403126 104.22746ZM25.2625 98.53996Q24.60625 98.53996 24.153126 99.02434Q23.715626 99.49309 23.621876 100.35246L26.79375 100.35246L26.79375 100.27434Q26.746876 99.44621 26.340626 98.99309Q25.95 98.53996 25.2625 98.53996ZM29.79375 97.75871L29.825 98.55559Q30.559376 97.64934 31.73125 97.64934Q33.746876 97.64934 33.7625 99.91496L33.7625 104.10246L32.66875 104.10246L32.66875 99.89934Q32.66875 99.22746 32.35625 98.89934Q32.059376 98.57121 31.403126 98.57121Q30.871876 98.57121 30.465626 98.85246Q30.075 99.13371 29.85625 99.58684L29.85625 104.10246L28.778126 104.10246L28.778126 97.75871L29.79375 97.75871ZM35.5125 100.88371Q35.5125 99.39934 36.2 98.52434Q36.8875 97.64934 38.0125 97.64934Q39.16875 97.64934 39.825 98.46184L39.871876 97.75871L40.871876 97.75871L40.871876 103.94621Q40.871876 105.18059 40.1375 105.88371Q39.403126 106.60246 38.184376 106.60246Q37.496876 106.60246 36.840626 106.30559Q36.184376 106.00871 35.840626 105.50871L36.403126 104.85246Q37.090626 105.71184 38.10625 105.71184Q38.8875 105.71184 39.325 105.25871Q39.778126 104.82121 39.778126 104.00871L39.778126 103.46184Q39.121876 104.22746 37.996876 104.22746Q36.8875 104.22746 36.2 103.33684Q35.5125 102.43059 35.5125 100.88371ZM36.60625 101.00871Q36.60625 102.07121 37.04375 102.69621Q37.48125 103.30559 38.278126 103.30559Q39.29375 103.30559 39.778126 102.36809L39.778126 99.47746Q39.278126 98.57121 38.278126 98.57121Q37.496876 98.57121 37.04375 99.18059Q36.60625 99.78996 36.60625 101.00871ZM45.840626 98.72746Q45.590626 98.69621 45.309376 98.69621Q44.23125 98.69621 43.85625 99.60246L43.85625 104.10246L42.778126 104.10246L42.778126 97.75871L43.825 97.75871L43.840626 98.49309Q44.371876 97.64934 45.35625 97.64934Q45.66875 97.64934 45.840626 97.72746L45.840626 98.72746ZM50.684376 103.47746Q50.059376 104.22746 48.825 104.22746Q47.809376 104.22746 47.278126 103.63371Q46.746876 103.03996 46.746876 101.88371L46.746876 97.75871L47.825 97.75871L47.825 101.85246Q47.825 103.30559 48.996876 103.30559Q50.246876 103.30559 50.653126 102.36809L50.653126 97.75871L51.746876 97.75871L51.746876 104.10246L50.715626 104.10246L50.684376 103.47746Z" fill-rule="nonzero"/><path fill="#9e9e9e" d="M17.23125 119.24309L18.41875 119.24309L18.41875 120.11809L17.23125 120.11809L17.23125 122.10246L16.153126 122.10246L16.153126 120.11809L12.2625 120.11809L12.2625 119.47746L16.075 113.57121L17.23125 113.57121L17.23125 119.24309ZM13.496875 119.24309L16.153126 119.24309L16.153126 115.05559L16.0125 115.28996L13.496875 119.24309ZM25.0125 118.46184Q25.0125 120.36809 24.35625 121.30559Q23.715626 122.22746 22.325 122.22746Q20.965626 122.22746 20.309376 121.32121Q19.653126 120.41496 19.621876 118.60246L19.621876 117.16496Q19.621876 115.27434 20.2625 114.36809Q20.91875 113.44621 22.309376 113.44621Q23.684376 113.44621 24.340626 114.33684Q24.996876 115.21184 25.0125 117.05559L25.0125 118.46184ZM23.91875 116.97746Q23.91875 115.60246 23.528126 114.97746Q23.153126 114.33684 22.309376 114.33684Q21.48125 114.33684 21.090626 114.97746Q20.715626 115.60246 20.715626 116.89934L20.715626 118.63371Q20.715626 120.00871 21.10625 120.68059Q21.5125 121.33684 22.325 121.33684Q23.121876 121.33684 23.5125 120.71184Q23.903126 120.08684 23.91875 118.75871L23.91875 116.97746ZM26.79375 121.53996Q26.79375 121.25871 26.95 121.07121Q27.121876 120.88371 27.45 120.88371Q27.79375 120.88371 27.965626 121.07121Q28.1375 121.25871 28.1375 121.53996Q28.1375 121.80559 27.965626 121.99309Q27.79375 122.16496 27.45 122.16496Q27.121876 122.16496 26.95 121.99309Q26.79375 121.80559 26.79375 121.53996ZM35.0125 118.46184Q35.0125 120.36809 34.35625 121.30559Q33.715626 122.22746 32.325 122.22746Q30.965626 122.22746 30.309376 121.32121Q29.653126 120.41496 29.621876 118.60246L29.621876 117.16496Q29.621876 115.27434 30.2625 114.36809Q30.91875 113.44621 32.309376 113.44621Q33.684376 113.44621 34.340626 114.33684Q34.996876 115.21184 35.0125 117.05559L35.0125 118.46184ZM33.91875 116.97746Q33.91875 115.60246 33.528126 114.97746Q33.153126 114.33684 32.309376 114.33684Q31.48125 114.33684 31.090626 114.97746Q30.715626 115.60246 30.715626 116.89934L30.715626 118.63371Q30.715626 120.00871 31.10625 120.68059Q31.5125 121.33684 32.325 121.33684Q33.121876 121.33684 33.5125 120.71184Q33.903126 120.08684 33.91875 118.75871L33.91875 116.97746ZM36.559376 115.21184Q36.559376 114.44621 37.04375 113.94621Q37.54375 113.44621 38.309376 113.44621Q39.090626 113.44621 39.575 113.94621Q40.059376 114.44621 40.059376 115.24309L40.059376 115.66496Q40.059376 116.43059 39.559376 116.93059Q39.075 117.41496 38.325 117.41496Q37.559376 117.41496 37.059376 116.93059Q36.559376 116.43059 36.559376 115.61809L36.559376 115.21184ZM37.371876 115.66496Q37.371876 116.11809 37.621876 116.41496Q37.8875 116.71184 38.325 116.71184Q38.746876 116.71184 38.996876 116.43059Q39.246876 116.13371 39.246876 115.63371L39.246876 115.21184Q39.246876 114.75871 38.996876 114.46184Q38.746876 114.14934 38.309376 114.14934Q37.871876 114.14934 37.621876 114.46184Q37.371876 114.75871 37.371876 115.22746L37.371876 115.66496ZM40.715626 120.00871Q40.715626 119.24309 41.2 118.75871Q41.7 118.25871 42.465626 118.25871Q43.23125 118.25871 43.715626 118.75871Q44.215626 119.24309 44.215626 120.05559L44.215626 120.46184Q44.215626 121.22746 43.73125 121.72746Q43.246876 122.22746 42.48125 122.22746Q41.715626 122.22746 41.215626 121.74309Q40.715626 121.24309 40.715626 120.43059L40.715626 120.00871ZM41.528126 120.46184Q41.528126 120.93059 41.778126 121.22746Q42.04375 121.52434 42.48125 121.52434Q42.903126 121.52434 43.153126 121.24309Q43.403126 120.94621 43.403126 120.44621L43.403126 120.00871Q43.403126 119.53996 43.1375 119.25871Q42.8875 118.96184 42.465626 118.96184Q42.04375 118.96184 41.778126 119.25871Q41.528126 119.53996 41.528126 120.03996L41.528126 120.46184ZM38.575 121.46184L37.95 121.07121L42.121876 114.39934L42.73125 114.78996L38.575 121.46184Z" fill-rule="nonzero"/><path stroke="#757575" stroke-width="1.0" stroke-linecap="butt" d="M11.95 108.60246L96.433334 108.60246L111.26918 108.60246" fill-rule="nonzero"/><path fill="#9e9e9e" d="M113.26918 108.60246C113.26918 107.497894 112.37375 106.60246 111.26918 106.60246C110.16461 106.60246 109.26918 107.497894 109.26918 108.60246C109.26918 109.70703 110.16461 110.60246 111.26918 110.60246C112.37375 110.60246 113.26918 109.70703 113.26918 108.60246" fill-rule="nonzero"/><path fill="#757575" d="M338.4875 95.57121L341.28436 102.52434L344.0656 95.57121L345.53436 95.57121L345.53436 104.10246L344.40936 104.10246L344.40936 100.77434L344.51874 97.19621L341.70624 104.10246L340.84686 104.10246L338.05 97.21184L338.15936 100.77434L338.15936 104.10246L337.03436 104.10246L337.03436 95.57121L338.4875 95.57121ZM350.78436 104.10246Q350.6906 103.91496 350.6281 103.43059Q349.8781 104.22746 348.83124 104.22746Q347.89374 104.22746 347.28436 103.69621Q346.6906 103.16496 346.6906 102.33684Q346.6906 101.35246 347.4406 100.80559Q348.1906 100.25871 349.5656 100.25871L350.6125 100.25871L350.6125 99.75871Q350.6125 99.19621 350.26874 98.86809Q349.9406 98.52434 349.26874 98.52434Q348.6906 98.52434 348.3 98.82121Q347.90936 99.10246 347.90936 99.52434L346.8156 99.52434Q346.8156 99.03996 347.14374 98.60246Q347.4875 98.16496 348.0656 97.91496Q348.64374 97.64934 349.33124 97.64934Q350.4406 97.64934 351.05 98.19621Q351.675 98.74309 351.70624 99.69621L351.70624 102.61809Q351.70624 103.49309 351.925 104.00871L351.925 104.10246L350.78436 104.10246ZM348.9875 103.27434Q349.5031 103.27434 349.95624 103.00871Q350.40936 102.74309 350.6125 102.32121L350.6125 101.02434L349.76874 101.02434Q347.76874 101.02434 347.76874 102.19621Q347.76874 102.69621 348.1125 102.99309Q348.45624 103.27434 348.9875 103.27434ZM354.89374 97.75871L354.925 98.55559Q355.65936 97.64934 356.83124 97.64934Q358.84686 97.64934 358.8625 99.91496L358.8625 104.10246L357.76874 104.10246L357.76874 99.89934Q357.76874 99.22746 357.45624 98.89934Q357.15936 98.57121 356.5031 98.57121Q355.97186 98.57121 355.5656 98.85246Q355.175 99.13371 354.95624 99.58684L354.95624 104.10246L353.8781 104.10246L353.8781 97.75871L354.89374 97.75871ZM362.05 104.10246L360.97186 104.10246L360.97186 97.75871L362.05 97.75871L362.05 104.10246ZM360.8781 96.08684Q360.8781 95.82121 361.03436 95.63371Q361.20624 95.44621 361.51874 95.44621Q361.83124 95.44621 361.9875 95.63371Q362.15936 95.82121 362.15936 96.08684Q362.15936 96.33684 361.9875 96.52434Q361.83124 96.69621 361.51874 96.69621Q361.20624 96.69621 361.03436 96.52434Q360.8781 96.33684 360.8781 96.08684ZM367.5656 102.41496Q367.5656 101.97746 367.22186 101.74309Q366.89374 101.49309 366.0656 101.32121Q365.2531 101.14934 364.76874 100.89934Q364.28436 100.64934 364.05 100.32121Q363.83124 99.97746 363.83124 99.50871Q363.83124 98.72746 364.4875 98.19621Q365.14374 97.64934 366.175 97.64934Q367.2531 97.64934 367.90936 98.21184Q368.58124 98.75871 368.58124 99.61809L367.5031 99.61809Q367.5031 99.18059 367.1125 98.86809Q366.7375 98.53996 366.175 98.53996Q365.58124 98.53996 365.2375 98.80559Q364.90936 99.05559 364.90936 99.46184Q364.90936 99.85246 365.22186 100.05559Q365.53436 100.25871 366.34686 100.44621Q367.15936 100.61809 367.65936 100.86809Q368.15936 101.11809 368.39374 101.47746Q368.64374 101.83684 368.64374 102.33684Q368.64374 103.19621 367.95624 103.71184Q367.28436 104.22746 366.20624 104.22746Q365.4406 104.22746 364.84686 103.96184Q364.26874 103.68059 363.9406 103.19621Q363.6125 102.71184 363.6125 102.14934L364.6906 102.14934Q364.72186 102.69621 365.1281 103.02434Q365.53436 103.33684 366.20624 103.33684Q366.8156 103.33684 367.1906 103.08684Q367.5656 102.83684 367.5656 102.41496ZM370.95624 98.52434Q371.675 97.64934 372.83124 97.64934Q374.84686 97.64934 374.8625 99.91496L374.8625 104.10246L373.76874 104.10246L373.76874 99.89934Q373.76874 99.22746 373.45624 98.89934Q373.15936 98.57121 372.5031 98.57121Q371.97186 98.57121 371.5656 98.85246Q371.175 99.13371 370.95624 99.58684L370.95624 104.10246L369.8781 104.10246L369.8781 95.10246L370.95624 95.10246L370.95624 98.52434Z" fill-rule="nonzero"/><path fill="#9e9e9e" d="M348.33124 119.24309L349.51874 119.24309L349.51874 120.11809L348.33124 120.11809L348.33124 122.10246L347.2531 122.10246L347.2531 120.11809L343.3625 120.11809L343.3625 119.47746L347.175 113.57121L348.33124 113.57121L348.33124 119.24309ZM344.59686 119.24309L347.2531 119.24309L347.2531 115.05559L347.1125 115.28996L344.59686 119.24309ZM356.1125 118.46184Q356.1125 120.36809 355.45624 121.30559Q354.8156 122.22746 353.425 122.22746Q352.0656 122.22746 351.40936 121.32121Q350.7531 120.41496 350.72186 118.60246L350.72186 117.16496Q350.72186 115.27434 351.3625 114.36809Q352.01874 113.44621 353.40936 113.44621Q354.78436 113.44621 355.4406 114.33684Q356.09686 115.21184 356.1125 117.05559L356.1125 118.46184ZM355.01874 116.97746Q355.01874 115.60246 354.6281 114.97746Q354.2531 114.33684 353.40936 114.33684Q352.58124 114.33684 352.1906 114.97746Q351.8156 115.60246 351.8156 116.89934L351.8156 118.63371Q351.8156 120.00871 352.20624 120.68059Q352.6125 121.33684 353.425 121.33684Q354.22186 121.33684 354.6125 120.71184Q355.0031 120.08684 355.01874 118.75871L355.01874 116.97746ZM357.89374 121.53996Q357.89374 121.25871 358.05 121.07121Q358.22186 120.88371 358.55 120.88371Q358.89374 120.88371 359.0656 121.07121Q359.2375 121.25871 359.2375 121.53996Q359.2375 121.80559 359.0656 121.99309Q358.89374 122.16496 358.55 122.16496Q358.22186 122.16496 358.05 121.99309Q357.89374 121.80559 357.89374 121.53996ZM366.1125 118.46184Q366.1125 120.36809 365.45624 121.30559Q364.8156 122.22746 363.425 122.22746Q362.0656 122.22746 361.40936 121.32121Q360.7531 120.41496 360.72186 118.60246L360.72186 117.16496Q360.72186 115.27434 361.3625 114.36809Q362.01874 113.44621 363.40936 113.44621Q364.78436 113.44621 365.4406 114.33684Q366.09686 115.21184 366.1125 117.05559L366.1125 118.46184ZM365.01874 116.97746Q365.01874 115.60246 364.6281 114.97746Q364.2531 114.33684 363.40936 114.33684Q362.58124 114.33684 362.1906 114.97746Q361.8156 115.60246 361.8156 116.89934L361.8156 118.63371Q361.8156 120.00871 362.20624 120.68059Q362.6125 121.33684 363.425 121.33684Q364.22186 121.33684 364.6125 120.71184Q365.0031 120.08684 365.01874 118.75871L365.01874 116.97746ZM367.65936 115.21184Q367.65936 114.44621 368.14374 113.94621Q368.64374 113.44621 369.40936 113.44621Q370.1906 113.44621 370.675 113.94621Q371.15936 114.44621 371.15936 115.24309L371.15936 115.66496Q371.15936 116.43059 370.65936 116.93059Q370.175 117.41496 369.425 117.41496Q368.65936 117.41496 368.15936 116.93059Q367.65936 116.43059 367.65936 115.61809L367.65936 115.21184ZM368.47186 115.66496Q368.47186 116.11809 368.72186 116.41496Q368.9875 116.71184 369.425 116.71184Q369.84686 116.71184 370.09686 116.43059Q370.34686 116.13371 370.34686 115.63371L370.34686 115.21184Q370.34686 114.75871 370.09686 114.46184Q369.84686 114.14934 369.40936 114.14934Q368.97186 114.14934 368.72186 114.46184Q368.47186 114.75871 368.47186 115.22746L368.47186 115.66496ZM371.8156 120.00871Q371.8156 119.24309 372.3 118.75871Q372.8 118.25871 373.5656 118.25871Q374.33124 118.25871 374.8156 118.75871Q375.3156 119.24309 375.3156 120.05559L375.3156 120.46184Q375.3156 121.22746 374.83124 121.72746Q374.34686 122.22746 373.58124 122.22746Q372.8156 122.22746 372.3156 121.74309Q371.8156 121.24309 371.8156 120.43059L371.8156 120.00871ZM372.6281 120.46184Q372.6281 120.93059 372.8781 121.22746Q373.14374 121.52434 373.58124 121.52434Q374.0031 121.52434 374.2531 121.24309Q374.5031 120.94621 374.5031 120.44621L374.5031 120.00871Q374.5031 119.53996 374.2375 119.25871Q373.9875 118.96184 373.5656 118.96184Q373.14374 118.96184 372.8781 119.25871Q372.6281 119.53996 372.6281 120.03996L372.6281 120.46184ZM369.675 121.46184L369.05 121.07121L373.22186 114.39934L373.83124 114.78996L369.675 121.46184Z" fill-rule="nonzero"/><path stroke="#757575" stroke-width="1.0" stroke-linecap="butt" d="M376.05 108.60246L291.56668 108.60246L276.73083 108.60246" fill-rule="nonzero"/><path fill="#9e9e9e" d="M278.73083 108.60246C278.73083 107.497894 277.8354 106.60246 276.73083 106.60246C275.62625 106.60246 274.73083 107.497894 274.73083 108.60246C274.73083 109.70703 275.62625 110.60246 276.73083 110.60246C277.8354 110.60246 278.73083 109.70703 278.73083 108.60246" fill-rule="nonzero"/><path fill="#757575" d="M358.9406 198.44063L356.1906 198.44063L356.1906 206.05L355.08124 206.05L355.08124 198.44063L352.33124 198.44063L352.33124 197.51875L358.9406 197.51875L358.9406 198.44063ZM360.95624 200.47188Q361.675 199.59688 362.83124 199.59688Q364.84686 199.59688 364.8625 201.8625L364.8625 206.05L363.76874 206.05L363.76874 201.84688Q363.76874 201.175 363.45624 200.84688Q363.15936 200.51875 362.5031 200.51875Q361.97186 200.51875 361.5656 200.8Q361.175 201.08125 360.95624 201.53438L360.95624 206.05L359.8781 206.05L359.8781 197.05L360.95624 197.05L360.95624 200.47188ZM370.78436 206.05Q370.6906 205.8625 370.6281 205.37813Q369.8781 206.175 368.83124 206.175Q367.89374 206.175 367.28436 205.64375Q366.6906 205.1125 366.6906 204.28438Q366.6906 203.3 367.4406 202.75313Q368.1906 202.20625 369.5656 202.20625L370.6125 202.20625L370.6125 201.70625Q370.6125 201.14375 370.26874 200.81563Q369.9406 200.47188 369.26874 200.47188Q368.6906 200.47188 368.3 200.76875Q367.90936 201.05 367.90936 201.47188L366.8156 201.47188Q366.8156 200.9875 367.14374 200.55Q367.4875 200.1125 368.0656 199.8625Q368.64374 199.59688 369.33124 199.59688Q370.4406 199.59688 371.05 200.14375Q371.675 200.69063 371.70624 201.64375L371.70624 204.56563Q371.70624 205.44063 371.925 205.95625L371.925 206.05L370.78436 206.05ZM368.9875 205.22188Q369.5031 205.22188 369.95624 204.95625Q370.40936 204.69063 370.6125 204.26875L370.6125 202.97188L369.76874 202.97188Q367.76874 202.97188 367.76874 204.14375Q367.76874 204.64375 368.1125 204.94063Q368.45624 205.22188 368.9875 205.22188ZM375.05 206.05L373.97186 206.05L373.97186 199.70625L375.05 199.70625L375.05 206.05ZM373.8781 198.03438Q373.8781 197.76875 374.03436 197.58125Q374.20624 197.39375 374.51874 197.39375Q374.83124 197.39375 374.9875 197.58125Q375.15936 197.76875 375.15936 198.03438Q375.15936 198.28438 374.9875 198.47188Q374.83124 198.64375 374.51874 198.64375Q374.20624 198.64375 374.03436 198.47188Q373.8781 198.28438 373.8781 198.03438Z" fill-rule="nonzero"/><path fill="#9e9e9e" d="M349.34686 224.05L343.7531 224.05L343.7531 223.26875L346.70624 219.9875Q347.3625 219.2375 347.6125 218.78438Q347.8625 218.31563 347.8625 217.81563Q347.8625 217.14375 347.45624 216.72188Q347.0656 216.28438 346.3781 216.28438Q345.58124 216.28438 345.1281 216.75313Q344.675 217.20625 344.675 218.03438L343.59686 218.03438Q343.59686 216.84688 344.34686 216.12813Q345.1125 215.39375 346.3781 215.39375Q347.58124 215.39375 348.26874 216.01875Q348.95624 216.64375 348.95624 217.69063Q348.95624 218.94063 347.34686 220.69063L345.0656 223.15938L349.34686 223.15938L349.34686 224.05ZM356.1125 220.40938Q356.1125 222.31563 355.45624 223.25313Q354.8156 224.175 353.425 224.175Q352.0656 224.175 351.40936 223.26875Q350.7531 222.3625 350.72186 220.55L350.72186 219.1125Q350.72186 217.22188 351.3625 216.31563Q352.01874 215.39375 353.40936 215.39375Q354.78436 215.39375 355.4406 216.28438Q356.09686 217.15938 356.1125 219.00313L356.1125 220.40938ZM355.01874 218.925Q355.01874 217.55 354.6281 216.925Q354.2531 216.28438 353.40936 216.28438Q352.58124 216.28438 352.1906 216.925Q351.8156 217.55 351.8156 218.84688L351.8156 220.58125Q351.8156 221.95625 352.20624 222.62813Q352.6125 223.28438 353.425 223.28438Q354.22186 223.28438 354.6125 222.65938Q355.0031 222.03438 355.01874 220.70625L355.01874 218.925ZM357.89374 223.4875Q357.89374 223.20625 358.05 223.01875Q358.22186 222.83125 358.55 222.83125Q358.89374 222.83125 359.0656 223.01875Q359.2375 223.20625 359.2375 223.4875Q359.2375 223.75313 359.0656 223.94063Q358.89374 224.1125 358.55 224.1125Q358.22186 224.1125 358.05 223.94063Q357.89374 223.75313 357.89374 223.4875ZM366.1125 220.40938Q366.1125 222.31563 365.45624 223.25313Q364.8156 224.175 363.425 224.175Q362.0656 224.175 361.40936 223.26875Q360.7531 222.3625 360.72186 220.55L360.72186 219.1125Q360.72186 217.22188 361.3625 216.31563Q362.01874 215.39375 363.40936 215.39375Q364.78436 215.39375 365.4406 216.28438Q366.09686 217.15938 366.1125 219.00313L366.1125 220.40938ZM365.01874 218.925Q365.01874 217.55 364.6281 216.925Q364.2531 216.28438 363.40936 216.28438Q362.58124 216.28438 362.1906 216.925Q361.8156 217.55 361.8156 218.84688L361.8156 220.58125Q361.8156 221.95625 362.20624 222.62813Q362.6125 223.28438 363.425 223.28438Q364.22186 223.28438 364.6125 222.65938Q365.0031 222.03438 365.01874 220.70625L365.01874 218.925ZM367.65936 217.15938Q367.65936 216.39375 368.14374 215.89375Q368.64374 215.39375 369.40936 215.39375Q370.1906 215.39375 370.675 215.89375Q371.15936 216.39375 371.15936 217.19063L371.15936 217.6125Q371.15936 218.37813 370.65936 218.87813Q370.175 219.3625 369.425 219.3625Q368.65936 219.3625 368.15936 218.87813Q367.65936 218.37813 367.65936 217.56563L367.65936 217.15938ZM368.47186 217.6125Q368.47186 218.06563 368.72186 218.3625Q368.9875 218.65938 369.425 218.65938Q369.84686 218.65938 370.09686 218.37813Q370.34686 218.08125 370.34686 217.58125L370.34686 217.15938Q370.34686 216.70625 370.09686 216.40938Q369.84686 216.09688 369.40936 216.09688Q368.97186 216.09688 368.72186 216.40938Q368.47186 216.70625 368.47186 217.175L368.47186 217.6125ZM371.8156 221.95625Q371.8156 221.19063 372.3 220.70625Q372.8 220.20625 373.5656 220.20625Q374.33124 220.20625 374.8156 220.70625Q375.3156 221.19063 375.3156 222.00313L375.3156 222.40938Q375.3156 223.175 374.83124 223.675Q374.34686 224.175 373.58124 224.175Q372.8156 224.175 372.3156 223.69063Q371.8156 223.19063 371.8156 222.37813L371.8156 221.95625ZM372.6281 222.40938Q372.6281 222.87813 372.8781 223.175Q373.14374 223.47188 373.58124 223.47188Q374.0031 223.47188 374.2531 223.19063Q374.5031 222.89375 374.5031 222.39375L374.5031 221.95625Q374.5031 221.4875 374.2375 221.20625Q373.9875 220.90938 373.5656 220.90938Q373.14374 220.90938 372.8781 221.20625Q372.6281 221.4875 372.6281 221.9875L372.6281 222.40938ZM369.675 223.40938L369.05 223.01875L373.22186 216.34688L373.83124 216.7375L369.675 223.40938Z" fill-rule="nonzero"/><path stroke="#757575" stroke-width="1.0" stroke-linecap="butt" d="M376.05 210.55L291.56668 210.55L194.0 222.47166" fill-rule="nonzero"/><path fill="#9e9e9e" d="M196.0 222.47166C196.0 221.3671 195.10457 220.47166 194.0 220.47166C192.89543 220.47166 192.0 221.3671 192.0 222.47166C192.0 223.57623 192.89543 224.47166 194.0 224.47166C195.10457 224.47166 196.0 223.57623 196.0 222.47166" fill-rule="nonzero"/><path fill="#757575" d="M22.66875 28.465626L24.7 20.3875L26.5125 20.3875L23.434376 30.95L21.965626 30.95L19.403126 22.934376L16.903126 30.95L15.434375 30.95L12.371875 20.3875L14.16875 20.3875L16.246876 28.29375L18.715626 20.3875L20.16875 20.3875L22.66875 28.465626ZM32.7 31.153126Q30.559376 31.153126 29.2 29.746876Q27.85625 28.325 27.85625 25.965626L27.85625 25.621876Q27.85625 24.059376 28.45 22.825Q29.059376 21.590626 30.1375 20.8875Q31.215626 20.184376 32.48125 20.184376Q34.54375 20.184376 35.684376 21.54375Q36.825 22.903126 36.825 25.434376L36.825 26.184376L29.66875 26.184376Q29.7 27.746876 30.575 28.715626Q31.45 29.66875 32.79375 29.66875Q33.7625 29.66875 34.41875 29.278126Q35.090626 28.8875 35.590626 28.246876L36.684376 29.10625Q35.35625 31.153126 32.7 31.153126ZM32.48125 21.66875Q31.3875 21.66875 30.6375 22.465626Q29.903126 23.2625 29.73125 24.7L35.0125 24.7L35.0125 24.559376Q34.934376 23.184376 34.2625 22.434376Q33.60625 21.66875 32.48125 21.66875ZM43.7 31.153126Q41.559376 31.153126 40.2 29.746876Q38.85625 28.325 38.85625 25.965626L38.85625 25.621876Q38.85625 24.059376 39.45 22.825Q40.059376 21.590626 41.1375 20.8875Q42.215626 20.184376 43.48125 20.184376Q45.54375 20.184376 46.684376 21.54375Q47.825 22.903126 47.825 25.434376L47.825 26.184376L40.66875 26.184376Q40.7 27.746876 41.575 28.715626Q42.45 29.66875 43.79375 29.66875Q44.7625 29.66875 45.41875 29.278126Q46.090626 28.8875 46.590626 28.246876L47.684376 29.10625Q46.35625 31.153126 43.7 31.153126ZM43.48125 21.66875Q42.3875 21.66875 41.6375 22.465626Q40.903126 23.2625 40.73125 24.7L46.0125 24.7L46.0125 24.559376Q45.934376 23.184376 45.2625 22.434376Q44.60625 21.66875 43.48125 21.66875ZM53.2625 26.059376L52.1375 27.23125L52.1375 30.95L50.325 30.95L50.325 15.950001L52.1375 15.950001L52.1375 25.028126L53.10625 23.85625L56.3875 20.3875L58.590626 20.3875L54.48125 24.79375L59.075 30.95L56.95 30.95L53.2625 26.059376ZM62.278126 30.95L60.48125 30.95L60.48125 15.950001L62.278126 15.950001L62.278126 30.95ZM68.77812 28.309376L71.23125 20.3875L73.16875 20.3875L68.91875 32.575Q67.93437 35.215626 65.79375 35.215626L65.45 35.184376L64.77812 35.059376L64.77812 33.590626L65.2625 33.6375Q66.18437 33.6375 66.68437 33.2625Q67.2 32.8875 67.52812 31.903126L67.93437 30.825L64.16875 20.3875L66.1375 20.3875L68.77812 28.309376ZM88.66875 28.465626L90.7 20.3875L92.5125 20.3875L89.43437 30.95L87.96562 30.95L85.40312 22.934376L82.90312 30.95L81.43437 30.95L78.37187 20.3875L80.16875 20.3875L82.24687 28.29375L84.71562 20.3875L86.16875 20.3875L88.66875 28.465626ZM96.27812 30.95L94.48125 30.95L94.48125 20.3875L96.27812 20.3875L96.27812 30.95ZM94.325 17.575Q94.325 17.1375 94.59062 16.840626Q94.87187 16.528126 95.3875 16.528126Q95.91875 16.528126 96.18437 16.840626Q96.46562 17.1375 96.46562 17.575Q96.46562 18.0125 96.18437 18.309376Q95.91875 18.60625 95.3875 18.60625Q94.87187 18.60625 94.59062 18.309376Q94.325 18.0125 94.325 17.575ZM101.02812 20.3875L101.09062 21.715626Q102.29375 20.184376 104.24687 20.184376Q107.60625 20.184376 107.62187 23.965626L107.62187 30.95L105.825 30.95L105.825 23.95Q105.80937 22.809376 105.29375 22.2625Q104.79375 21.715626 103.7 21.715626Q102.825 21.715626 102.15312 22.184376Q101.49687 22.653126 101.12187 23.41875L101.12187 30.95L99.325 30.95L99.325 20.3875L101.02812 20.3875ZM112.02812 20.3875L112.09062 21.715626Q113.29375 20.184376 115.24687 20.184376Q118.60625 20.184376 118.62187 23.965626L118.62187 30.95L116.825 30.95L116.825 23.95Q116.80937 22.809376 116.29375 22.2625Q115.79375 21.715626 114.7 21.715626Q113.825 21.715626 113.15312 22.184376Q112.49687 22.653126 112.12187 23.41875L112.12187 30.95L110.325 30.95L110.325 20.3875L112.02812 20.3875ZM123.27812 30.95L121.48125 30.95L121.48125 20.3875L123.27812 20.3875L123.27812 30.95ZM121.325 17.575Q121.325 17.1375 121.59062 16.840626Q121.87187 16.528126 122.3875 16.528126Q122.91875 16.528126 123.18437 16.840626Q123.46562 17.1375 123.46562 17.575Q123.46562 18.0125 123.18437 18.309376Q122.91875 18.60625 122.3875 18.60625Q121.87187 18.60625 121.59062 18.309376Q121.325 18.0125 121.325 17.575ZM128.02812 20.3875L128.09062 21.715626Q129.29375 20.184376 131.24687 20.184376Q134.60625 20.184376 134.62187 23.965626L134.62187 30.95L132.825 30.95L132.825 23.95Q132.80937 22.809376 132.29375 22.2625Q131.79375 21.715626 130.7 21.715626Q129.825 21.715626 129.15312 22.184376Q128.49687 22.653126 128.12187 23.41875L128.12187 30.95L126.325 30.95L126.325 20.3875L128.02812 20.3875ZM136.8875 25.575Q136.8875 23.10625 138.02812 21.653126Q139.16875 20.184376 141.05937 20.184376Q142.99687 20.184376 144.075 21.559376L144.16875 20.3875L145.80937 20.3875L145.80937 30.7Q145.80937 32.746876 144.59062 33.91875Q143.3875 35.10625 141.325 35.10625Q140.18437 35.10625 139.09062 34.621876Q137.99687 34.1375 137.41875 33.278126L138.35625 32.2Q139.52812 33.6375 141.2 33.6375Q142.52812 33.6375 143.2625 32.8875Q143.99687 32.153126 143.99687 30.809376L143.99687 29.8875Q142.91875 31.153126 141.04375 31.153126Q139.18437 31.153126 138.02812 29.653126Q136.8875 28.153126 136.8875 25.575ZM138.7 25.778126Q138.7 27.575 139.43437 28.590626Q140.16875 29.60625 141.48125 29.60625Q143.2 29.60625 143.99687 28.059376L143.99687 23.23125Q143.16875 21.715626 141.5125 21.715626Q140.18437 21.715626 139.43437 22.746876Q138.7 23.778126 138.7 25.778126ZM158.41875 21.996876Q158.0125 21.934376 157.54375 21.934376Q155.7625 21.934376 155.12187 23.45L155.12187 30.95L153.325 30.95L153.325 20.3875L155.075 20.3875L155.10625 21.60625Q155.99687 20.184376 157.62187 20.184376Q158.15312 20.184376 158.41875 20.325L158.41875 21.996876ZM166.84062 30.95Q166.68437 30.6375 166.59062 29.840626Q165.325 31.153126 163.575 31.153126Q162.0125 31.153126 161.0125 30.2625Q160.0125 29.371876 160.0125 28.0125Q160.0125 26.371876 161.2625 25.465626Q162.52812 24.54375 164.79375 24.54375L166.55937 24.54375L166.55937 23.715626Q166.55937 22.7625 165.98125 22.2Q165.41875 21.6375 164.325 21.6375Q163.35625 21.6375 162.7 22.1375Q162.04375 22.621876 162.04375 23.309376L160.23125 23.309376Q160.23125 22.528126 160.79375 21.79375Q161.35625 21.04375 162.30937 20.621876Q163.27812 20.184376 164.43437 20.184376Q166.2625 20.184376 167.29375 21.10625Q168.325 22.0125 168.37187 23.621876L168.37187 28.48125Q168.37187 29.934376 168.73125 30.79375L168.73125 30.95L166.84062 30.95ZM163.84062 29.575Q164.7 29.575 165.45 29.1375Q166.21562 28.7 166.55937 27.996876L166.55937 25.825L165.1375 25.825Q161.825 25.825 161.825 27.7625Q161.825 28.621876 162.3875 29.10625Q162.95 29.575 163.84062 29.575ZM173.7625 17.825L173.7625 20.3875L175.74687 20.3875L175.74687 21.778126L173.7625 21.778126L173.7625 28.325Q173.7625 28.965626 174.02812 29.29375Q174.29375 29.60625 174.93437 29.60625Q175.24687 29.60625 175.79375 29.48125L175.79375 30.95Q175.075 31.153126 174.40312 31.153126Q173.2 31.153126 172.575 30.41875Q171.96562 29.684376 171.96562 28.325L171.96562 21.778126L170.04375 21.778126L170.04375 20.3875L171.96562 20.3875L171.96562 17.825L173.7625 17.825ZM180.27812 30.95L178.48125 30.95L178.48125 20.3875L180.27812 20.3875L180.27812 30.95ZM178.325 17.575Q178.325 17.1375 178.59062 16.840626Q178.87187 16.528126 179.3875 16.528126Q179.91875 16.528126 180.18437 16.840626Q180.46562 17.1375 180.46562 17.575Q180.46562 18.0125 180.18437 18.309376Q179.91875 18.60625 179.3875 18.60625Q178.87187 18.60625 178.59062 18.309376Q178.325 18.0125 178.325 17.575ZM182.84062 25.575Q182.84062 24.0125 183.45 22.778126Q184.05937 21.528126 185.1375 20.85625Q186.23125 20.184376 187.6375 20.184376Q189.79375 20.184376 191.12187 21.684376Q192.46562 23.16875 192.46562 25.653126L192.46562 25.778126Q192.46562 27.325 191.87187 28.559376Q191.27812 29.778126 190.16875 30.465626Q189.075 31.153126 187.65312 31.153126Q185.5125 31.153126 184.16875 29.653126Q182.84062 28.153126 182.84062 25.7L182.84062 25.575ZM184.65312 25.778126Q184.65312 27.54375 185.46562 28.60625Q186.29375 29.66875 187.65312 29.66875Q189.02812 29.66875 189.84062 28.590626Q190.65312 27.5125 190.65312 25.575Q190.65312 23.825 189.825 22.746876Q188.99687 21.66875 187.6375 21.66875Q186.29375 21.66875 185.46562 22.73125Q184.65312 23.79375 184.65312 25.778126Z" fill-rule="nonzero"/></svg>