<svg version="1.1" viewBox="0.0 0.0 388.0 239.0" fill="none" stroke="none" stroke-linecap="square" stroke-miterlimit="10" width="388" height="239" xmlns:xlink="http://www.w3.org/1999/xlink" xmlns="http://www.w3.org/2000/svg"><path fill="#ffffff" d="M0 0L388.0 0L388.0 239.0L0 239.0L0 0Z" fill-rule="nonzero"/><path fill="#ffd966" d="M194.0 43.916668C233.66908 43.916668 268.82666 69.46014 281.08508 107.187675L194.0 135.48334Z" fill-rule="nonzero"/><path fill="#db4437" d="M281.08508 107.187675C293.3435 144.91522 279.9145 186.24542 247.82153 209.56232L194.0 135.48334Z" fill-rule="nonzero"/><path fill="#93c47d" d="M106.914925 107.187675C119.17335 69.46014 154.33092 43.916668 194.0 43.916668L194.0 135.48334Z" fill-rule="nonzero"/><path fill="#6d9eeb" d="M247.82153 209.56232C215.72858 232.87923 172.27142 232.87923 140.17847 209.56232C108.0855 186.24542 94.6565 144.91522 106.914925 107.187675L194.0 135.48334Z" fill-rule="nonzero"/><path fill="#9e9e9e" d="M18.246876 78.60829L12.653125 78.60829L12.653125 77.82704L15.60625 74.54579Q16.2625 73.79579 16.5125 73.34267Q16.7625 72.87392 16.7625 72.37392Q16.7625 71.70204 16.35625 71.28017Q15.965625 70.84267 15.278125 70.84267Q14.48125 70.84267 14.028125 71.31142Q13.575 71.76454 13.575 72.59267L12.496875 72.59267Q12.496875 71.40517 13.246875 70.68642Q14.0125 69.95204 15.278125 69.95204Q16.48125 69.95204 17.16875 70.57704Q17.85625 71.20204 17.85625 72.24892Q17.85625 73.49892 16.246876 75.24892L13.965625 77.71767L18.246876 77.71767L18.246876 78.60829ZM25.0125 74.96767Q25.0125 76.87392 24.35625 77.81142Q23.715626 78.73329 22.325 78.73329Q20.965626 78.73329 20.309376 77.82704Q19.653126 76.92079 19.621876 75.10829L19.621876 73.67079Q19.621876 71.78017 20.2625 70.87392Q20.91875 69.95204 22.309376 69.95204Q23.684376 69.95204 24.340626 70.84267Q24.996876 71.71767 25.0125 73.56142L25.0125 74.96767ZM23.91875 73.48329Q23.91875 72.10829 23.528126 71.48329Q23.153126 70.84267 22.309376 70.84267Q21.48125 70.84267 21.090626 71.48329Q20.715626 72.10829 20.715626 73.40517L20.715626 75.13954Q20.715626 76.51454 21.10625 77.18642Q21.5125 77.84267 22.325 77.84267Q23.121876 77.84267 23.5125 77.21767Q23.903126 76.59267 23.91875 75.26454L23.91875 73.48329ZM26.79375 78.04579Q26.79375 77.76454 26.95 77.57704Q27.121876 77.38954 27.45 77.38954Q27.79375 77.38954 27.965626 77.57704Q28.1375 77.76454 28.1375 78.04579Q28.1375 78.31142 27.965626 78.49892Q27.79375 78.67079 27.45 78.67079Q27.121876 78.67079 26.95 78.49892Q26.79375 78.31142 26.79375 78.04579ZM35.0125 74.96767Q35.0125 76.87392 34.35625 77.81142Q33.715626 78.73329 32.325 78.73329Q30.965626 78.73329 30.309376 77.82704Q29.653126 76.92079 29.621876 75.10829L29.621876 73.67079Q29.621876 71.78017 30.2625 70.87392Q30.91875 69.95204 32.309376 69.95204Q33.684376 69.95204 34.340626 70.84267Q34.996876 71.71767 35.0125 73.56142L35.0125 74.96767ZM33.91875 73.48329Q33.91875 72.10829 33.528126 71.48329Q33.153126 70.84267 32.309376 70.84267Q31.48125 70.84267 31.090626 71.48329Q30.715626 72.10829 30.715626 73.40517L30.715626 75.13954Q30.715626 76.51454 31.10625 77.18642Q31.5125 77.84267 32.325 77.84267Q33.121876 77.84267 33.5125 77.21767Q33.903126 76.59267 33.91875 75.26454L33.91875 73.48329ZM36.559376 71.71767Q36.559376 70.95204 37.04375 70.45204Q37.54375 69.95204 38.309376 69.95204Q39.090626 69.95204 39.575 70.45204Q40.059376 70.95204 40.059376 71.74892L40.059376 72.17079Q40.059376 72.93642 39.559376 73.43642Q39.075 73.92079 38.325 73.92079Q37.559376 73.92079 37.059376 73.43642Q36.559376 72.93642 36.559376 72.12392L36.559376 71.71767ZM37.371876 72.17079Q37.371876 72.62392 37.621876 72.92079Q37.8875 73.21767 38.325 73.21767Q38.746876 73.21767 38.996876 72.93642Q39.246876 72.63954 39.246876 72.13954L39.246876 71.71767Q39.246876 71.26454 38.996876 70.96767Q38.746876 70.65517 38.309376 70.65517Q37.871876 70.65517 37.621876 70.96767Q37.371876 71.26454 37.371876 71.73329L37.371876 72.17079ZM40.715626 76.51454Q40.715626 75.74892 41.2 75.26454Q41.7 74.76454 42.465626 74.76454Q43.23125 74.76454 43.715626 75.26454Q44.215626 75.74892 44.215626 76.56142L44.215626 76.96767Q44.215626 77.73329 43.73125 78.23329Q43.246876 78.73329 42.48125 78.73329Q41.715626 78.73329 41.215626 78.24892Q40.715626 77.74892 40.715626 76.93642L40.715626 76.51454ZM41.528126 76.96767Q41.528126 77.43642 41.778126 77.73329Q42.04375 78.03017 42.48125 78.03017Q42.903126 78.03017 43.153126 77.74892Q43.403126 77.45204 43.403126 76.95204L43.403126 76.51454Q43.403126 76.04579 43.1375 75.76454Q42.8875 75.46767 42.465626 75.46767Q42.04375 75.46767 41.778126 75.76454Q41.528126 76.04579 41.528126 76.54579L41.528126 76.96767ZM38.575 77.96767L37.95 77.57704L42.121876 70.90517L42.73125 71.29579L38.575 77.96767Z" fill-rule="nonzero"/><path stroke="#757575" stroke-width="1.0" stroke-linecap="butt" d="M11.95 65.10829L96.433334 65.10829L142.86954 65.10829" fill-rule="nonzero"/><path fill="#9e9e9e" d="M144.86954 65.10829C144.86954 64.00372 143.9741 63.10829 142.86954 63.10829C141.76497 63.10829 140.86954 64.00372 140.86954 65.10829C140.86954 66.21286 141.76497 67.10829 142.86954 67.10829C143.9741 67.10829 144.86954 66.21286 144.86954 65.10829" fill-rule="nonzero"/><path fill="#757575" d="M14.3875 192.82712L17.184376 199.78024L19.965626 192.82712L21.434376 192.82712L21.434376 201.35837L20.309376 201.35837L20.309376 198.03024L20.41875 194.45212L17.60625 201.35837L16.746876 201.35837L13.95 194.46774L14.059375 198.03024L14.059375 201.35837L12.934375 201.35837L12.934375 192.82712L14.3875 192.82712ZM25.403126 201.48337Q24.10625 201.48337 23.29375 200.63962Q22.496876 199.78024 22.496876 198.35837L22.496876 198.17087Q22.496876 197.21774 22.85625 196.48337Q23.215626 195.73337 23.85625 195.32712Q24.5125 194.90524 25.2625 194.90524Q26.496876 194.90524 27.184376 195.71774Q27.871876 196.53024 27.871876 198.04587L27.871876 198.499L23.575 198.499Q23.60625 199.4365 24.121876 200.01462Q24.653126 200.59274 25.465626 200.59274Q26.028126 200.59274 26.41875 200.35837Q26.825 200.124 27.1375 199.73337L27.79375 200.249Q26.996876 201.48337 25.403126 201.48337ZM25.2625 195.79587Q24.60625 195.79587 24.153126 196.28024Q23.715626 196.749 23.621876 197.60837L26.79375 197.60837L26.79375 197.53024Q26.746876 196.70212 26.340626 196.249Q25.95 195.79587 25.2625 195.79587ZM29.79375 195.01462L29.825 195.8115Q30.559376 194.90524 31.73125 194.90524Q33.746876 194.90524 33.7625 197.17087L33.7625 201.35837L32.66875 201.35837L32.66875 197.15524Q32.66875 196.48337 32.35625 196.15524Q32.059376 195.82712 31.403126 195.82712Q30.871876 195.82712 30.465626 196.10837Q30.075 196.38962 29.85625 196.84274L29.85625 201.35837L28.778126 201.35837L28.778126 195.01462L29.79375 195.01462ZM35.5125 198.13962Q35.5125 196.65524 36.2 195.78024Q36.8875 194.90524 38.0125 194.90524Q39.16875 194.90524 39.825 195.71774L39.871876 195.01462L40.871876 195.01462L40.871876 201.20212Q40.871876 202.4365 40.1375 203.13962Q39.403126 203.85837 38.184376 203.85837Q37.496876 203.85837 36.840626 203.5615Q36.184376 203.26462 35.840626 202.76462L36.403126 202.10837Q37.090626 202.96774 38.10625 202.96774Q38.8875 202.96774 39.325 202.51462Q39.778126 202.07712 39.778126 201.26462L39.778126 200.71774Q39.121876 201.48337 37.996876 201.48337Q36.8875 201.48337 36.2 200.59274Q35.5125 199.6865 35.5125 198.13962ZM36.60625 198.26462Q36.60625 199.32712 37.04375 199.95212Q37.48125 200.5615 38.278126 200.5615Q39.29375 200.5615 39.778126 199.624L39.778126 196.73337Q39.278126 195.82712 38.278126 195.82712Q37.496876 195.82712 37.04375 196.4365Q36.60625 197.04587 36.60625 198.26462ZM45.840626 195.98337Q45.590626 195.95212 45.309376 195.95212Q44.23125 195.95212 43.85625 196.85837L43.85625 201.35837L42.778126 201.35837L42.778126 195.01462L43.825 195.01462L43.840626 195.749Q44.371876 194.90524 45.35625 194.90524Q45.66875 194.90524 45.840626 194.98337L45.840626 195.98337ZM50.684376 200.73337Q50.059376 201.48337 48.825 201.48337Q47.809376 201.48337 47.278126 200.88962Q46.746876 200.29587 46.746876 199.13962L46.746876 195.01462L47.825 195.01462L47.825 199.10837Q47.825 200.5615 48.996876 200.5615Q50.246876 200.5615 50.653126 199.624L50.653126 195.01462L51.746876 195.01462L51.746876 201.35837L50.715626 201.35837L50.684376 200.73337Z" fill-rule="nonzero"/><path fill="#9e9e9e" d="M17.23125 216.499L18.41875 216.499L18.41875 217.374L17.23125 217.374L17.23125 219.35837L16.153126 219.35837L16.153126 217.374L12.2625 217.374L12.2625 216.73337L16.075 210.82712L17.23125 210.82712L17.23125 216.499ZM13.496875 216.499L16.153126 216.499L16.153126 212.3115L16.0125 212.54587L13.496875 216.499ZM25.0125 215.71774Q25.0125 217.624 24.35625 218.5615Q23.715626 219.48337 22.325 219.48337Q20.965626 219.48337 20.309376 218.57712Q19.653126 217.67087 19.621876 215.85837L19.621876 214.42087Q19.621876 212.53024 20.2625 211.624Q20.91875 210.70212 22.309376 210.70212Q23.684376 210.70212 24.340626 211.59274Q24.996876 212.46774 25.0125 214.3115L25.0125 215.71774ZM23.91875 214.23337Q23.91875 212.85837 23.528126 212.23337Q23.153126 211.59274 22.309376 211.59274Q21.48125 211.59274 21.090626 212.23337Q20.715626 212.85837 20.715626 214.15524L20.715626 215.88962Q20.715626 217.26462 21.10625 217.9365Q21.5125 218.59274 22.325 218.59274Q23.121876 218.59274 23.5125 217.96774Q23.903126 217.34274 23.91875 216.01462L23.91875 214.23337ZM26.79375 218.79587Q26.79375 218.51462 26.95 218.32712Q27.121876 218.13962 27.45 218.13962Q27.79375 218.13962 27.965626 218.32712Q28.1375 218.51462 28.1375 218.79587Q28.1375 219.0615 27.965626 219.249Q27.79375 219.42087 27.45 219.42087Q27.121876 219.42087 26.95 219.249Q26.79375 219.0615 26.79375 218.79587ZM35.0125 215.71774Q35.0125 217.624 34.35625 218.5615Q33.715626 219.48337 32.325 219.48337Q30.965626 219.48337 30.309376 218.57712Q29.653126 217.67087 29.621876 215.85837L29.621876 214.42087Q29.621876 212.53024 30.2625 211.624Q30.91875 210.70212 32.309376 210.70212Q33.684376 210.70212 34.340626 211.59274Q34.996876 212.46774 35.0125 214.3115L35.0125 215.71774ZM33.91875 214.23337Q33.91875 212.85837 33.528126 212.23337Q33.153126 211.59274 32.309376 211.59274Q31.48125 211.59274 31.090626 212.23337Q30.715626 212.85837 30.715626 214.15524L30.715626 215.88962Q30.715626 217.26462 31.10625 217.9365Q31.5125 218.59274 32.325 218.59274Q33.121876 218.59274 33.5125 217.96774Q33.903126 217.34274 33.91875 216.01462L33.91875 214.23337ZM36.559376 212.46774Q36.559376 211.70212 37.04375 211.20212Q37.54375 210.70212 38.309376 210.70212Q39.090626 210.70212 39.575 211.20212Q40.059376 211.70212 40.059376 212.499L40.059376 212.92087Q40.059376 213.6865 39.559376 214.1865Q39.075 214.67087 38.325 214.67087Q37.559376 214.67087 37.059376 214.1865Q36.559376 213.6865 36.559376 212.874L36.559376 212.46774ZM37.371876 212.92087Q37.371876 213.374 37.621876 213.67087Q37.8875 213.96774 38.325 213.96774Q38.746876 213.96774 38.996876 213.6865Q39.246876 213.38962 39.246876 212.88962L39.246876 212.46774Q39.246876 212.01462 38.996876 211.71774Q38.746876 211.40524 38.309376 211.40524Q37.871876 211.40524 37.621876 211.71774Q37.371876 212.01462 37.371876 212.48337L37.371876 212.92087ZM40.715626 217.26462Q40.715626 216.499 41.2 216.01462Q41.7 215.51462 42.465626 215.51462Q43.23125 215.51462 43.715626 216.01462Q44.215626 216.499 44.215626 217.3115L44.215626 217.71774Q44.215626 218.48337 43.73125 218.98337Q43.246876 219.48337 42.48125 219.48337Q41.715626 219.48337 41.215626 218.999Q40.715626 218.499 40.715626 217.6865L40.715626 217.26462ZM41.528126 217.71774Q41.528126 218.1865 41.778126 218.48337Q42.04375 218.78024 42.48125 218.78024Q42.903126 218.78024 43.153126 218.499Q43.403126 218.20212 43.403126 217.70212L43.403126 217.26462Q43.403126 216.79587 43.1375 216.51462Q42.8875 216.21774 42.465626 216.21774Q42.04375 216.21774 41.778126 216.51462Q41.528126 216.79587 41.528126 217.29587L41.528126 217.71774ZM38.575 218.71774L37.95 218.32712L42.121876 211.65524L42.73125 212.04587L38.575 218.71774Z" fill-rule="nonzero"/><path stroke="#757575" stroke-width="1.0" stroke-linecap="butt" d="M11.95 205.85837L96.433334 205.85837L142.86954 205.85837" fill-rule="nonzero"/><path fill="#9e9e9e" d="M144.86954 205.85837C144.86954 204.7538 143.9741 203.85837 142.86954 203.85837C141.76497 203.85837 140.86954 204.7538 140.86954 205.85837C140.86954 206.96294 141.76497 207.85837 142.86954 207.85837C143.9741 207.85837 144.86954 206.96294 144.86954 205.85837" fill-rule="nonzero"/><path fill="#757575" d="M338.4875 52.07704L341.28436 59.030167L344.0656 52.07704L345.53436 52.07704L345.53436 60.60829L344.40936 60.60829L344.40936 57.280167L344.51874 53.70204L341.70624 60.60829L340.84686 60.60829L338.05 53.717667L338.15936 57.280167L338.15936 60.60829L337.03436 60.60829L337.03436 52.07704L338.4875 52.07704ZM350.78436 60.60829Q350.6906 60.42079 350.6281 59.936417Q349.8781 60.73329 348.83124 60.73329Q347.89374 60.73329 347.28436 60.20204Q346.6906 59.67079 346.6906 58.842667Q346.6906 57.85829 347.4406 57.311417Q348.1906 56.76454 349.5656 56.76454L350.6125 56.76454L350.6125 56.26454Q350.6125 55.70204 350.26874 55.373917Q349.9406 55.030167 349.26874 55.030167Q348.6906 55.030167 348.3 55.32704Q347.90936 55.60829 347.90936 56.030167L346.8156 56.030167Q346.8156 55.54579 347.14374 55.10829Q347.4875 54.67079 348.0656 54.42079Q348.64374 54.155167 349.33124 54.155167Q350.4406 54.155167 351.05 54.70204Q351.675 55.248917 351.70624 56.20204L351.70624 59.123917Q351.70624 59.998917 351.925 60.51454L351.925 60.60829L350.78436 60.60829ZM348.9875 59.780167Q349.5031 59.780167 349.95624 59.51454Q350.40936 59.248917 350.6125 58.82704L350.6125 57.530167L349.76874 57.530167Q347.76874 57.530167 347.76874 58.70204Q347.76874 59.20204 348.1125 59.498917Q348.45624 59.780167 348.9875 59.780167ZM354.89374 54.26454L354.925 55.061417Q355.65936 54.155167 356.83124 54.155167Q358.84686 54.155167 358.8625 56.42079L358.8625 60.60829L357.76874 60.60829L357.76874 56.405167Q357.76874 55.73329 357.45624 55.405167Q357.15936 55.07704 356.5031 55.07704Q355.97186 55.07704 355.5656 55.35829Q355.175 55.63954 354.95624 56.092667L354.95624 60.60829L353.8781 60.60829L353.8781 54.26454L354.89374 54.26454ZM362.05 60.60829L360.97186 60.60829L360.97186 54.26454L362.05 54.26454L362.05 60.60829ZM360.8781 52.592667Q360.8781 52.32704 361.03436 52.13954Q361.20624 51.95204 361.51874 51.95204Q361.83124 51.95204 361.9875 52.13954Q362.15936 52.32704 362.15936 52.592667Q362.15936 52.842667 361.9875 53.030167Q361.83124 53.20204 361.51874 53.20204Q361.20624 53.20204 361.03436 53.030167Q360.8781 52.842667 360.8781 52.592667ZM367.5656 58.92079Q367.5656 58.48329 367.22186 58.248917Q366.89374 57.998917 366.0656 57.82704Q365.2531 57.655167 364.76874 57.405167Q364.28436 57.155167 364.05 56.82704Q363.83124 56.48329 363.83124 56.01454Q363.83124 55.23329 364.4875 54.70204Q365.14374 54.155167 366.175 54.155167Q367.2531 54.155167 367.90936 54.717667Q368.58124 55.26454 368.58124 56.123917L367.5031 56.123917Q367.5031 55.686417 367.1125 55.373917Q366.7375 55.04579 366.175 55.04579Q365.58124 55.04579 365.2375 55.311417Q364.90936 55.561417 364.90936 55.967667Q364.90936 56.35829 365.22186 56.561417Q365.53436 56.76454 366.34686 56.95204Q367.15936 57.123917 367.65936 57.373917Q368.15936 57.623917 368.39374 57.98329Q368.64374 58.342667 368.64374 58.842667Q368.64374 59.70204 367.95624 60.217667Q367.28436 60.73329 366.20624 60.73329Q365.4406 60.73329 364.84686 60.467667Q364.26874 60.186417 363.9406 59.70204Q363.6125 59.217667 363.6125 58.655167L364.6906 58.655167Q364.72186 59.20204 365.1281 59.530167Q365.53436 59.842667 366.20624 59.842667Q366.8156 59.842667 367.1906 59.592667Q367.5656 59.342667 367.5656 58.92079ZM370.95624 55.030167Q371.675 54.155167 372.83124 54.155167Q374.84686 54.155167 374.8625 56.42079L374.8625 60.60829L373.76874 60.60829L373.76874 56.405167Q373.76874 55.73329 373.45624 55.405167Q373.15936 55.07704 372.5031 55.07704Q371.97186 55.07704 371.5656 55.35829Q371.175 55.63954 370.95624 56.092667L370.95624 60.60829L369.8781 60.60829L369.8781 51.60829L370.95624 51.60829L370.95624 55.030167Z" fill-rule="nonzero"/><path fill="#9e9e9e" d="M349.34686 78.60829L343.7531 78.60829L343.7531 77.82704L346.70624 74.54579Q347.3625 73.79579 347.6125 73.34267Q347.8625 72.87392 347.8625 72.37392Q347.8625 71.70204 347.45624 71.28017Q347.0656 70.84267 346.3781 70.84267Q345.58124 70.84267 345.1281 71.31142Q344.675 71.76454 344.675 72.59267L343.59686 72.59267Q343.59686 71.40517 344.34686 70.68642Q345.1125 69.95204 346.3781 69.95204Q347.58124 69.95204 348.26874 70.57704Q348.95624 71.20204 348.95624 72.24892Q348.95624 73.49892 347.34686 75.24892L345.0656 77.71767L349.34686 77.71767L349.34686 78.60829ZM356.1125 74.96767Q356.1125 76.87392 355.45624 77.81142Q354.8156 78.73329 353.425 78.73329Q352.0656 78.73329 351.40936 77.82704Q350.7531 76.92079 350.72186 75.10829L350.72186 73.67079Q350.72186 71.78017 351.3625 70.87392Q352.01874 69.95204 353.40936 69.95204Q354.78436 69.95204 355.4406 70.84267Q356.09686 71.71767 356.1125 73.56142L356.1125 74.96767ZM355.01874 73.48329Q355.01874 72.10829 354.6281 71.48329Q354.2531 70.84267 353.40936 70.84267Q352.58124 70.84267 352.1906 71.48329Q351.8156 72.10829 351.8156 73.40517L351.8156 75.13954Q351.8156 76.51454 352.20624 77.18642Q352.6125 77.84267 353.425 77.84267Q354.22186 77.84267 354.6125 77.21767Q355.0031 76.59267 355.01874 75.26454L355.01874 73.48329ZM357.89374 78.04579Q357.89374 77.76454 358.05 77.57704Q358.22186 77.38954 358.55 77.38954Q358.89374 77.38954 359.0656 77.57704Q359.2375 77.76454 359.2375 78.04579Q359.2375 78.31142 359.0656 78.49892Q358.89374 78.67079 358.55 78.67079Q358.22186 78.67079 358.05 78.49892Q357.89374 78.31142 357.89374 78.04579ZM366.1125 74.96767Q366.1125 76.87392 365.45624 77.81142Q364.8156 78.73329 363.425 78.73329Q362.0656 78.73329 361.40936 77.82704Q360.7531 76.92079 360.72186 75.10829L360.72186 73.67079Q360.72186 71.78017 361.3625 70.87392Q362.01874 69.95204 363.40936 69.95204Q364.78436 69.95204 365.4406 70.84267Q366.09686 71.71767 366.1125 73.56142L366.1125 74.96767ZM365.01874 73.48329Q365.01874 72.10829 364.6281 71.48329Q364.2531 70.84267 363.40936 70.84267Q362.58124 70.84267 362.1906 71.48329Q361.8156 72.10829 361.8156 73.40517L361.8156 75.13954Q361.8156 76.51454 362.20624 77.18642Q362.6125 77.84267 363.425 77.84267Q364.22186 77.84267 364.6125 77.21767Q365.0031 76.59267 365.01874 75.26454L365.01874 73.48329ZM367.65936 71.71767Q367.65936 70.95204 368.14374 70.45204Q368.64374 69.95204 369.40936 69.95204Q370.1906 69.95204 370.675 70.45204Q371.15936 70.95204 371.15936 71.74892L371.15936 72.17079Q371.15936 72.93642 370.65936 73.43642Q370.175 73.92079 369.425 73.92079Q368.65936 73.92079 368.15936 73.43642Q367.65936 72.93642 367.65936 72.12392L367.65936 71.71767ZM368.47186 72.17079Q368.47186 72.62392 368.72186 72.92079Q368.9875 73.21767 369.425 73.21767Q369.84686 73.21767 370.09686 72.93642Q370.34686 72.63954 370.34686 72.13954L370.34686 71.71767Q370.34686 71.26454 370.09686 70.96767Q369.84686 70.65517 369.40936 70.65517Q368.97186 70.65517 368.72186 70.96767Q368.47186 71.26454 368.47186 71.73329L368.47186 72.17079ZM371.8156 76.51454Q371.8156 75.74892 372.3 75.26454Q372.8 74.76454 373.5656 74.76454Q374.33124 74.76454 374.8156 75.26454Q375.3156 75.74892 375.3156 76.56142L375.3156 76.96767Q375.3156 77.73329 374.83124 78.23329Q374.34686 78.73329 373.58124 78.73329Q372.8156 78.73329 372.3156 78.24892Q371.8156 77.74892 371.8156 76.93642L371.8156 76.51454ZM372.6281 76.96767Q372.6281 77.43642 372.8781 77.73329Q373.14374 78.03017 373.58124 78.03017Q374.0031 78.03017 374.2531 77.74892Q374.5031 77.45204 374.5031 76.95204L374.5031 76.51454Q374.5031 76.04579 374.2375 75.76454Q373.9875 75.46767 373.5656 75.46767Q373.14374 75.46767 372.8781 75.76454Q372.6281 76.04579 372.6281 76.54579L372.6281 76.96767ZM369.675 77.96767L369.05 77.57704L373.22186 70.90517L373.83124 71.29579L369.675 77.96767Z" fill-rule="nonzero"/><path stroke="#757575" stroke-width="1.0" stroke-linecap="butt" d="M376.05 65.10829L291.56668 65.10829L245.13046 65.10829" fill-rule="nonzero"/><path fill="#9e9e9e" d="M247.13046 65.10829C247.13046 64.00372 246.23503 63.10829 245.13046 63.10829C244.0259 63.10829 243.13046 64.00372 243.13046 65.10829C243.13046 66.21286 244.0259 67.10829 245.13046 67.10829C246.23503 67.10829 247.13046 66.21286 247.13046 65.10829" fill-rule="nonzero"/><path fill="#757575" d="M349.7531 155.62984L346.175 155.62984L345.3781 157.86421L344.22186 157.86421L347.47186 149.33296L348.45624 149.33296L351.72186 157.86421L350.5656 157.86421L349.7531 155.62984ZM346.51874 154.70796L349.425 154.70796L347.97186 150.72359L346.51874 154.70796ZM354.05 157.86421L352.97186 157.86421L352.97186 148.86421L354.05 148.86421L354.05 157.86421ZM358.5031 157.98921Q357.20624 157.98921 356.39374 157.14546Q355.59686 156.28609 355.59686 154.86421L355.59686 154.67671Q355.59686 153.72359 355.95624 152.98921Q356.3156 152.23921 356.95624 151.83296Q357.6125 151.41109 358.3625 151.41109Q359.59686 151.41109 360.28436 152.22359Q360.97186 153.03609 360.97186 154.55171L360.97186 155.00484L356.675 155.00484Q356.70624 155.94234 357.22186 156.52046Q357.7531 157.09859 358.5656 157.09859Q359.1281 157.09859 359.51874 156.86421Q359.925 156.62984 360.2375 156.23921L360.89374 156.75484Q360.09686 157.98921 358.5031 157.98921ZM358.3625 152.30171Q357.70624 152.30171 357.2531 152.78609Q356.8156 153.25484 356.72186 154.11421L359.89374 154.11421L359.89374 154.03609Q359.84686 153.20796 359.4406 152.75484Q359.05 152.30171 358.3625 152.30171ZM364.0031 153.83296L365.40936 151.52046L366.675 151.52046L364.59686 154.66109L366.7375 157.86421L365.4875 157.86421L364.01874 155.48921L362.55 157.86421L361.28436 157.86421L363.425 154.66109L361.3625 151.52046L362.6125 151.52046L364.0031 153.83296ZM369.05 157.86421L367.97186 157.86421L367.97186 151.52046L369.05 151.52046L369.05 157.86421ZM367.8781 149.84859Q367.8781 149.58296 368.03436 149.39546Q368.20624 149.20796 368.51874 149.20796Q368.83124 149.20796 368.9875 149.39546Q369.15936 149.58296 369.15936 149.84859Q369.15936 150.09859 368.9875 150.28609Q368.83124 150.45796 368.51874 150.45796Q368.20624 150.45796 368.03436 150.28609Q367.8781 150.09859 367.8781 149.84859ZM374.5656 156.17671Q374.5656 155.73921 374.22186 155.50484Q373.89374 155.25484 373.0656 155.08296Q372.2531 154.91109 371.76874 154.66109Q371.28436 154.41109 371.05 154.08296Q370.83124 153.73921 370.83124 153.27046Q370.83124 152.48921 371.4875 151.95796Q372.14374 151.41109 373.175 151.41109Q374.2531 151.41109 374.90936 151.97359Q375.58124 152.52046 375.58124 153.37984L374.5031 153.37984Q374.5031 152.94234 374.1125 152.62984Q373.7375 152.30171 373.175 152.30171Q372.58124 152.30171 372.2375 152.56734Q371.90936 152.81734 371.90936 153.22359Q371.90936 153.61421 372.22186 153.81734Q372.53436 154.02046 373.34686 154.20796Q374.15936 154.37984 374.65936 154.62984Q375.15936 154.87984 375.39374 155.23921Q375.64374 155.59859 375.64374 156.09859Q375.64374 156.95796 374.95624 157.47359Q374.28436 157.98921 373.20624 157.98921Q372.4406 157.98921 371.84686 157.72359Q371.26874 157.44234 370.9406 156.95796Q370.6125 156.47359 370.6125 155.91109L371.6906 155.91109Q371.72186 156.45796 372.1281 156.78609Q372.53436 157.09859 373.20624 157.09859Q373.8156 157.09859 374.1906 156.84859Q374.5656 156.59859 374.5656 156.17671Z" fill-rule="nonzero"/><path fill="#9e9e9e" d="M349.34686 175.86421L343.7531 175.86421L343.7531 175.08296L346.70624 171.80171Q347.3625 171.05171 347.6125 170.59859Q347.8625 170.12984 347.8625 169.62984Q347.8625 168.95796 347.45624 168.53609Q347.0656 168.09859 346.3781 168.09859Q345.58124 168.09859 345.1281 168.56734Q344.675 169.02046 344.675 169.84859L343.59686 169.84859Q343.59686 168.66109 344.34686 167.94234Q345.1125 167.20796 346.3781 167.20796Q347.58124 167.20796 348.26874 167.83296Q348.95624 168.45796 348.95624 169.50484Q348.95624 170.75484 347.34686 172.50484L345.0656 174.97359L349.34686 174.97359L349.34686 175.86421ZM356.1125 172.22359Q356.1125 174.12984 355.45624 175.06734Q354.8156 175.98921 353.425 175.98921Q352.0656 175.98921 351.40936 175.08296Q350.7531 174.17671 350.72186 172.36421L350.72186 170.92671Q350.72186 169.03609 351.3625 168.12984Q352.01874 167.20796 353.40936 167.20796Q354.78436 167.20796 355.4406 168.09859Q356.09686 168.97359 356.1125 170.81734L356.1125 172.22359ZM355.01874 170.73921Q355.01874 169.36421 354.6281 168.73921Q354.2531 168.09859 353.40936 168.09859Q352.58124 168.09859 352.1906 168.73921Q351.8156 169.36421 351.8156 170.66109L351.8156 172.39546Q351.8156 173.77046 352.20624 174.44234Q352.6125 175.09859 353.425 175.09859Q354.22186 175.09859 354.6125 174.47359Q355.0031 173.84859 355.01874 172.52046L355.01874 170.73921ZM357.89374 175.30171Q357.89374 175.02046 358.05 174.83296Q358.22186 174.64546 358.55 174.64546Q358.89374 174.64546 359.0656 174.83296Q359.2375 175.02046 359.2375 175.30171Q359.2375 175.56734 359.0656 175.75484Q358.89374 175.92671 358.55 175.92671Q358.22186 175.92671 358.05 175.75484Q357.89374 175.56734 357.89374 175.30171ZM366.1125 172.22359Q366.1125 174.12984 365.45624 175.06734Q364.8156 175.98921 363.425 175.98921Q362.0656 175.98921 361.40936 175.08296Q360.7531 174.17671 360.72186 172.36421L360.72186 170.92671Q360.72186 169.03609 361.3625 168.12984Q362.01874 167.20796 363.40936 167.20796Q364.78436 167.20796 365.4406 168.09859Q366.09686 168.97359 366.1125 170.81734L366.1125 172.22359ZM365.01874 170.73921Q365.01874 169.36421 364.6281 168.73921Q364.2531 168.09859 363.40936 168.09859Q362.58124 168.09859 362.1906 168.73921Q361.8156 169.36421 361.8156 170.66109L361.8156 172.39546Q361.8156 173.77046 362.20624 174.44234Q362.6125 175.09859 363.425 175.09859Q364.22186 175.09859 364.6125 174.47359Q365.0031 173.84859 365.01874 172.52046L365.01874 170.73921ZM367.65936 168.97359Q367.65936 168.20796 368.14374 167.70796Q368.64374 167.20796 369.40936 167.20796Q370.1906 167.20796 370.675 167.70796Q371.15936 168.20796 371.15936 169.00484L371.15936 169.42671Q371.15936 170.19234 370.65936 170.69234Q370.175 171.17671 369.425 171.17671Q368.65936 171.17671 368.15936 170.69234Q367.65936 170.19234 367.65936 169.37984L367.65936 168.97359ZM368.47186 169.42671Q368.47186 169.87984 368.72186 170.17671Q368.9875 170.47359 369.425 170.47359Q369.84686 170.47359 370.09686 170.19234Q370.34686 169.89546 370.34686 169.39546L370.34686 168.97359Q370.34686 168.52046 370.09686 168.22359Q369.84686 167.91109 369.40936 167.91109Q368.97186 167.91109 368.72186 168.22359Q368.47186 168.52046 368.47186 168.98921L368.47186 169.42671ZM371.8156 173.77046Q371.8156 173.00484 372.3 172.52046Q372.8 172.02046 373.5656 172.02046Q374.33124 172.02046 374.8156 172.52046Q375.3156 173.00484 375.3156 173.81734L375.3156 174.22359Q375.3156 174.98921 374.83124 175.48921Q374.34686 175.98921 373.58124 175.98921Q372.8156 175.98921 372.3156 175.50484Q371.8156 175.00484 371.8156 174.19234L371.8156 173.77046ZM372.6281 174.22359Q372.6281 174.69234 372.8781 174.98921Q373.14374 175.28609 373.58124 175.28609Q374.0031 175.28609 374.2531 175.00484Q374.5031 174.70796 374.5031 174.20796L374.5031 173.77046Q374.5031 173.30171 374.2375 173.02046Q373.9875 172.72359 373.5656 172.72359Q373.14374 172.72359 372.8781 173.02046Q372.6281 173.30171 372.6281 173.80171L372.6281 174.22359ZM369.675 175.22359L369.05 174.83296L373.22186 168.16109L373.83124 168.55171L369.675 175.22359Z" fill-rule="nonzero"/><path stroke="#757575" stroke-width="1.0" stroke-linecap="butt" d="M376.05 162.36421L291.56668 162.36421L276.73083 162.36421" fill-rule="nonzero"/><path fill="#9e9e9e" d="M278.73083 162.36421C278.73083 161.25964 277.8354 160.36421 276.73083 160.36421C275.62625 160.36421 274.73083 161.25964 274.73083 162.36421C274.73083 163.46878 275.62625 164.36421 276.73083 164.36421C277.8354 164.36421 278.73083 163.46878 278.73083 162.36421" fill-rule="nonzero"/><path fill="#757575" d="M22.66875 28.465626L24.7 20.3875L26.5125 20.3875L23.434376 30.95L21.965626 30.95L19.403126 22.934376L16.903126 30.95L15.434375 30.95L12.371875 20.3875L14.16875 20.3875L16.246876 28.29375L18.715626 20.3875L20.16875 20.3875L22.66875 28.465626ZM32.7 31.153126Q30.559376 31.153126 29.2 29.746876Q27.85625 28.325 27.85625 25.965626L27.85625 25.621876Q27.85625 24.059376 28.45 22.825Q29.059376 21.590626 30.1375 20.8875Q31.215626 20.184376 32.48125 20.184376Q34.54375 20.184376 35.684376 21.54375Q36.825 22.903126 36.825 25.434376L36.825 26.184376L29.66875 26.184376Q29.7 27.746876 30.575 28.715626Q31.45 29.66875 32.79375 29.66875Q33.7625 29.66875 34.41875 29.278126Q35.090626 28.8875 35.590626 28.246876L36.684376 29.10625Q35.35625 31.153126 32.7 31.153126ZM32.48125 21.66875Q31.3875 21.66875 30.6375 22.465626Q29.903126 23.2625 29.73125 24.7L35.0125 24.7L35.0125 24.559376Q34.934376 23.184376 34.2625 22.434376Q33.60625 21.66875 32.48125 21.66875ZM43.7 31.153126Q41.559376 31.153126 40.2 29.746876Q38.85625 28.325 38.85625 25.965626L38.85625 25.621876Q38.85625 24.059376 39.45 22.825Q40.059376 21.590626 41.1375 20.8875Q42.215626 20.184376 43.48125 20.184376Q45.54375 20.184376 46.684376 21.54375Q47.825 22.903126 47.825 25.434376L47.825 26.184376L40.66875 26.184376Q40.7 27.746876 41.575 28.715626Q42.45 29.66875 43.79375 29.66875Q44.7625 29.66875 45.41875 29.278126Q46.090626 28.8875 46.590626 28.246876L47.684376 29.10625Q46.35625 31.153126 43.7 31.153126ZM43.48125 21.66875Q42.3875 21.66875 41.6375 22.465626Q40.903126 23.2625 40.73125 24.7L46.0125 24.7L46.0125 24.559376Q45.934376 23.184376 45.2625 22.434376Q44.60625 21.66875 43.48125 21.66875ZM53.2625 26.059376L52.1375 27.23125L52.1375 30.95L50.325 30.95L50.325 15.950001L52.1375 15.950001L52.1375 25.028126L53.10625 23.85625L56.3875 20.3875L58.590626 20.3875L54.48125 24.79375L59.075 30.95L56.95 30.95L53.2625 26.059376ZM62.278126 30.95L60.48125 30.95L60.48125 15.950001L62.278126 15.950001L62.278126 30.95ZM68.77812 28.309376L71.23125 20.3875L73.16875 20.3875L68.91875 32.575Q67.93437 35.215626 65.79375 35.215626L65.45 35.184376L64.77812 35.059376L64.77812 33.590626L65.2625 33.6375Q66.18437 33.6375 66.68437 33.2625Q67.2 32.8875 67.52812 31.903126L67.93437 30.825L64.16875 20.3875L66.1375 20.3875L68.77812 28.309376ZM88.66875 28.465626L90.7 20.3875L92.5125 20.3875L89.43437 30.95L87.96562 30.95L85.40312 22.934376L82.90312 30.95L81.43437 30.95L78.37187 20.3875L80.16875 20.3875L82.24687 28.29375L84.71562 20.3875L86.16875 20.3875L88.66875 28.465626ZM96.27812 30.95L94.48125 30.95L94.48125 20.3875L96.27812 20.3875L96.27812 30.95ZM94.325 17.575Q94.325 17.1375 94.59062 16.840626Q94.87187 16.528126 95.3875 16.528126Q95.91875 16.528126 96.18437 16.840626Q96.46562 17.1375 96.46562 17.575Q96.46562 18.0125 96.18437 18.309376Q95.91875 18.60625 95.3875 18.60625Q94.87187 18.60625 94.59062 18.309376Q94.325 18.0125 94.325 17.575ZM101.02812 20.3875L101.09062 21.715626Q102.29375 20.184376 104.24687 20.184376Q107.60625 20.184376 107.62187 23.965626L107.62187 30.95L105.825 30.95L105.825 23.95Q105.80937 22.809376 105.29375 22.2625Q104.79375 21.715626 103.7 21.715626Q102.825 21.715626 102.15312 22.184376Q101.49687 22.653126 101.12187 23.41875L101.12187 30.95L99.325 30.95L99.325 20.3875L101.02812 20.3875ZM112.02812 20.3875L112.09062 21.715626Q113.29375 20.184376 115.24687 20.184376Q118.60625 20.184376 118.62187 23.965626L118.62187 30.95L116.825 30.95L116.825 23.95Q116.80937 22.809376 116.29375 22.2625Q115.79375 21.715626 114.7 21.715626Q113.825 21.715626 113.15312 22.184376Q112.49687 22.653126 112.12187 23.41875L112.12187 30.95L110.325 30.95L110.325 20.3875L112.02812 20.3875ZM123.27812 30.95L121.48125 30.95L121.48125 20.3875L123.27812 20.3875L123.27812 30.95ZM121.325 17.575Q121.325 17.1375 121.59062 16.840626Q121.87187 16.528126 122.3875 16.528126Q122.91875 16.528126 123.18437 16.840626Q123.46562 17.1375 123.46562 17.575Q123.46562 18.0125 123.18437 18.309376Q122.91875 18.60625 122.3875 18.60625Q121.87187 18.60625 121.59062 18.309376Q121.325 18.0125 121.325 17.575ZM128.02812 20.3875L128.09062 21.715626Q129.29375 20.184376 131.24687 20.184376Q134.60625 20.184376 134.62187 23.965626L134.62187 30.95L132.825 30.95L132.825 23.95Q132.80937 22.809376 132.29375 22.2625Q131.79375 21.715626 130.7 21.715626Q129.825 21.715626 129.15312 22.184376Q128.49687 22.653126 128.12187 23.41875L128.12187 30.95L126.325 30.95L126.325 20.3875L128.02812 20.3875ZM136.8875 25.575Q136.8875 23.10625 138.02812 21.653126Q139.16875 20.184376 141.05937 20.184376Q142.99687 20.184376 144.075 21.559376L144.16875 20.3875L145.80937 20.3875L145.80937 30.7Q145.80937 32.746876 144.59062 33.91875Q143.3875 35.10625 141.325 35.10625Q140.18437 35.10625 139.09062 34.621876Q137.99687 34.1375 137.41875 33.278126L138.35625 32.2Q139.52812 33.6375 141.2 33.6375Q142.52812 33.6375 143.2625 32.8875Q143.99687 32.153126 143.99687 30.809376L143.99687 29.8875Q142.91875 31.153126 141.04375 31.153126Q139.18437 31.153126 138.02812 29.653126Q136.8875 28.153126 136.8875 25.575ZM138.7 25.778126Q138.7 27.575 139.43437 28.590626Q140.16875 29.60625 141.48125 29.60625Q143.2 29.60625 143.99687 28.059376L143.99687 23.23125Q143.16875 21.715626 141.5125 21.715626Q140.18437 21.715626 139.43437 22.746876Q138.7 23.778126 138.7 25.778126ZM158.41875 21.996876Q158.0125 21.934376 157.54375 21.934376Q155.7625 21.934376 155.12187 23.45L155.12187 30.95L153.325 30.95L153.325 20.3875L155.075 20.3875L155.10625 21.60625Q155.99687 20.184376 157.62187 20.184376Q158.15312 20.184376 158.41875 20.325L158.41875 21.996876ZM166.84062 30.95Q166.68437 30.6375 166.59062 29.840626Q165.325 31.153126 163.575 31.153126Q162.0125 31.153126 161.0125 30.2625Q160.0125 29.371876 160.0125 28.0125Q160.0125 26.371876 161.2625 25.465626Q162.52812 24.54375 164.79375 24.54375L166.55937 24.54375L166.55937 23.715626Q166.55937 22.7625 165.98125 22.2Q165.41875 21.6375 164.325 21.6375Q163.35625 21.6375 162.7 22.1375Q162.04375 22.621876 162.04375 23.309376L160.23125 23.309376Q160.23125 22.528126 160.79375 21.79375Q161.35625 21.04375 162.30937 20.621876Q163.27812 20.184376 164.43437 20.184376Q166.2625 20.184376 167.29375 21.10625Q168.325 22.0125 168.37187 23.621876L168.37187 28.48125Q168.37187 29.934376 168.73125 30.79375L168.73125 30.95L166.84062 30.95ZM163.84062 29.575Q164.7 29.575 165.45 29.1375Q166.21562 28.7 166.55937 27.996876L166.55937 25.825L165.1375 25.825Q161.825 25.825 161.825 27.7625Q161.825 28.621876 162.3875 29.10625Q162.95 29.575 163.84062 29.575ZM173.7625 17.825L173.7625 20.3875L175.74687 20.3875L175.74687 21.778126L173.7625 21.778126L173.7625 28.325Q173.7625 28.965626 174.02812 29.29375Q174.29375 29.60625 174.93437 29.60625Q175.24687 29.60625 175.79375 29.48125L175.79375 30.95Q175.075 31.153126 174.40312 31.153126Q173.2 31.153126 172.575 30.41875Q171.96562 29.684376 171.96562 28.325L171.96562 21.778126L170.04375 21.778126L170.04375 20.3875L171.96562 20.3875L171.96562 17.825L173.7625 17.825ZM180.27812 30.95L178.48125 30.95L178.48125 20.3875L180.27812 20.3875L180.27812 30.95ZM178.325 17.575Q178.325 17.1375 178.59062 16.840626Q178.87187 16.528126 179.3875 16.528126Q179.91875 16.528126 180.18437 16.840626Q180.46562 17.1375 180.46562 17.575Q180.46562 18.0125 180.18437 18.309376Q179.91875 18.60625 179.3875 18.60625Q178.87187 18.60625 178.59062 18.309376Q178.325 18.0125 178.325 17.575ZM182.84062 25.575Q182.84062 24.0125 183.45 22.778126Q184.05937 21.528126 185.1375 20.85625Q186.23125 20.184376 187.6375 20.184376Q189.79375 20.184376 191.12187 21.684376Q192.46562 23.16875 192.46562 25.653126L192.46562 25.778126Q192.46562 27.325 191.87187 28.559376Q191.27812 29.778126 190.16875 30.465626Q189.075 31.153126 187.65312 31.153126Q185.5125 31.153126 184.16875 29.653126Q182.84062 28.153126 182.84062 25.7L182.84062 25.575ZM184.65312 25.778126Q184.65312 27.54375 185.46562 28.60625Q186.29375 29.66875 187.65312 29.66875Q189.02812 29.66875 189.84062 28.590626Q190.65312 27.5125 190.65312 25.575Q190.65312 23.825 189.825 22.746876Q188.99687 21.66875 187.6375 21.66875Q186.29375 21.66875 185.46562 22.73125Q184.65312 23.79375 184.65312 25.778126Z" fill-rule="nonzero"/></svg>