<svg version="1.1" viewBox="0.0 0.0 388.0 239.0" fill="none" stroke="none" stroke-linecap="square" stroke-miterlimit="10" width="388" height="239" xmlns:xlink="http://www.w3.org/1999/xlink" xmlns="http://www.w3.org/2000/svg"><path fill="#ffffff" d="M0 0L388.0 0L388.0 239.0L0 239.0L0 0Z" fill-rule="nonzero"/><path fill="#4285f4" d="M194.0 43.916668C233.66908 43.916668 268.82666 69.46014 281.08508 107.187675L194.0 135.48334Z" fill-rule="nonzero"/><path fill="#db4437" d="M281.08508 107.187675C293.3435 144.91522 279.9145 186.24542 247.82153 209.56232L194.0 135.48334Z" fill-rule="nonzero"/><path fill="#c1bc1f" d="M106.914925 107.187675C119.17335 69.46014 154.33092 43.916668 194.0 43.916668L194.0 135.48334Z" fill-rule="nonzero"/><path fill="#46bdc6" d="M140.17847 209.56232C108.0855 186.24542 94.6565 144.91522 106.914925 107.187675L194.0 135.48334Z" fill-rule="nonzero"/><path fill="#f4b400" d="M247.82153 209.56232C215.72858 232.87923 172.27142 232.87923 140.17847 209.56232L194.0 135.48334Z" fill-rule="nonzero"/><path fill="#757575" d="M19.246876 59.48329Q18.809376 60.10829 18.028126 60.42079Q17.246876 60.73329 16.215626 60.73329Q15.184375 60.73329 14.371875 60.248917Q13.559375 59.748917 13.121875 58.842667Q12.684375 57.936417 12.66875 56.748917L12.66875 56.01454Q12.66875 54.07704 13.559375 53.01454Q14.465625 51.95204 16.090626 51.95204Q17.434376 51.95204 18.246876 52.63954Q19.059376 53.32704 19.246876 54.57704L18.121876 54.57704Q17.79375 52.88954 16.10625 52.88954Q14.965625 52.88954 14.3875 53.686417Q13.809375 54.467667 13.79375 55.98329L13.79375 56.67079Q13.79375 58.10829 14.45 58.967667Q15.10625 59.811417 16.23125 59.811417Q16.85625 59.811417 17.325 59.67079Q17.809376 59.530167 18.121876 59.186417L18.121876 57.280167L16.153126 57.280167L16.153126 56.35829L19.246876 56.35829L19.246876 59.48329ZM24.684376 59.98329Q24.059376 60.73329 22.825 60.73329Q21.809376 60.73329 21.278126 60.13954Q20.746876 59.54579 20.746876 58.38954L20.746876 54.26454L21.825 54.26454L21.825 58.35829Q21.825 59.811417 22.996876 59.811417Q24.246876 59.811417 24.653126 58.873917L24.653126 54.26454L25.746876 54.26454L25.746876 60.60829L24.715626 60.60829L24.684376 59.98329ZM28.95 60.60829L27.871876 60.60829L27.871876 54.26454L28.95 54.26454L28.95 60.60829ZM27.778126 52.592667Q27.778126 52.32704 27.934376 52.13954Q28.10625 51.95204 28.41875 51.95204Q28.73125 51.95204 28.8875 52.13954Q29.059376 52.32704 29.059376 52.592667Q29.059376 52.842667 28.8875 53.030167Q28.73125 53.20204 28.41875 53.20204Q28.10625 53.20204 27.934376 53.030167Q27.778126 52.842667 27.778126 52.592667ZM30.5125 57.38954Q30.5125 55.92079 31.2 55.04579Q31.8875 54.155167 33.0125 54.155167Q34.121876 54.155167 34.778126 54.905167L34.778126 51.60829L35.85625 51.60829L35.85625 60.60829L34.85625 60.60829L34.809376 59.92079Q34.153126 60.73329 32.996876 60.73329Q31.903126 60.73329 31.2 59.82704Q30.5125 58.92079 30.5125 57.467667L30.5125 57.38954ZM31.590626 57.51454Q31.590626 58.592667 32.028126 59.20204Q32.48125 59.811417 33.2625 59.811417Q34.29375 59.811417 34.778126 58.873917L34.778126 55.967667Q34.29375 55.07704 33.278126 55.07704Q32.48125 55.07704 32.028126 55.686417Q31.590626 56.29579 31.590626 57.51454ZM37.48125 57.373917Q37.48125 56.45204 37.840626 55.70204Q38.215626 54.95204 38.871876 54.561417Q39.528126 54.155167 40.35625 54.155167Q41.653126 54.155167 42.45 55.04579Q43.2625 55.936417 43.2625 57.436417L43.2625 57.51454Q43.2625 58.436417 42.903126 59.17079Q42.54375 59.905167 41.8875 60.32704Q41.23125 60.73329 40.371876 60.73329Q39.090626 60.73329 38.278126 59.842667Q37.48125 58.936417 37.48125 57.45204L37.48125 57.373917ZM38.575 57.51454Q38.575 58.561417 39.059376 59.20204Q39.559376 59.842667 40.371876 59.842667Q41.2 59.842667 41.684376 59.20204Q42.16875 58.54579 42.16875 57.373917Q42.16875 56.342667 41.66875 55.70204Q41.184376 55.04579 40.35625 55.04579Q39.559376 55.04579 39.059376 55.686417Q38.575 56.311417 38.575 57.51454Z" fill-rule="nonzero"/><path fill="#9e9e9e" d="M18.246876 78.60829L12.653125 78.60829L12.653125 77.82704L15.60625 74.54579Q16.2625 73.79579 16.5125 73.34267Q16.7625 72.87392 16.7625 72.37392Q16.7625 71.70204 16.35625 71.28017Q15.965625 70.84267 15.278125 70.84267Q14.48125 70.84267 14.028125 71.31142Q13.575 71.76454 13.575 72.59267L12.496875 72.59267Q12.496875 71.40517 13.246875 70.68642Q14.0125 69.95204 15.278125 69.95204Q16.48125 69.95204 17.16875 70.57704Q17.85625 71.20204 17.85625 72.24892Q17.85625 73.49892 16.246876 75.24892L13.965625 77.71767L18.246876 77.71767L18.246876 78.60829ZM25.0125 74.96767Q25.0125 76.87392 24.35625 77.81142Q23.715626 78.73329 22.325 78.73329Q20.965626 78.73329 20.309376 77.82704Q19.653126 76.92079 19.621876 75.10829L19.621876 73.67079Q19.621876 71.78017 20.2625 70.87392Q20.91875 69.95204 22.309376 69.95204Q23.684376 69.95204 24.340626 70.84267Q24.996876 71.71767 25.0125 73.56142L25.0125 74.96767ZM23.91875 73.48329Q23.91875 72.10829 23.528126 71.48329Q23.153126 70.84267 22.309376 70.84267Q21.48125 70.84267 21.090626 71.48329Q20.715626 72.10829 20.715626 73.40517L20.715626 75.13954Q20.715626 76.51454 21.10625 77.18642Q21.5125 77.84267 22.325 77.84267Q23.121876 77.84267 23.5125 77.21767Q23.903126 76.59267 23.91875 75.26454L23.91875 73.48329ZM26.79375 78.04579Q26.79375 77.76454 26.95 77.57704Q27.121876 77.38954 27.45 77.38954Q27.79375 77.38954 27.965626 77.57704Q28.1375 77.76454 28.1375 78.04579Q28.1375 78.31142 27.965626 78.49892Q27.79375 78.67079 27.45 78.67079Q27.121876 78.67079 26.95 78.49892Q26.79375 78.31142 26.79375 78.04579ZM35.0125 74.96767Q35.0125 76.87392 34.35625 77.81142Q33.715626 78.73329 32.325 78.73329Q30.965626 78.73329 30.309376 77.82704Q29.653126 76.92079 29.621876 75.10829L29.621876 73.67079Q29.621876 71.78017 30.2625 70.87392Q30.91875 69.95204 32.309376 69.95204Q33.684376 69.95204 34.340626 70.84267Q34.996876 71.71767 35.0125 73.56142L35.0125 74.96767ZM33.91875 73.48329Q33.91875 72.10829 33.528126 71.48329Q33.153126 70.84267 32.309376 70.84267Q31.48125 70.84267 31.090626 71.48329Q30.715626 72.10829 30.715626 73.40517L30.715626 75.13954Q30.715626 76.51454 31.10625 77.18642Q31.5125 77.84267 32.325 77.84267Q33.121876 77.84267 33.5125 77.21767Q33.903126 76.59267 33.91875 75.26454L33.91875 73.48329ZM36.559376 71.71767Q36.559376 70.95204 37.04375 70.45204Q37.54375 69.95204 38.309376 69.95204Q39.090626 69.95204 39.575 70.45204Q40.059376 70.95204 40.059376 71.74892L40.059376 72.17079Q40.059376 72.93642 39.559376 73.43642Q39.075 73.92079 38.325 73.92079Q37.559376 73.92079 37.059376 73.43642Q36.559376 72.93642 36.559376 72.12392L36.559376 71.71767ZM37.371876 72.17079Q37.371876 72.62392 37.621876 72.92079Q37.8875 73.21767 38.325 73.21767Q38.746876 73.21767 38.996876 72.93642Q39.246876 72.63954 39.246876 72.13954L39.246876 71.71767Q39.246876 71.26454 38.996876 70.96767Q38.746876 70.65517 38.309376 70.65517Q37.871876 70.65517 37.621876 70.96767Q37.371876 71.26454 37.371876 71.73329L37.371876 72.17079ZM40.715626 76.51454Q40.715626 75.74892 41.2 75.26454Q41.7 74.76454 42.465626 74.76454Q43.23125 74.76454 43.715626 75.26454Q44.215626 75.74892 44.215626 76.56142L44.215626 76.96767Q44.215626 77.73329 43.73125 78.23329Q43.246876 78.73329 42.48125 78.73329Q41.715626 78.73329 41.215626 78.24892Q40.715626 77.74892 40.715626 76.93642L40.715626 76.51454ZM41.528126 76.96767Q41.528126 77.43642 41.778126 77.73329Q42.04375 78.03017 42.48125 78.03017Q42.903126 78.03017 43.153126 77.74892Q43.403126 77.45204 43.403126 76.95204L43.403126 76.51454Q43.403126 76.04579 43.1375 75.76454Q42.8875 75.46767 42.465626 75.46767Q42.04375 75.46767 41.778126 75.76454Q41.528126 76.04579 41.528126 76.54579L41.528126 76.96767ZM38.575 77.96767L37.95 77.57704L42.121876 70.90517L42.73125 71.29579L38.575 77.96767Z" fill-rule="nonzero"/><path stroke="#757575" stroke-width="1.0" stroke-linecap="butt" d="M11.95 65.10829L96.433334 65.10829L142.86954 65.10829" fill-rule="nonzero"/><path fill="#9e9e9e" d="M144.86954 65.10829C144.86954 64.00372 143.9741 63.10829 142.86954 63.10829C141.76497 63.10829 140.86954 64.00372 140.86954 65.10829C140.86954 66.21286 141.76497 67.10829 142.86954 67.10829C143.9741 67.10829 144.86954 66.21286 144.86954 65.10829" fill-rule="nonzero"/><path fill="#757575" d="M15.54375 153.61421L17.7625 149.33296L19.04375 149.33296L16.10625 154.67671L16.10625 157.86421L14.98125 157.86421L14.98125 154.67671L12.04375 149.33296L13.325 149.33296L15.54375 153.61421ZM23.684376 157.86421Q23.590626 157.67671 23.528126 157.19234Q22.778126 157.98921 21.73125 157.98921Q20.79375 157.98921 20.184376 157.45796Q19.590626 156.92671 19.590626 156.09859Q19.590626 155.11421 20.340626 154.56734Q21.090626 154.02046 22.465626 154.02046L23.5125 154.02046L23.5125 153.52046Q23.5125 152.95796 23.16875 152.62984Q22.840626 152.28609 22.16875 152.28609Q21.590626 152.28609 21.2 152.58296Q20.809376 152.86421 20.809376 153.28609L19.715626 153.28609Q19.715626 152.80171 20.04375 152.36421Q20.3875 151.92671 20.965626 151.67671Q21.54375 151.41109 22.23125 151.41109Q23.340626 151.41109 23.95 151.95796Q24.575 152.50484 24.60625 153.45796L24.60625 156.37984Q24.60625 157.25484 24.825 157.77046L24.825 157.86421L23.684376 157.86421ZM21.8875 157.03609Q22.403126 157.03609 22.85625 156.77046Q23.309376 156.50484 23.5125 156.08296L23.5125 154.78609L22.66875 154.78609Q20.66875 154.78609 20.66875 155.95796Q20.66875 156.45796 21.0125 156.75484Q21.35625 157.03609 21.8875 157.03609ZM27.79375 151.52046L27.825 152.31734Q28.559376 151.41109 29.73125 151.41109Q31.746876 151.41109 31.7625 153.67671L31.7625 157.86421L30.66875 157.86421L30.66875 153.66109Q30.66875 152.98921 30.35625 152.66109Q30.059376 152.33296 29.403126 152.33296Q28.871876 152.33296 28.465626 152.61421Q28.075 152.89546 27.85625 153.34859L27.85625 157.86421L26.778126 157.86421L26.778126 151.52046L27.79375 151.52046ZM34.79375 151.52046L34.825 152.31734Q35.559376 151.41109 36.73125 151.41109Q38.746876 151.41109 38.7625 153.67671L38.7625 157.86421L37.66875 157.86421L37.66875 153.66109Q37.66875 152.98921 37.35625 152.66109Q37.059376 152.33296 36.403126 152.33296Q35.871876 152.33296 35.465626 152.61421Q35.075 152.89546 34.85625 153.34859L34.85625 157.86421L33.778126 157.86421L33.778126 151.52046L34.79375 151.52046ZM44.684376 157.86421Q44.590626 157.67671 44.528126 157.19234Q43.778126 157.98921 42.73125 157.98921Q41.79375 157.98921 41.184376 157.45796Q40.590626 156.92671 40.590626 156.09859Q40.590626 155.11421 41.340626 154.56734Q42.090626 154.02046 43.465626 154.02046L44.5125 154.02046L44.5125 153.52046Q44.5125 152.95796 44.16875 152.62984Q43.840626 152.28609 43.16875 152.28609Q42.590626 152.28609 42.2 152.58296Q41.809376 152.86421 41.809376 153.28609L40.715626 153.28609Q40.715626 152.80171 41.04375 152.36421Q41.3875 151.92671 41.965626 151.67671Q42.54375 151.41109 43.23125 151.41109Q44.340626 151.41109 44.95 151.95796Q45.575 152.50484 45.60625 153.45796L45.60625 156.37984Q45.60625 157.25484 45.825 157.77046L45.825 157.86421L44.684376 157.86421ZM42.8875 157.03609Q43.403126 157.03609 43.85625 156.77046Q44.309376 156.50484 44.5125 156.08296L44.5125 154.78609L43.66875 154.78609Q41.66875 154.78609 41.66875 155.95796Q41.66875 156.45796 42.0125 156.75484Q42.35625 157.03609 42.8875 157.03609ZM48.79375 151.52046L48.825 152.31734Q49.559376 151.41109 50.73125 151.41109Q52.746876 151.41109 52.7625 153.67671L52.7625 157.86421L51.66875 157.86421L51.66875 153.66109Q51.66875 152.98921 51.35625 152.66109Q51.059376 152.33296 50.403126 152.33296Q49.871876 152.33296 49.465626 152.61421Q49.075 152.89546 48.85625 153.34859L48.85625 157.86421L47.778126 157.86421L47.778126 151.52046L48.79375 151.52046Z" fill-rule="nonzero"/><path fill="#9e9e9e" d="M18.246876 175.86421L12.653125 175.86421L12.653125 175.08296L15.60625 171.80171Q16.2625 171.05171 16.5125 170.59859Q16.7625 170.12984 16.7625 169.62984Q16.7625 168.95796 16.35625 168.53609Q15.965625 168.09859 15.278125 168.09859Q14.48125 168.09859 14.028125 168.56734Q13.575 169.02046 13.575 169.84859L12.496875 169.84859Q12.496875 168.66109 13.246875 167.94234Q14.0125 167.20796 15.278125 167.20796Q16.48125 167.20796 17.16875 167.83296Q17.85625 168.45796 17.85625 169.50484Q17.85625 170.75484 16.246876 172.50484L13.965625 174.97359L18.246876 174.97359L18.246876 175.86421ZM25.0125 172.22359Q25.0125 174.12984 24.35625 175.06734Q23.715626 175.98921 22.325 175.98921Q20.965626 175.98921 20.309376 175.08296Q19.653126 174.17671 19.621876 172.36421L19.621876 170.92671Q19.621876 169.03609 20.2625 168.12984Q20.91875 167.20796 22.309376 167.20796Q23.684376 167.20796 24.340626 168.09859Q24.996876 168.97359 25.0125 170.81734L25.0125 172.22359ZM23.91875 170.73921Q23.91875 169.36421 23.528126 168.73921Q23.153126 168.09859 22.309376 168.09859Q21.48125 168.09859 21.090626 168.73921Q20.715626 169.36421 20.715626 170.66109L20.715626 172.39546Q20.715626 173.77046 21.10625 174.44234Q21.5125 175.09859 22.325 175.09859Q23.121876 175.09859 23.5125 174.47359Q23.903126 173.84859 23.91875 172.52046L23.91875 170.73921ZM26.79375 175.30171Q26.79375 175.02046 26.95 174.83296Q27.121876 174.64546 27.45 174.64546Q27.79375 174.64546 27.965626 174.83296Q28.1375 175.02046 28.1375 175.30171Q28.1375 175.56734 27.965626 175.75484Q27.79375 175.92671 27.45 175.92671Q27.121876 175.92671 26.95 175.75484Q26.79375 175.56734 26.79375 175.30171ZM35.0125 172.22359Q35.0125 174.12984 34.35625 175.06734Q33.715626 175.98921 32.325 175.98921Q30.965626 175.98921 30.309376 175.08296Q29.653126 174.17671 29.621876 172.36421L29.621876 170.92671Q29.621876 169.03609 30.2625 168.12984Q30.91875 167.20796 32.309376 167.20796Q33.684376 167.20796 34.340626 168.09859Q34.996876 168.97359 35.0125 170.81734L35.0125 172.22359ZM33.91875 170.73921Q33.91875 169.36421 33.528126 168.73921Q33.153126 168.09859 32.309376 168.09859Q31.48125 168.09859 31.090626 168.73921Q30.715626 169.36421 30.715626 170.66109L30.715626 172.39546Q30.715626 173.77046 31.10625 174.44234Q31.5125 175.09859 32.325 175.09859Q33.121876 175.09859 33.5125 174.47359Q33.903126 173.84859 33.91875 172.52046L33.91875 170.73921ZM36.559376 168.97359Q36.559376 168.20796 37.04375 167.70796Q37.54375 167.20796 38.309376 167.20796Q39.090626 167.20796 39.575 167.70796Q40.059376 168.20796 40.059376 169.00484L40.059376 169.42671Q40.059376 170.19234 39.559376 170.69234Q39.075 171.17671 38.325 171.17671Q37.559376 171.17671 37.059376 170.69234Q36.559376 170.19234 36.559376 169.37984L36.559376 168.97359ZM37.371876 169.42671Q37.371876 169.87984 37.621876 170.17671Q37.8875 170.47359 38.325 170.47359Q38.746876 170.47359 38.996876 170.19234Q39.246876 169.89546 39.246876 169.39546L39.246876 168.97359Q39.246876 168.52046 38.996876 168.22359Q38.746876 167.91109 38.309376 167.91109Q37.871876 167.91109 37.621876 168.22359Q37.371876 168.52046 37.371876 168.98921L37.371876 169.42671ZM40.715626 173.77046Q40.715626 173.00484 41.2 172.52046Q41.7 172.02046 42.465626 172.02046Q43.23125 172.02046 43.715626 172.52046Q44.215626 173.00484 44.215626 173.81734L44.215626 174.22359Q44.215626 174.98921 43.73125 175.48921Q43.246876 175.98921 42.48125 175.98921Q41.715626 175.98921 41.215626 175.50484Q40.715626 175.00484 40.715626 174.19234L40.715626 173.77046ZM41.528126 174.22359Q41.528126 174.69234 41.778126 174.98921Q42.04375 175.28609 42.48125 175.28609Q42.903126 175.28609 43.153126 175.00484Q43.403126 174.70796 43.403126 174.20796L43.403126 173.77046Q43.403126 173.30171 43.1375 173.02046Q42.8875 172.72359 42.465626 172.72359Q42.04375 172.72359 41.778126 173.02046Q41.528126 173.30171 41.528126 173.80171L41.528126 174.22359ZM38.575 175.22359L37.95 174.83296L42.121876 168.16109L42.73125 168.55171L38.575 175.22359Z" fill-rule="nonzero"/><path stroke="#757575" stroke-width="1.0" stroke-linecap="butt" d="M11.95 162.36421L96.433334 162.36421L111.26918 162.36421" fill-rule="nonzero"/><path fill="#9e9e9e" d="M113.26918 162.36421C113.26918 161.25964 112.37375 160.36421 111.26918 160.36421C110.16461 160.36421 109.26918 161.25964 109.26918 162.36421C109.26918 163.46878 110.16461 164.36421 111.26918 164.36421C112.37375 164.36421 113.26918 163.46878 113.26918 162.36421" fill-rule="nonzero"/><path fill="#757575" d="M348.7531 58.373917L345.175 58.373917L344.3781 60.60829L343.22186 60.60829L346.47186 52.07704L347.45624 52.07704L350.72186 60.60829L349.5656 60.60829L348.7531 58.373917ZM345.51874 57.45204L348.425 57.45204L346.97186 53.467667L345.51874 57.45204ZM352.89374 54.26454L352.925 54.967667Q353.6125 54.155167 354.8 54.155167Q356.1281 54.155167 356.6125 55.17079Q356.925 54.717667 357.425 54.436417Q357.9406 54.155167 358.6281 54.155167Q360.72186 54.155167 360.7531 56.35829L360.7531 60.60829L359.675 60.60829L359.675 56.42079Q359.675 55.748917 359.3625 55.42079Q359.05 55.07704 358.3156 55.07704Q357.70624 55.07704 357.3 55.436417Q356.90936 55.79579 356.84686 56.405167L356.84686 60.60829L355.76874 60.60829L355.76874 56.45204Q355.76874 55.07704 354.40936 55.07704Q353.34686 55.07704 352.95624 55.98329L352.95624 60.60829L351.8625 60.60829L351.8625 54.26454L352.89374 54.26454ZM366.78436 60.60829Q366.6906 60.42079 366.6281 59.936417Q365.8781 60.73329 364.83124 60.73329Q363.89374 60.73329 363.28436 60.20204Q362.6906 59.67079 362.6906 58.842667Q362.6906 57.85829 363.4406 57.311417Q364.1906 56.76454 365.5656 56.76454L366.6125 56.76454L366.6125 56.26454Q366.6125 55.70204 366.26874 55.373917Q365.9406 55.030167 365.26874 55.030167Q364.6906 55.030167 364.3 55.32704Q363.90936 55.60829 363.90936 56.030167L362.8156 56.030167Q362.8156 55.54579 363.14374 55.10829Q363.4875 54.67079 364.0656 54.42079Q364.64374 54.155167 365.33124 54.155167Q366.4406 54.155167 367.05 54.70204Q367.675 55.248917 367.70624 56.20204L367.70624 59.123917Q367.70624 59.998917 367.925 60.51454L367.925 60.60829L366.78436 60.60829ZM364.9875 59.780167Q365.5031 59.780167 365.95624 59.51454Q366.40936 59.248917 366.6125 58.82704L366.6125 57.530167L365.76874 57.530167Q363.76874 57.530167 363.76874 58.70204Q363.76874 59.20204 364.1125 59.498917Q364.45624 59.780167 364.9875 59.780167ZM370.89374 54.26454L370.925 55.061417Q371.65936 54.155167 372.83124 54.155167Q374.84686 54.155167 374.8625 56.42079L374.8625 60.60829L373.76874 60.60829L373.76874 56.405167Q373.76874 55.73329 373.45624 55.405167Q373.15936 55.07704 372.5031 55.07704Q371.97186 55.07704 371.5656 55.35829Q371.175 55.63954 370.95624 56.092667L370.95624 60.60829L369.8781 60.60829L369.8781 54.26454L370.89374 54.26454Z" fill-rule="nonzero"/><path fill="#9e9e9e" d="M349.34686 78.60829L343.7531 78.60829L343.7531 77.82704L346.70624 74.54579Q347.3625 73.79579 347.6125 73.34267Q347.8625 72.87392 347.8625 72.37392Q347.8625 71.70204 347.45624 71.28017Q347.0656 70.84267 346.3781 70.84267Q345.58124 70.84267 345.1281 71.31142Q344.675 71.76454 344.675 72.59267L343.59686 72.59267Q343.59686 71.40517 344.34686 70.68642Q345.1125 69.95204 346.3781 69.95204Q347.58124 69.95204 348.26874 70.57704Q348.95624 71.20204 348.95624 72.24892Q348.95624 73.49892 347.34686 75.24892L345.0656 77.71767L349.34686 77.71767L349.34686 78.60829ZM356.1125 74.96767Q356.1125 76.87392 355.45624 77.81142Q354.8156 78.73329 353.425 78.73329Q352.0656 78.73329 351.40936 77.82704Q350.7531 76.92079 350.72186 75.10829L350.72186 73.67079Q350.72186 71.78017 351.3625 70.87392Q352.01874 69.95204 353.40936 69.95204Q354.78436 69.95204 355.4406 70.84267Q356.09686 71.71767 356.1125 73.56142L356.1125 74.96767ZM355.01874 73.48329Q355.01874 72.10829 354.6281 71.48329Q354.2531 70.84267 353.40936 70.84267Q352.58124 70.84267 352.1906 71.48329Q351.8156 72.10829 351.8156 73.40517L351.8156 75.13954Q351.8156 76.51454 352.20624 77.18642Q352.6125 77.84267 353.425 77.84267Q354.22186 77.84267 354.6125 77.21767Q355.0031 76.59267 355.01874 75.26454L355.01874 73.48329ZM357.89374 78.04579Q357.89374 77.76454 358.05 77.57704Q358.22186 77.38954 358.55 77.38954Q358.89374 77.38954 359.0656 77.57704Q359.2375 77.76454 359.2375 78.04579Q359.2375 78.31142 359.0656 78.49892Q358.89374 78.67079 358.55 78.67079Q358.22186 78.67079 358.05 78.49892Q357.89374 78.31142 357.89374 78.04579ZM366.1125 74.96767Q366.1125 76.87392 365.45624 77.81142Q364.8156 78.73329 363.425 78.73329Q362.0656 78.73329 361.40936 77.82704Q360.7531 76.92079 360.72186 75.10829L360.72186 73.67079Q360.72186 71.78017 361.3625 70.87392Q362.01874 69.95204 363.40936 69.95204Q364.78436 69.95204 365.4406 70.84267Q366.09686 71.71767 366.1125 73.56142L366.1125 74.96767ZM365.01874 73.48329Q365.01874 72.10829 364.6281 71.48329Q364.2531 70.84267 363.40936 70.84267Q362.58124 70.84267 362.1906 71.48329Q361.8156 72.10829 361.8156 73.40517L361.8156 75.13954Q361.8156 76.51454 362.20624 77.18642Q362.6125 77.84267 363.425 77.84267Q364.22186 77.84267 364.6125 77.21767Q365.0031 76.59267 365.01874 75.26454L365.01874 73.48329ZM367.65936 71.71767Q367.65936 70.95204 368.14374 70.45204Q368.64374 69.95204 369.40936 69.95204Q370.1906 69.95204 370.675 70.45204Q371.15936 70.95204 371.15936 71.74892L371.15936 72.17079Q371.15936 72.93642 370.65936 73.43642Q370.175 73.92079 369.425 73.92079Q368.65936 73.92079 368.15936 73.43642Q367.65936 72.93642 367.65936 72.12392L367.65936 71.71767ZM368.47186 72.17079Q368.47186 72.62392 368.72186 72.92079Q368.9875 73.21767 369.425 73.21767Q369.84686 73.21767 370.09686 72.93642Q370.34686 72.63954 370.34686 72.13954L370.34686 71.71767Q370.34686 71.26454 370.09686 70.96767Q369.84686 70.65517 369.40936 70.65517Q368.97186 70.65517 368.72186 70.96767Q368.47186 71.26454 368.47186 71.73329L368.47186 72.17079ZM371.8156 76.51454Q371.8156 75.74892 372.3 75.26454Q372.8 74.76454 373.5656 74.76454Q374.33124 74.76454 374.8156 75.26454Q375.3156 75.74892 375.3156 76.56142L375.3156 76.96767Q375.3156 77.73329 374.83124 78.23329Q374.34686 78.73329 373.58124 78.73329Q372.8156 78.73329 372.3156 78.24892Q371.8156 77.74892 371.8156 76.93642L371.8156 76.51454ZM372.6281 76.96767Q372.6281 77.43642 372.8781 77.73329Q373.14374 78.03017 373.58124 78.03017Q374.0031 78.03017 374.2531 77.74892Q374.5031 77.45204 374.5031 76.95204L374.5031 76.51454Q374.5031 76.04579 374.2375 75.76454Q373.9875 75.46767 373.5656 75.46767Q373.14374 75.46767 372.8781 75.76454Q372.6281 76.04579 372.6281 76.54579L372.6281 76.96767ZM369.675 77.96767L369.05 77.57704L373.22186 70.90517L373.83124 71.29579L369.675 77.96767Z" fill-rule="nonzero"/><path stroke="#757575" stroke-width="1.0" stroke-linecap="butt" d="M376.05 65.10829L291.56668 65.10829L245.13046 65.10829" fill-rule="nonzero"/><path fill="#9e9e9e" d="M247.13046 65.10829C247.13046 64.00372 246.23503 63.10829 245.13046 63.10829C244.0259 63.10829 243.13046 64.00372 243.13046 65.10829C243.13046 66.21286 244.0259 67.10829 245.13046 67.10829C246.23503 67.10829 247.13046 66.21286 247.13046 65.10829" fill-rule="nonzero"/><path fill="#757575" d="M349.7531 155.62984L346.175 155.62984L345.3781 157.86421L344.22186 157.86421L347.47186 149.33296L348.45624 149.33296L351.72186 157.86421L350.5656 157.86421L349.7531 155.62984ZM346.51874 154.70796L349.425 154.70796L347.97186 150.72359L346.51874 154.70796ZM354.05 157.86421L352.97186 157.86421L352.97186 148.86421L354.05 148.86421L354.05 157.86421ZM358.5031 157.98921Q357.20624 157.98921 356.39374 157.14546Q355.59686 156.28609 355.59686 154.86421L355.59686 154.67671Q355.59686 153.72359 355.95624 152.98921Q356.3156 152.23921 356.95624 151.83296Q357.6125 151.41109 358.3625 151.41109Q359.59686 151.41109 360.28436 152.22359Q360.97186 153.03609 360.97186 154.55171L360.97186 155.00484L356.675 155.00484Q356.70624 155.94234 357.22186 156.52046Q357.7531 157.09859 358.5656 157.09859Q359.1281 157.09859 359.51874 156.86421Q359.925 156.62984 360.2375 156.23921L360.89374 156.75484Q360.09686 157.98921 358.5031 157.98921ZM358.3625 152.30171Q357.70624 152.30171 357.2531 152.78609Q356.8156 153.25484 356.72186 154.11421L359.89374 154.11421L359.89374 154.03609Q359.84686 153.20796 359.4406 152.75484Q359.05 152.30171 358.3625 152.30171ZM364.0031 153.83296L365.40936 151.52046L366.675 151.52046L364.59686 154.66109L366.7375 157.86421L365.4875 157.86421L364.01874 155.48921L362.55 157.86421L361.28436 157.86421L363.425 154.66109L361.3625 151.52046L362.6125 151.52046L364.0031 153.83296ZM369.05 157.86421L367.97186 157.86421L367.97186 151.52046L369.05 151.52046L369.05 157.86421ZM367.8781 149.84859Q367.8781 149.58296 368.03436 149.39546Q368.20624 149.20796 368.51874 149.20796Q368.83124 149.20796 368.9875 149.39546Q369.15936 149.58296 369.15936 149.84859Q369.15936 150.09859 368.9875 150.28609Q368.83124 150.45796 368.51874 150.45796Q368.20624 150.45796 368.03436 150.28609Q367.8781 150.09859 367.8781 149.84859ZM374.5656 156.17671Q374.5656 155.73921 374.22186 155.50484Q373.89374 155.25484 373.0656 155.08296Q372.2531 154.91109 371.76874 154.66109Q371.28436 154.41109 371.05 154.08296Q370.83124 153.73921 370.83124 153.27046Q370.83124 152.48921 371.4875 151.95796Q372.14374 151.41109 373.175 151.41109Q374.2531 151.41109 374.90936 151.97359Q375.58124 152.52046 375.58124 153.37984L374.5031 153.37984Q374.5031 152.94234 374.1125 152.62984Q373.7375 152.30171 373.175 152.30171Q372.58124 152.30171 372.2375 152.56734Q371.90936 152.81734 371.90936 153.22359Q371.90936 153.61421 372.22186 153.81734Q372.53436 154.02046 373.34686 154.20796Q374.15936 154.37984 374.65936 154.62984Q375.15936 154.87984 375.39374 155.23921Q375.64374 155.59859 375.64374 156.09859Q375.64374 156.95796 374.95624 157.47359Q374.28436 157.98921 373.20624 157.98921Q372.4406 157.98921 371.84686 157.72359Q371.26874 157.44234 370.9406 156.95796Q370.6125 156.47359 370.6125 155.91109L371.6906 155.91109Q371.72186 156.45796 372.1281 156.78609Q372.53436 157.09859 373.20624 157.09859Q373.8156 157.09859 374.1906 156.84859Q374.5656 156.59859 374.5656 156.17671Z" fill-rule="nonzero"/><path fill="#9e9e9e" d="M349.34686 175.86421L343.7531 175.86421L343.7531 175.08296L346.70624 171.80171Q347.3625 171.05171 347.6125 170.59859Q347.8625 170.12984 347.8625 169.62984Q347.8625 168.95796 347.45624 168.53609Q347.0656 168.09859 346.3781 168.09859Q345.58124 168.09859 345.1281 168.56734Q344.675 169.02046 344.675 169.84859L343.59686 169.84859Q343.59686 168.66109 344.34686 167.94234Q345.1125 167.20796 346.3781 167.20796Q347.58124 167.20796 348.26874 167.83296Q348.95624 168.45796 348.95624 169.50484Q348.95624 170.75484 347.34686 172.50484L345.0656 174.97359L349.34686 174.97359L349.34686 175.86421ZM356.1125 172.22359Q356.1125 174.12984 355.45624 175.06734Q354.8156 175.98921 353.425 175.98921Q352.0656 175.98921 351.40936 175.08296Q350.7531 174.17671 350.72186 172.36421L350.72186 170.92671Q350.72186 169.03609 351.3625 168.12984Q352.01874 167.20796 353.40936 167.20796Q354.78436 167.20796 355.4406 168.09859Q356.09686 168.97359 356.1125 170.81734L356.1125 172.22359ZM355.01874 170.73921Q355.01874 169.36421 354.6281 168.73921Q354.2531 168.09859 353.40936 168.09859Q352.58124 168.09859 352.1906 168.73921Q351.8156 169.36421 351.8156 170.66109L351.8156 172.39546Q351.8156 173.77046 352.20624 174.44234Q352.6125 175.09859 353.425 175.09859Q354.22186 175.09859 354.6125 174.47359Q355.0031 173.84859 355.01874 172.52046L355.01874 170.73921ZM357.89374 175.30171Q357.89374 175.02046 358.05 174.83296Q358.22186 174.64546 358.55 174.64546Q358.89374 174.64546 359.0656 174.83296Q359.2375 175.02046 359.2375 175.30171Q359.2375 175.56734 359.0656 175.75484Q358.89374 175.92671 358.55 175.92671Q358.22186 175.92671 358.05 175.75484Q357.89374 175.56734 357.89374 175.30171ZM366.1125 172.22359Q366.1125 174.12984 365.45624 175.06734Q364.8156 175.98921 363.425 175.98921Q362.0656 175.98921 361.40936 175.08296Q360.7531 174.17671 360.72186 172.36421L360.72186 170.92671Q360.72186 169.03609 361.3625 168.12984Q362.01874 167.20796 363.40936 167.20796Q364.78436 167.20796 365.4406 168.09859Q366.09686 168.97359 366.1125 170.81734L366.1125 172.22359ZM365.01874 170.73921Q365.01874 169.36421 364.6281 168.73921Q364.2531 168.09859 363.40936 168.09859Q362.58124 168.09859 362.1906 168.73921Q361.8156 169.36421 361.8156 170.66109L361.8156 172.39546Q361.8156 173.77046 362.20624 174.44234Q362.6125 175.09859 363.425 175.09859Q364.22186 175.09859 364.6125 174.47359Q365.0031 173.84859 365.01874 172.52046L365.01874 170.73921ZM367.65936 168.97359Q367.65936 168.20796 368.14374 167.70796Q368.64374 167.20796 369.40936 167.20796Q370.1906 167.20796 370.675 167.70796Q371.15936 168.20796 371.15936 169.00484L371.15936 169.42671Q371.15936 170.19234 370.65936 170.69234Q370.175 171.17671 369.425 171.17671Q368.65936 171.17671 368.15936 170.69234Q367.65936 170.19234 367.65936 169.37984L367.65936 168.97359ZM368.47186 169.42671Q368.47186 169.87984 368.72186 170.17671Q368.9875 170.47359 369.425 170.47359Q369.84686 170.47359 370.09686 170.19234Q370.34686 169.89546 370.34686 169.39546L370.34686 168.97359Q370.34686 168.52046 370.09686 168.22359Q369.84686 167.91109 369.40936 167.91109Q368.97186 167.91109 368.72186 168.22359Q368.47186 168.52046 368.47186 168.98921L368.47186 169.42671ZM371.8156 173.77046Q371.8156 173.00484 372.3 172.52046Q372.8 172.02046 373.5656 172.02046Q374.33124 172.02046 374.8156 172.52046Q375.3156 173.00484 375.3156 173.81734L375.3156 174.22359Q375.3156 174.98921 374.83124 175.48921Q374.34686 175.98921 373.58124 175.98921Q372.8156 175.98921 372.3156 175.50484Q371.8156 175.00484 371.8156 174.19234L371.8156 173.77046ZM372.6281 174.22359Q372.6281 174.69234 372.8781 174.98921Q373.14374 175.28609 373.58124 175.28609Q374.0031 175.28609 374.2531 175.00484Q374.5031 174.70796 374.5031 174.20796L374.5031 173.77046Q374.5031 173.30171 374.2375 173.02046Q373.9875 172.72359 373.5656 172.72359Q373.14374 172.72359 372.8781 173.02046Q372.6281 173.30171 372.6281 173.80171L372.6281 174.22359ZM369.675 175.22359L369.05 174.83296L373.22186 168.16109L373.83124 168.55171L369.675 175.22359Z" fill-rule="nonzero"/><path stroke="#757575" stroke-width="1.0" stroke-linecap="butt" d="M376.05 162.36421L291.56668 162.36421L276.73083 162.36421" fill-rule="nonzero"/><path fill="#9e9e9e" d="M278.73083 162.36421C278.73083 161.25964 277.8354 160.36421 276.73083 160.36421C275.62625 160.36421 274.73083 161.25964 274.73083 162.36421C274.73083 163.46878 275.62625 164.36421 276.73083 164.36421C277.8354 164.36421 278.73083 163.46878 278.73083 162.36421" fill-rule="nonzero"/><path fill="#757575" d="M337.4875 197.51875L340.28436 204.47188L343.0656 197.51875L344.53436 197.51875L344.53436 206.05L343.40936 206.05L343.40936 202.72188L343.51874 199.14375L340.70624 206.05L339.84686 206.05L337.05 199.15938L337.15936 202.72188L337.15936 206.05L336.03436 206.05L336.03436 197.51875L337.4875 197.51875ZM348.5031 206.175Q347.20624 206.175 346.39374 205.33125Q345.59686 204.47188 345.59686 203.05L345.59686 202.8625Q345.59686 201.90938 345.95624 201.175Q346.3156 200.425 346.95624 200.01875Q347.6125 199.59688 348.3625 199.59688Q349.59686 199.59688 350.28436 200.40938Q350.97186 201.22188 350.97186 202.7375L350.97186 203.19063L346.675 203.19063Q346.70624 204.12813 347.22186 204.70625Q347.7531 205.28438 348.5656 205.28438Q349.1281 205.28438 349.51874 205.05Q349.925 204.81563 350.2375 204.425L350.89374 204.94063Q350.09686 206.175 348.5031 206.175ZM348.3625 200.4875Q347.70624 200.4875 347.2531 200.97188Q346.8156 201.44063 346.72186 202.3L349.89374 202.3L349.89374 202.22188Q349.84686 201.39375 349.4406 200.94063Q349.05 200.4875 348.3625 200.4875ZM353.05 206.05L351.97186 206.05L351.97186 197.05L353.05 197.05L353.05 206.05ZM356.05 206.05L354.97186 206.05L354.97186 199.70625L356.05 199.70625L356.05 206.05ZM354.8781 198.03438Q354.8781 197.76875 355.03436 197.58125Q355.20624 197.39375 355.51874 197.39375Q355.83124 197.39375 355.9875 197.58125Q356.15936 197.76875 356.15936 198.03438Q356.15936 198.28438 355.9875 198.47188Q355.83124 198.64375 355.51874 198.64375Q355.20624 198.64375 355.03436 198.47188Q354.8781 198.28438 354.8781 198.03438ZM361.5656 204.3625Q361.5656 203.925 361.22186 203.69063Q360.89374 203.44063 360.0656 203.26875Q359.2531 203.09688 358.76874 202.84688Q358.28436 202.59688 358.05 202.26875Q357.83124 201.925 357.83124 201.45625Q357.83124 200.675 358.4875 200.14375Q359.14374 199.59688 360.175 199.59688Q361.2531 199.59688 361.90936 200.15938Q362.58124 200.70625 362.58124 201.56563L361.5031 201.56563Q361.5031 201.12813 361.1125 200.81563Q360.7375 200.4875 360.175 200.4875Q359.58124 200.4875 359.2375 200.75313Q358.90936 201.00313 358.90936 201.40938Q358.90936 201.8 359.22186 202.00313Q359.53436 202.20625 360.34686 202.39375Q361.15936 202.56563 361.65936 202.81563Q362.15936 203.06563 362.39374 203.425Q362.64374 203.78438 362.64374 204.28438Q362.64374 205.14375 361.95624 205.65938Q361.28436 206.175 360.20624 206.175Q359.4406 206.175 358.84686 205.90938Q358.26874 205.62813 357.9406 205.14375Q357.6125 204.65938 357.6125 204.09688L358.6906 204.09688Q358.72186 204.64375 359.1281 204.97188Q359.53436 205.28438 360.20624 205.28438Q360.8156 205.28438 361.1906 205.03438Q361.5656 204.78438 361.5656 204.3625ZM367.5656 204.3625Q367.5656 203.925 367.22186 203.69063Q366.89374 203.44063 366.0656 203.26875Q365.2531 203.09688 364.76874 202.84688Q364.28436 202.59688 364.05 202.26875Q363.83124 201.925 363.83124 201.45625Q363.83124 200.675 364.4875 200.14375Q365.14374 199.59688 366.175 199.59688Q367.2531 199.59688 367.90936 200.15938Q368.58124 200.70625 368.58124 201.56563L367.5031 201.56563Q367.5031 201.12813 367.1125 200.81563Q366.7375 200.4875 366.175 200.4875Q365.58124 200.4875 365.2375 200.75313Q364.90936 201.00313 364.90936 201.40938Q364.90936 201.8 365.22186 202.00313Q365.53436 202.20625 366.34686 202.39375Q367.15936 202.56563 367.65936 202.81563Q368.15936 203.06563 368.39374 203.425Q368.64374 203.78438 368.64374 204.28438Q368.64374 205.14375 367.95624 205.65938Q367.28436 206.175 366.20624 206.175Q365.4406 206.175 364.84686 205.90938Q364.26874 205.62813 363.9406 205.14375Q363.6125 204.65938 363.6125 204.09688L364.6906 204.09688Q364.72186 204.64375 365.1281 204.97188Q365.53436 205.28438 366.20624 205.28438Q366.8156 205.28438 367.1906 205.03438Q367.5656 204.78438 367.5656 204.3625ZM373.78436 206.05Q373.6906 205.8625 373.6281 205.37813Q372.8781 206.175 371.83124 206.175Q370.89374 206.175 370.28436 205.64375Q369.6906 205.1125 369.6906 204.28438Q369.6906 203.3 370.4406 202.75313Q371.1906 202.20625 372.5656 202.20625L373.6125 202.20625L373.6125 201.70625Q373.6125 201.14375 373.26874 200.81563Q372.9406 200.47188 372.26874 200.47188Q371.6906 200.47188 371.3 200.76875Q370.90936 201.05 370.90936 201.47188L369.8156 201.47188Q369.8156 200.9875 370.14374 200.55Q370.4875 200.1125 371.0656 199.8625Q371.64374 199.59688 372.33124 199.59688Q373.4406 199.59688 374.05 200.14375Q374.675 200.69063 374.70624 201.64375L374.70624 204.56563Q374.70624 205.44063 374.925 205.95625L374.925 206.05L373.78436 206.05ZM371.9875 205.22188Q372.5031 205.22188 372.95624 204.95625Q373.40936 204.69063 373.6125 204.26875L373.6125 202.97188L372.76874 202.97188Q370.76874 202.97188 370.76874 204.14375Q370.76874 204.64375 371.1125 204.94063Q371.45624 205.22188 371.9875 205.22188Z" fill-rule="nonzero"/><path fill="#9e9e9e" d="M349.34686 224.05L343.7531 224.05L343.7531 223.26875L346.70624 219.9875Q347.3625 219.2375 347.6125 218.78438Q347.8625 218.31563 347.8625 217.81563Q347.8625 217.14375 347.45624 216.72188Q347.0656 216.28438 346.3781 216.28438Q345.58124 216.28438 345.1281 216.75313Q344.675 217.20625 344.675 218.03438L343.59686 218.03438Q343.59686 216.84688 344.34686 216.12813Q345.1125 215.39375 346.3781 215.39375Q347.58124 215.39375 348.26874 216.01875Q348.95624 216.64375 348.95624 217.69063Q348.95624 218.94063 347.34686 220.69063L345.0656 223.15938L349.34686 223.15938L349.34686 224.05ZM356.1125 220.40938Q356.1125 222.31563 355.45624 223.25313Q354.8156 224.175 353.425 224.175Q352.0656 224.175 351.40936 223.26875Q350.7531 222.3625 350.72186 220.55L350.72186 219.1125Q350.72186 217.22188 351.3625 216.31563Q352.01874 215.39375 353.40936 215.39375Q354.78436 215.39375 355.4406 216.28438Q356.09686 217.15938 356.1125 219.00313L356.1125 220.40938ZM355.01874 218.925Q355.01874 217.55 354.6281 216.925Q354.2531 216.28438 353.40936 216.28438Q352.58124 216.28438 352.1906 216.925Q351.8156 217.55 351.8156 218.84688L351.8156 220.58125Q351.8156 221.95625 352.20624 222.62813Q352.6125 223.28438 353.425 223.28438Q354.22186 223.28438 354.6125 222.65938Q355.0031 222.03438 355.01874 220.70625L355.01874 218.925ZM357.89374 223.4875Q357.89374 223.20625 358.05 223.01875Q358.22186 222.83125 358.55 222.83125Q358.89374 222.83125 359.0656 223.01875Q359.2375 223.20625 359.2375 223.4875Q359.2375 223.75313 359.0656 223.94063Q358.89374 224.1125 358.55 224.1125Q358.22186 224.1125 358.05 223.94063Q357.89374 223.75313 357.89374 223.4875ZM366.1125 220.40938Q366.1125 222.31563 365.45624 223.25313Q364.8156 224.175 363.425 224.175Q362.0656 224.175 361.40936 223.26875Q360.7531 222.3625 360.72186 220.55L360.72186 219.1125Q360.72186 217.22188 361.3625 216.31563Q362.01874 215.39375 363.40936 215.39375Q364.78436 215.39375 365.4406 216.28438Q366.09686 217.15938 366.1125 219.00313L366.1125 220.40938ZM365.01874 218.925Q365.01874 217.55 364.6281 216.925Q364.2531 216.28438 363.40936 216.28438Q362.58124 216.28438 362.1906 216.925Q361.8156 217.55 361.8156 218.84688L361.8156 220.58125Q361.8156 221.95625 362.20624 222.62813Q362.6125 223.28438 363.425 223.28438Q364.22186 223.28438 364.6125 222.65938Q365.0031 222.03438 365.01874 220.70625L365.01874 218.925ZM367.65936 217.15938Q367.65936 216.39375 368.14374 215.89375Q368.64374 215.39375 369.40936 215.39375Q370.1906 215.39375 370.675 215.89375Q371.15936 216.39375 371.15936 217.19063L371.15936 217.6125Q371.15936 218.37813 370.65936 218.87813Q370.175 219.3625 369.425 219.3625Q368.65936 219.3625 368.15936 218.87813Q367.65936 218.37813 367.65936 217.56563L367.65936 217.15938ZM368.47186 217.6125Q368.47186 218.06563 368.72186 218.3625Q368.9875 218.65938 369.425 218.65938Q369.84686 218.65938 370.09686 218.37813Q370.34686 218.08125 370.34686 217.58125L370.34686 217.15938Q370.34686 216.70625 370.09686 216.40938Q369.84686 216.09688 369.40936 216.09688Q368.97186 216.09688 368.72186 216.40938Q368.47186 216.70625 368.47186 217.175L368.47186 217.6125ZM371.8156 221.95625Q371.8156 221.19063 372.3 220.70625Q372.8 220.20625 373.5656 220.20625Q374.33124 220.20625 374.8156 220.70625Q375.3156 221.19063 375.3156 222.00313L375.3156 222.40938Q375.3156 223.175 374.83124 223.675Q374.34686 224.175 373.58124 224.175Q372.8156 224.175 372.3156 223.69063Q371.8156 223.19063 371.8156 222.37813L371.8156 221.95625ZM372.6281 222.40938Q372.6281 222.87813 372.8781 223.175Q373.14374 223.47188 373.58124 223.47188Q374.0031 223.47188 374.2531 223.19063Q374.5031 222.89375 374.5031 222.39375L374.5031 221.95625Q374.5031 221.4875 374.2375 221.20625Q373.9875 220.90938 373.5656 220.90938Q373.14374 220.90938 372.8781 221.20625Q372.6281 221.4875 372.6281 221.9875L372.6281 222.40938ZM369.675 223.40938L369.05 223.01875L373.22186 216.34688L373.83124 216.7375L369.675 223.40938Z" fill-rule="nonzero"/><path stroke="#757575" stroke-width="1.0" stroke-linecap="butt" d="M376.05 210.55L291.56668 210.55L194.0 222.47166" fill-rule="nonzero"/><path fill="#9e9e9e" d="M196.0 222.47166C196.0 221.3671 195.10457 220.47166 194.0 220.47166C192.89543 220.47166 192.0 221.3671 192.0 222.47166C192.0 223.57623 192.89543 224.47166 194.0 224.47166C195.10457 224.47166 196.0 223.57623 196.0 222.47166" fill-rule="nonzero"/><path fill="#757575" d="M22.66875 28.465626L24.7 20.3875L26.5125 20.3875L23.434376 30.95L21.965626 30.95L19.403126 22.934376L16.903126 30.95L15.434375 30.95L12.371875 20.3875L14.16875 20.3875L16.246876 28.29375L18.715626 20.3875L20.16875 20.3875L22.66875 28.465626ZM32.7 31.153126Q30.559376 31.153126 29.2 29.746876Q27.85625 28.325 27.85625 25.965626L27.85625 25.621876Q27.85625 24.059376 28.45 22.825Q29.059376 21.590626 30.1375 20.8875Q31.215626 20.184376 32.48125 20.184376Q34.54375 20.184376 35.684376 21.54375Q36.825 22.903126 36.825 25.434376L36.825 26.184376L29.66875 26.184376Q29.7 27.746876 30.575 28.715626Q31.45 29.66875 32.79375 29.66875Q33.7625 29.66875 34.41875 29.278126Q35.090626 28.8875 35.590626 28.246876L36.684376 29.10625Q35.35625 31.153126 32.7 31.153126ZM32.48125 21.66875Q31.3875 21.66875 30.6375 22.465626Q29.903126 23.2625 29.73125 24.7L35.0125 24.7L35.0125 24.559376Q34.934376 23.184376 34.2625 22.434376Q33.60625 21.66875 32.48125 21.66875ZM43.7 31.153126Q41.559376 31.153126 40.2 29.746876Q38.85625 28.325 38.85625 25.965626L38.85625 25.621876Q38.85625 24.059376 39.45 22.825Q40.059376 21.590626 41.1375 20.8875Q42.215626 20.184376 43.48125 20.184376Q45.54375 20.184376 46.684376 21.54375Q47.825 22.903126 47.825 25.434376L47.825 26.184376L40.66875 26.184376Q40.7 27.746876 41.575 28.715626Q42.45 29.66875 43.79375 29.66875Q44.7625 29.66875 45.41875 29.278126Q46.090626 28.8875 46.590626 28.246876L47.684376 29.10625Q46.35625 31.153126 43.7 31.153126ZM43.48125 21.66875Q42.3875 21.66875 41.6375 22.465626Q40.903126 23.2625 40.73125 24.7L46.0125 24.7L46.0125 24.559376Q45.934376 23.184376 45.2625 22.434376Q44.60625 21.66875 43.48125 21.66875ZM53.2625 26.059376L52.1375 27.23125L52.1375 30.95L50.325 30.95L50.325 15.950001L52.1375 15.950001L52.1375 25.028126L53.10625 23.85625L56.3875 20.3875L58.590626 20.3875L54.48125 24.79375L59.075 30.95L56.95 30.95L53.2625 26.059376ZM62.278126 30.95L60.48125 30.95L60.48125 15.950001L62.278126 15.950001L62.278126 30.95ZM68.77812 28.309376L71.23125 20.3875L73.16875 20.3875L68.91875 32.575Q67.93437 35.215626 65.79375 35.215626L65.45 35.184376L64.77812 35.059376L64.77812 33.590626L65.2625 33.6375Q66.18437 33.6375 66.68437 33.2625Q67.2 32.8875 67.52812 31.903126L67.93437 30.825L64.16875 20.3875L66.1375 20.3875L68.77812 28.309376ZM88.66875 28.465626L90.7 20.3875L92.5125 20.3875L89.43437 30.95L87.96562 30.95L85.40312 22.934376L82.90312 30.95L81.43437 30.95L78.37187 20.3875L80.16875 20.3875L82.24687 28.29375L84.71562 20.3875L86.16875 20.3875L88.66875 28.465626ZM96.27812 30.95L94.48125 30.95L94.48125 20.3875L96.27812 20.3875L96.27812 30.95ZM94.325 17.575Q94.325 17.1375 94.59062 16.840626Q94.87187 16.528126 95.3875 16.528126Q95.91875 16.528126 96.18437 16.840626Q96.46562 17.1375 96.46562 17.575Q96.46562 18.0125 96.18437 18.309376Q95.91875 18.60625 95.3875 18.60625Q94.87187 18.60625 94.59062 18.309376Q94.325 18.0125 94.325 17.575ZM101.02812 20.3875L101.09062 21.715626Q102.29375 20.184376 104.24687 20.184376Q107.60625 20.184376 107.62187 23.965626L107.62187 30.95L105.825 30.95L105.825 23.95Q105.80937 22.809376 105.29375 22.2625Q104.79375 21.715626 103.7 21.715626Q102.825 21.715626 102.15312 22.184376Q101.49687 22.653126 101.12187 23.41875L101.12187 30.95L99.325 30.95L99.325 20.3875L101.02812 20.3875ZM112.02812 20.3875L112.09062 21.715626Q113.29375 20.184376 115.24687 20.184376Q118.60625 20.184376 118.62187 23.965626L118.62187 30.95L116.825 30.95L116.825 23.95Q116.80937 22.809376 116.29375 22.2625Q115.79375 21.715626 114.7 21.715626Q113.825 21.715626 113.15312 22.184376Q112.49687 22.653126 112.12187 23.41875L112.12187 30.95L110.325 30.95L110.325 20.3875L112.02812 20.3875ZM123.27812 30.95L121.48125 30.95L121.48125 20.3875L123.27812 20.3875L123.27812 30.95ZM121.325 17.575Q121.325 17.1375 121.59062 16.840626Q121.87187 16.528126 122.3875 16.528126Q122.91875 16.528126 123.18437 16.840626Q123.46562 17.1375 123.46562 17.575Q123.46562 18.0125 123.18437 18.309376Q122.91875 18.60625 122.3875 18.60625Q121.87187 18.60625 121.59062 18.309376Q121.325 18.0125 121.325 17.575ZM128.02812 20.3875L128.09062 21.715626Q129.29375 20.184376 131.24687 20.184376Q134.60625 20.184376 134.62187 23.965626L134.62187 30.95L132.825 30.95L132.825 23.95Q132.80937 22.809376 132.29375 22.2625Q131.79375 21.715626 130.7 21.715626Q129.825 21.715626 129.15312 22.184376Q128.49687 22.653126 128.12187 23.41875L128.12187 30.95L126.325 30.95L126.325 20.3875L128.02812 20.3875ZM136.8875 25.575Q136.8875 23.10625 138.02812 21.653126Q139.16875 20.184376 141.05937 20.184376Q142.99687 20.184376 144.075 21.559376L144.16875 20.3875L145.80937 20.3875L145.80937 30.7Q145.80937 32.746876 144.59062 33.91875Q143.3875 35.10625 141.325 35.10625Q140.18437 35.10625 139.09062 34.621876Q137.99687 34.1375 137.41875 33.278126L138.35625 32.2Q139.52812 33.6375 141.2 33.6375Q142.52812 33.6375 143.2625 32.8875Q143.99687 32.153126 143.99687 30.809376L143.99687 29.8875Q142.91875 31.153126 141.04375 31.153126Q139.18437 31.153126 138.02812 29.653126Q136.8875 28.153126 136.8875 25.575ZM138.7 25.778126Q138.7 27.575 139.43437 28.590626Q140.16875 29.60625 141.48125 29.60625Q143.2 29.60625 143.99687 28.059376L143.99687 23.23125Q143.16875 21.715626 141.5125 21.715626Q140.18437 21.715626 139.43437 22.746876Q138.7 23.778126 138.7 25.778126ZM158.41875 21.996876Q158.0125 21.934376 157.54375 21.934376Q155.7625 21.934376 155.12187 23.45L155.12187 30.95L153.325 30.95L153.325 20.3875L155.075 20.3875L155.10625 21.60625Q155.99687 20.184376 157.62187 20.184376Q158.15312 20.184376 158.41875 20.325L158.41875 21.996876ZM166.84062 30.95Q166.68437 30.6375 166.59062 29.840626Q165.325 31.153126 163.575 31.153126Q162.0125 31.153126 161.0125 30.2625Q160.0125 29.371876 160.0125 28.0125Q160.0125 26.371876 161.2625 25.465626Q162.52812 24.54375 164.79375 24.54375L166.55937 24.54375L166.55937 23.715626Q166.55937 22.7625 165.98125 22.2Q165.41875 21.6375 164.325 21.6375Q163.35625 21.6375 162.7 22.1375Q162.04375 22.621876 162.04375 23.309376L160.23125 23.309376Q160.23125 22.528126 160.79375 21.79375Q161.35625 21.04375 162.30937 20.621876Q163.27812 20.184376 164.43437 20.184376Q166.2625 20.184376 167.29375 21.10625Q168.325 22.0125 168.37187 23.621876L168.37187 28.48125Q168.37187 29.934376 168.73125 30.79375L168.73125 30.95L166.84062 30.95ZM163.84062 29.575Q164.7 29.575 165.45 29.1375Q166.21562 28.7 166.55937 27.996876L166.55937 25.825L165.1375 25.825Q161.825 25.825 161.825 27.7625Q161.825 28.621876 162.3875 29.10625Q162.95 29.575 163.84062 29.575ZM173.7625 17.825L173.7625 20.3875L175.74687 20.3875L175.74687 21.778126L173.7625 21.778126L173.7625 28.325Q173.7625 28.965626 174.02812 29.29375Q174.29375 29.60625 174.93437 29.60625Q175.24687 29.60625 175.79375 29.48125L175.79375 30.95Q175.075 31.153126 174.40312 31.153126Q173.2 31.153126 172.575 30.41875Q171.96562 29.684376 171.96562 28.325L171.96562 21.778126L170.04375 21.778126L170.04375 20.3875L171.96562 20.3875L171.96562 17.825L173.7625 17.825ZM180.27812 30.95L178.48125 30.95L178.48125 20.3875L180.27812 20.3875L180.27812 30.95ZM178.325 17.575Q178.325 17.1375 178.59062 16.840626Q178.87187 16.528126 179.3875 16.528126Q179.91875 16.528126 180.18437 16.840626Q180.46562 17.1375 180.46562 17.575Q180.46562 18.0125 180.18437 18.309376Q179.91875 18.60625 179.3875 18.60625Q178.87187 18.60625 178.59062 18.309376Q178.325 18.0125 178.325 17.575ZM182.84062 25.575Q182.84062 24.0125 183.45 22.778126Q184.05937 21.528126 185.1375 20.85625Q186.23125 20.184376 187.6375 20.184376Q189.79375 20.184376 191.12187 21.684376Q192.46562 23.16875 192.46562 25.653126L192.46562 25.778126Q192.46562 27.325 191.87187 28.559376Q191.27812 29.778126 190.16875 30.465626Q189.075 31.153126 187.65312 31.153126Q185.5125 31.153126 184.16875 29.653126Q182.84062 28.153126 182.84062 25.7L182.84062 25.575ZM184.65312 25.778126Q184.65312 27.54375 185.46562 28.60625Q186.29375 29.66875 187.65312 29.66875Q189.02812 29.66875 189.84062 28.590626Q190.65312 27.5125 190.65312 25.575Q190.65312 23.825 189.825 22.746876Q188.99687 21.66875 187.6375 21.66875Q186.29375 21.66875 185.46562 22.73125Q184.65312 23.79375 184.65312 25.778126Z" fill-rule="nonzero"/></svg>