<svg version="1.1" viewBox="0.0 0.0 388.0 239.0" fill="none" stroke="none" stroke-linecap="square" stroke-miterlimit="10" width="388" height="239" xmlns:xlink="http://www.w3.org/1999/xlink" xmlns="http://www.w3.org/2000/svg"><path fill="#ffffff" d="M0 0L388.0 0L388.0 239.0L0 239.0L0 0Z" fill-rule="nonzero"/><path fill="#4285f4" d="M194.0 43.916668C233.66908 43.916668 268.82666 69.46014 281.08508 107.187675C293.3435 144.91522 279.9145 186.24542 247.82153 209.56232L194.0 135.48334Z" fill-rule="nonzero"/><path fill="#cc4125" d="M106.914925 107.187675C119.17335 69.46014 154.33092 43.916668 194.0 43.916668L194.0 135.48334Z" fill-rule="nonzero"/><path fill="#f1c232" d="M247.82153 209.56232C215.72858 232.87923 172.27142 232.87923 140.17847 209.56232C108.0855 186.24542 94.6565 144.91522 106.914925 107.187675L194.0 135.48334Z" fill-rule="nonzero"/><path fill="#757575" d="M18.840626 52.998917L16.090626 52.998917L16.090626 60.60829L14.98125 60.60829L14.98125 52.998917L12.23125 52.998917L12.23125 52.07704L18.840626 52.07704L18.840626 52.998917ZM20.85625 55.030167Q21.575 54.155167 22.73125 54.155167Q24.746876 54.155167 24.7625 56.42079L24.7625 60.60829L23.66875 60.60829L23.66875 56.405167Q23.66875 55.73329 23.35625 55.405167Q23.059376 55.07704 22.403126 55.07704Q21.871876 55.07704 21.465626 55.35829Q21.075 55.63954 20.85625 56.092667L20.85625 60.60829L19.778126 60.60829L19.778126 51.60829L20.85625 51.60829L20.85625 55.030167ZM30.684376 60.60829Q30.590626 60.42079 30.528126 59.936417Q29.778126 60.73329 28.73125 60.73329Q27.79375 60.73329 27.184376 60.20204Q26.590626 59.67079 26.590626 58.842667Q26.590626 57.85829 27.340626 57.311417Q28.090626 56.76454 29.465626 56.76454L30.5125 56.76454L30.5125 56.26454Q30.5125 55.70204 30.16875 55.373917Q29.840626 55.030167 29.16875 55.030167Q28.590626 55.030167 28.2 55.32704Q27.809376 55.60829 27.809376 56.030167L26.715626 56.030167Q26.715626 55.54579 27.04375 55.10829Q27.3875 54.67079 27.965626 54.42079Q28.54375 54.155167 29.23125 54.155167Q30.340626 54.155167 30.95 54.70204Q31.575 55.248917 31.60625 56.20204L31.60625 59.123917Q31.60625 59.998917 31.825 60.51454L31.825 60.60829L30.684376 60.60829ZM28.8875 59.780167Q29.403126 59.780167 29.85625 59.51454Q30.309376 59.248917 30.5125 58.82704L30.5125 57.530167L29.66875 57.530167Q27.66875 57.530167 27.66875 58.70204Q27.66875 59.20204 28.0125 59.498917Q28.35625 59.780167 28.8875 59.780167ZM34.95 60.60829L33.871876 60.60829L33.871876 54.26454L34.95 54.26454L34.95 60.60829ZM33.778126 52.592667Q33.778126 52.32704 33.934376 52.13954Q34.10625 51.95204 34.41875 51.95204Q34.73125 51.95204 34.8875 52.13954Q35.059376 52.32704 35.059376 52.592667Q35.059376 52.842667 34.8875 53.030167Q34.73125 53.20204 34.41875 53.20204Q34.10625 53.20204 33.934376 53.030167Q33.778126 52.842667 33.778126 52.592667Z" fill-rule="nonzero"/><path fill="#9e9e9e" d="M18.246876 78.60829L12.653125 78.60829L12.653125 77.82704L15.60625 74.54579Q16.2625 73.79579 16.5125 73.34267Q16.7625 72.87392 16.7625 72.37392Q16.7625 71.70204 16.35625 71.28017Q15.965625 70.84267 15.278125 70.84267Q14.48125 70.84267 14.028125 71.31142Q13.575 71.76454 13.575 72.59267L12.496875 72.59267Q12.496875 71.40517 13.246875 70.68642Q14.0125 69.95204 15.278125 69.95204Q16.48125 69.95204 17.16875 70.57704Q17.85625 71.20204 17.85625 72.24892Q17.85625 73.49892 16.246876 75.24892L13.965625 77.71767L18.246876 77.71767L18.246876 78.60829ZM25.0125 74.96767Q25.0125 76.87392 24.35625 77.81142Q23.715626 78.73329 22.325 78.73329Q20.965626 78.73329 20.309376 77.82704Q19.653126 76.92079 19.621876 75.10829L19.621876 73.67079Q19.621876 71.78017 20.2625 70.87392Q20.91875 69.95204 22.309376 69.95204Q23.684376 69.95204 24.340626 70.84267Q24.996876 71.71767 25.0125 73.56142L25.0125 74.96767ZM23.91875 73.48329Q23.91875 72.10829 23.528126 71.48329Q23.153126 70.84267 22.309376 70.84267Q21.48125 70.84267 21.090626 71.48329Q20.715626 72.10829 20.715626 73.40517L20.715626 75.13954Q20.715626 76.51454 21.10625 77.18642Q21.5125 77.84267 22.325 77.84267Q23.121876 77.84267 23.5125 77.21767Q23.903126 76.59267 23.91875 75.26454L23.91875 73.48329ZM26.79375 78.04579Q26.79375 77.76454 26.95 77.57704Q27.121876 77.38954 27.45 77.38954Q27.79375 77.38954 27.965626 77.57704Q28.1375 77.76454 28.1375 78.04579Q28.1375 78.31142 27.965626 78.49892Q27.79375 78.67079 27.45 78.67079Q27.121876 78.67079 26.95 78.49892Q26.79375 78.31142 26.79375 78.04579ZM35.0125 74.96767Q35.0125 76.87392 34.35625 77.81142Q33.715626 78.73329 32.325 78.73329Q30.965626 78.73329 30.309376 77.82704Q29.653126 76.92079 29.621876 75.10829L29.621876 73.67079Q29.621876 71.78017 30.2625 70.87392Q30.91875 69.95204 32.309376 69.95204Q33.684376 69.95204 34.340626 70.84267Q34.996876 71.71767 35.0125 73.56142L35.0125 74.96767ZM33.91875 73.48329Q33.91875 72.10829 33.528126 71.48329Q33.153126 70.84267 32.309376 70.84267Q31.48125 70.84267 31.090626 71.48329Q30.715626 72.10829 30.715626 73.40517L30.715626 75.13954Q30.715626 76.51454 31.10625 77.18642Q31.5125 77.84267 32.325 77.84267Q33.121876 77.84267 33.5125 77.21767Q33.903126 76.59267 33.91875 75.26454L33.91875 73.48329ZM36.559376 71.71767Q36.559376 70.95204 37.04375 70.45204Q37.54375 69.95204 38.309376 69.95204Q39.090626 69.95204 39.575 70.45204Q40.059376 70.95204 40.059376 71.74892L40.059376 72.17079Q40.059376 72.93642 39.559376 73.43642Q39.075 73.92079 38.325 73.92079Q37.559376 73.92079 37.059376 73.43642Q36.559376 72.93642 36.559376 72.12392L36.559376 71.71767ZM37.371876 72.17079Q37.371876 72.62392 37.621876 72.92079Q37.8875 73.21767 38.325 73.21767Q38.746876 73.21767 38.996876 72.93642Q39.246876 72.63954 39.246876 72.13954L39.246876 71.71767Q39.246876 71.26454 38.996876 70.96767Q38.746876 70.65517 38.309376 70.65517Q37.871876 70.65517 37.621876 70.96767Q37.371876 71.26454 37.371876 71.73329L37.371876 72.17079ZM40.715626 76.51454Q40.715626 75.74892 41.2 75.26454Q41.7 74.76454 42.465626 74.76454Q43.23125 74.76454 43.715626 75.26454Q44.215626 75.74892 44.215626 76.56142L44.215626 76.96767Q44.215626 77.73329 43.73125 78.23329Q43.246876 78.73329 42.48125 78.73329Q41.715626 78.73329 41.215626 78.24892Q40.715626 77.74892 40.715626 76.93642L40.715626 76.51454ZM41.528126 76.96767Q41.528126 77.43642 41.778126 77.73329Q42.04375 78.03017 42.48125 78.03017Q42.903126 78.03017 43.153126 77.74892Q43.403126 77.45204 43.403126 76.95204L43.403126 76.51454Q43.403126 76.04579 43.1375 75.76454Q42.8875 75.46767 42.465626 75.46767Q42.04375 75.46767 41.778126 75.76454Q41.528126 76.04579 41.528126 76.54579L41.528126 76.96767ZM38.575 77.96767L37.95 77.57704L42.121876 70.90517L42.73125 71.29579L38.575 77.96767Z" fill-rule="nonzero"/><path stroke="#757575" stroke-width="1.0" stroke-linecap="butt" d="M11.95 65.10829L96.433334 65.10829L142.86954 65.10829" fill-rule="nonzero"/><path fill="#9e9e9e" d="M144.86954 65.10829C144.86954 64.00372 143.9741 63.10829 142.86954 63.10829C141.76497 63.10829 140.86954 64.00372 140.86954 65.10829C140.86954 66.21286 141.76497 67.10829 142.86954 67.10829C143.9741 67.10829 144.86954 66.21286 144.86954 65.10829" fill-rule="nonzero"/><path fill="#757575" d="M19.246876 200.23337Q18.809376 200.85837 18.028126 201.17087Q17.246876 201.48337 16.215626 201.48337Q15.184375 201.48337 14.371875 200.999Q13.559375 200.499 13.121875 199.59274Q12.684375 198.6865 12.66875 197.499L12.66875 196.76462Q12.66875 194.82712 13.559375 193.76462Q14.465625 192.70212 16.090626 192.70212Q17.434376 192.70212 18.246876 193.38962Q19.059376 194.07712 19.246876 195.32712L18.121876 195.32712Q17.79375 193.63962 16.10625 193.63962Q14.965625 193.63962 14.3875 194.4365Q13.809375 195.21774 13.79375 196.73337L13.79375 197.42087Q13.79375 198.85837 14.45 199.71774Q15.10625 200.5615 16.23125 200.5615Q16.85625 200.5615 17.325 200.42087Q17.809376 200.28024 18.121876 199.9365L18.121876 198.03024L16.153126 198.03024L16.153126 197.10837L19.246876 197.10837L19.246876 200.23337ZM24.684376 200.73337Q24.059376 201.48337 22.825 201.48337Q21.809376 201.48337 21.278126 200.88962Q20.746876 200.29587 20.746876 199.13962L20.746876 195.01462L21.825 195.01462L21.825 199.10837Q21.825 200.5615 22.996876 200.5615Q24.246876 200.5615 24.653126 199.624L24.653126 195.01462L25.746876 195.01462L25.746876 201.35837L24.715626 201.35837L24.684376 200.73337ZM28.95 201.35837L27.871876 201.35837L27.871876 195.01462L28.95 195.01462L28.95 201.35837ZM27.778126 193.34274Q27.778126 193.07712 27.934376 192.88962Q28.10625 192.70212 28.41875 192.70212Q28.73125 192.70212 28.8875 192.88962Q29.059376 193.07712 29.059376 193.34274Q29.059376 193.59274 28.8875 193.78024Q28.73125 193.95212 28.41875 193.95212Q28.10625 193.95212 27.934376 193.78024Q27.778126 193.59274 27.778126 193.34274ZM30.5125 198.13962Q30.5125 196.67087 31.2 195.79587Q31.8875 194.90524 33.0125 194.90524Q34.121876 194.90524 34.778126 195.65524L34.778126 192.35837L35.85625 192.35837L35.85625 201.35837L34.85625 201.35837L34.809376 200.67087Q34.153126 201.48337 32.996876 201.48337Q31.903126 201.48337 31.2 200.57712Q30.5125 199.67087 30.5125 198.21774L30.5125 198.13962ZM31.590626 198.26462Q31.590626 199.34274 32.028126 199.95212Q32.48125 200.5615 33.2625 200.5615Q34.29375 200.5615 34.778126 199.624L34.778126 196.71774Q34.29375 195.82712 33.278126 195.82712Q32.48125 195.82712 32.028126 196.4365Q31.590626 197.04587 31.590626 198.26462ZM37.48125 198.124Q37.48125 197.20212 37.840626 196.45212Q38.215626 195.70212 38.871876 195.3115Q39.528126 194.90524 40.35625 194.90524Q41.653126 194.90524 42.45 195.79587Q43.2625 196.6865 43.2625 198.1865L43.2625 198.26462Q43.2625 199.1865 42.903126 199.92087Q42.54375 200.65524 41.8875 201.07712Q41.23125 201.48337 40.371876 201.48337Q39.090626 201.48337 38.278126 200.59274Q37.48125 199.6865 37.48125 198.20212L37.48125 198.124ZM38.575 198.26462Q38.575 199.3115 39.059376 199.95212Q39.559376 200.59274 40.371876 200.59274Q41.2 200.59274 41.684376 199.95212Q42.16875 199.29587 42.16875 198.124Q42.16875 197.09274 41.66875 196.45212Q41.184376 195.79587 40.35625 195.79587Q39.559376 195.79587 39.059376 196.4365Q38.575 197.0615 38.575 198.26462Z" fill-rule="nonzero"/><path fill="#9e9e9e" d="M17.23125 216.499L18.41875 216.499L18.41875 217.374L17.23125 217.374L17.23125 219.35837L16.153126 219.35837L16.153126 217.374L12.2625 217.374L12.2625 216.73337L16.075 210.82712L17.23125 210.82712L17.23125 216.499ZM13.496875 216.499L16.153126 216.499L16.153126 212.3115L16.0125 212.54587L13.496875 216.499ZM25.0125 215.71774Q25.0125 217.624 24.35625 218.5615Q23.715626 219.48337 22.325 219.48337Q20.965626 219.48337 20.309376 218.57712Q19.653126 217.67087 19.621876 215.85837L19.621876 214.42087Q19.621876 212.53024 20.2625 211.624Q20.91875 210.70212 22.309376 210.70212Q23.684376 210.70212 24.340626 211.59274Q24.996876 212.46774 25.0125 214.3115L25.0125 215.71774ZM23.91875 214.23337Q23.91875 212.85837 23.528126 212.23337Q23.153126 211.59274 22.309376 211.59274Q21.48125 211.59274 21.090626 212.23337Q20.715626 212.85837 20.715626 214.15524L20.715626 215.88962Q20.715626 217.26462 21.10625 217.9365Q21.5125 218.59274 22.325 218.59274Q23.121876 218.59274 23.5125 217.96774Q23.903126 217.34274 23.91875 216.01462L23.91875 214.23337ZM26.79375 218.79587Q26.79375 218.51462 26.95 218.32712Q27.121876 218.13962 27.45 218.13962Q27.79375 218.13962 27.965626 218.32712Q28.1375 218.51462 28.1375 218.79587Q28.1375 219.0615 27.965626 219.249Q27.79375 219.42087 27.45 219.42087Q27.121876 219.42087 26.95 219.249Q26.79375 219.0615 26.79375 218.79587ZM35.0125 215.71774Q35.0125 217.624 34.35625 218.5615Q33.715626 219.48337 32.325 219.48337Q30.965626 219.48337 30.309376 218.57712Q29.653126 217.67087 29.621876 215.85837L29.621876 214.42087Q29.621876 212.53024 30.2625 211.624Q30.91875 210.70212 32.309376 210.70212Q33.684376 210.70212 34.340626 211.59274Q34.996876 212.46774 35.0125 214.3115L35.0125 215.71774ZM33.91875 214.23337Q33.91875 212.85837 33.528126 212.23337Q33.153126 211.59274 32.309376 211.59274Q31.48125 211.59274 31.090626 212.23337Q30.715626 212.85837 30.715626 214.15524L30.715626 215.88962Q30.715626 217.26462 31.10625 217.9365Q31.5125 218.59274 32.325 218.59274Q33.121876 218.59274 33.5125 217.96774Q33.903126 217.34274 33.91875 216.01462L33.91875 214.23337ZM36.559376 212.46774Q36.559376 211.70212 37.04375 211.20212Q37.54375 210.70212 38.309376 210.70212Q39.090626 210.70212 39.575 211.20212Q40.059376 211.70212 40.059376 212.499L40.059376 212.92087Q40.059376 213.6865 39.559376 214.1865Q39.075 214.67087 38.325 214.67087Q37.559376 214.67087 37.059376 214.1865Q36.559376 213.6865 36.559376 212.874L36.559376 212.46774ZM37.371876 212.92087Q37.371876 213.374 37.621876 213.67087Q37.8875 213.96774 38.325 213.96774Q38.746876 213.96774 38.996876 213.6865Q39.246876 213.38962 39.246876 212.88962L39.246876 212.46774Q39.246876 212.01462 38.996876 211.71774Q38.746876 211.40524 38.309376 211.40524Q37.871876 211.40524 37.621876 211.71774Q37.371876 212.01462 37.371876 212.48337L37.371876 212.92087ZM40.715626 217.26462Q40.715626 216.499 41.2 216.01462Q41.7 215.51462 42.465626 215.51462Q43.23125 215.51462 43.715626 216.01462Q44.215626 216.499 44.215626 217.3115L44.215626 217.71774Q44.215626 218.48337 43.73125 218.98337Q43.246876 219.48337 42.48125 219.48337Q41.715626 219.48337 41.215626 218.999Q40.715626 218.499 40.715626 217.6865L40.715626 217.26462ZM41.528126 217.71774Q41.528126 218.1865 41.778126 218.48337Q42.04375 218.78024 42.48125 218.78024Q42.903126 218.78024 43.153126 218.499Q43.403126 218.20212 43.403126 217.70212L43.403126 217.26462Q43.403126 216.79587 43.1375 216.51462Q42.8875 216.21774 42.465626 216.21774Q42.04375 216.21774 41.778126 216.51462Q41.528126 216.79587 41.528126 217.29587L41.528126 217.71774ZM38.575 218.71774L37.95 218.32712L42.121876 211.65524L42.73125 212.04587L38.575 218.71774Z" fill-rule="nonzero"/><path stroke="#757575" stroke-width="1.0" stroke-linecap="butt" d="M11.95 205.85837L96.433334 205.85837L142.86954 205.85837" fill-rule="nonzero"/><path fill="#9e9e9e" d="M144.86954 205.85837C144.86954 204.7538 143.9741 203.85837 142.86954 203.85837C141.76497 203.85837 140.86954 204.7538 140.86954 205.85837C140.86954 206.96294 141.76497 207.85837 142.86954 207.85837C143.9741 207.85837 144.86954 206.96294 144.86954 205.85837" fill-rule="nonzero"/><path fill="#757575" d="M338.4875 95.57121L341.28436 102.52434L344.0656 95.57121L345.53436 95.57121L345.53436 104.10246L344.40936 104.10246L344.40936 100.77434L344.51874 97.19621L341.70624 104.10246L340.84686 104.10246L338.05 97.21184L338.15936 100.77434L338.15936 104.10246L337.03436 104.10246L337.03436 95.57121L338.4875 95.57121ZM350.78436 104.10246Q350.6906 103.91496 350.6281 103.43059Q349.8781 104.22746 348.83124 104.22746Q347.89374 104.22746 347.28436 103.69621Q346.6906 103.16496 346.6906 102.33684Q346.6906 101.35246 347.4406 100.80559Q348.1906 100.25871 349.5656 100.25871L350.6125 100.25871L350.6125 99.75871Q350.6125 99.19621 350.26874 98.86809Q349.9406 98.52434 349.26874 98.52434Q348.6906 98.52434 348.3 98.82121Q347.90936 99.10246 347.90936 99.52434L346.8156 99.52434Q346.8156 99.03996 347.14374 98.60246Q347.4875 98.16496 348.0656 97.91496Q348.64374 97.64934 349.33124 97.64934Q350.4406 97.64934 351.05 98.19621Q351.675 98.74309 351.70624 99.69621L351.70624 102.61809Q351.70624 103.49309 351.925 104.00871L351.925 104.10246L350.78436 104.10246ZM348.9875 103.27434Q349.5031 103.27434 349.95624 103.00871Q350.40936 102.74309 350.6125 102.32121L350.6125 101.02434L349.76874 101.02434Q347.76874 101.02434 347.76874 102.19621Q347.76874 102.69621 348.1125 102.99309Q348.45624 103.27434 348.9875 103.27434ZM354.89374 97.75871L354.925 98.55559Q355.65936 97.64934 356.83124 97.64934Q358.84686 97.64934 358.8625 99.91496L358.8625 104.10246L357.76874 104.10246L357.76874 99.89934Q357.76874 99.22746 357.45624 98.89934Q357.15936 98.57121 356.5031 98.57121Q355.97186 98.57121 355.5656 98.85246Q355.175 99.13371 354.95624 99.58684L354.95624 104.10246L353.8781 104.10246L353.8781 97.75871L354.89374 97.75871ZM362.05 104.10246L360.97186 104.10246L360.97186 97.75871L362.05 97.75871L362.05 104.10246ZM360.8781 96.08684Q360.8781 95.82121 361.03436 95.63371Q361.20624 95.44621 361.51874 95.44621Q361.83124 95.44621 361.9875 95.63371Q362.15936 95.82121 362.15936 96.08684Q362.15936 96.33684 361.9875 96.52434Q361.83124 96.69621 361.51874 96.69621Q361.20624 96.69621 361.03436 96.52434Q360.8781 96.33684 360.8781 96.08684ZM367.5656 102.41496Q367.5656 101.97746 367.22186 101.74309Q366.89374 101.49309 366.0656 101.32121Q365.2531 101.14934 364.76874 100.89934Q364.28436 100.64934 364.05 100.32121Q363.83124 99.97746 363.83124 99.50871Q363.83124 98.72746 364.4875 98.19621Q365.14374 97.64934 366.175 97.64934Q367.2531 97.64934 367.90936 98.21184Q368.58124 98.75871 368.58124 99.61809L367.5031 99.61809Q367.5031 99.18059 367.1125 98.86809Q366.7375 98.53996 366.175 98.53996Q365.58124 98.53996 365.2375 98.80559Q364.90936 99.05559 364.90936 99.46184Q364.90936 99.85246 365.22186 100.05559Q365.53436 100.25871 366.34686 100.44621Q367.15936 100.61809 367.65936 100.86809Q368.15936 101.11809 368.39374 101.47746Q368.64374 101.83684 368.64374 102.33684Q368.64374 103.19621 367.95624 103.71184Q367.28436 104.22746 366.20624 104.22746Q365.4406 104.22746 364.84686 103.96184Q364.26874 103.68059 363.9406 103.19621Q363.6125 102.71184 363.6125 102.14934L364.6906 102.14934Q364.72186 102.69621 365.1281 103.02434Q365.53436 103.33684 366.20624 103.33684Q366.8156 103.33684 367.1906 103.08684Q367.5656 102.83684 367.5656 102.41496ZM370.95624 98.52434Q371.675 97.64934 372.83124 97.64934Q374.84686 97.64934 374.8625 99.91496L374.8625 104.10246L373.76874 104.10246L373.76874 99.89934Q373.76874 99.22746 373.45624 98.89934Q373.15936 98.57121 372.5031 98.57121Q371.97186 98.57121 371.5656 98.85246Q371.175 99.13371 370.95624 99.58684L370.95624 104.10246L369.8781 104.10246L369.8781 95.10246L370.95624 95.10246L370.95624 98.52434Z" fill-rule="nonzero"/><path fill="#9e9e9e" d="M348.33124 119.24309L349.51874 119.24309L349.51874 120.11809L348.33124 120.11809L348.33124 122.10246L347.2531 122.10246L347.2531 120.11809L343.3625 120.11809L343.3625 119.47746L347.175 113.57121L348.33124 113.57121L348.33124 119.24309ZM344.59686 119.24309L347.2531 119.24309L347.2531 115.05559L347.1125 115.28996L344.59686 119.24309ZM356.1125 118.46184Q356.1125 120.36809 355.45624 121.30559Q354.8156 122.22746 353.425 122.22746Q352.0656 122.22746 351.40936 121.32121Q350.7531 120.41496 350.72186 118.60246L350.72186 117.16496Q350.72186 115.27434 351.3625 114.36809Q352.01874 113.44621 353.40936 113.44621Q354.78436 113.44621 355.4406 114.33684Q356.09686 115.21184 356.1125 117.05559L356.1125 118.46184ZM355.01874 116.97746Q355.01874 115.60246 354.6281 114.97746Q354.2531 114.33684 353.40936 114.33684Q352.58124 114.33684 352.1906 114.97746Q351.8156 115.60246 351.8156 116.89934L351.8156 118.63371Q351.8156 120.00871 352.20624 120.68059Q352.6125 121.33684 353.425 121.33684Q354.22186 121.33684 354.6125 120.71184Q355.0031 120.08684 355.01874 118.75871L355.01874 116.97746ZM357.89374 121.53996Q357.89374 121.25871 358.05 121.07121Q358.22186 120.88371 358.55 120.88371Q358.89374 120.88371 359.0656 121.07121Q359.2375 121.25871 359.2375 121.53996Q359.2375 121.80559 359.0656 121.99309Q358.89374 122.16496 358.55 122.16496Q358.22186 122.16496 358.05 121.99309Q357.89374 121.80559 357.89374 121.53996ZM366.1125 118.46184Q366.1125 120.36809 365.45624 121.30559Q364.8156 122.22746 363.425 122.22746Q362.0656 122.22746 361.40936 121.32121Q360.7531 120.41496 360.72186 118.60246L360.72186 117.16496Q360.72186 115.27434 361.3625 114.36809Q362.01874 113.44621 363.40936 113.44621Q364.78436 113.44621 365.4406 114.33684Q366.09686 115.21184 366.1125 117.05559L366.1125 118.46184ZM365.01874 116.97746Q365.01874 115.60246 364.6281 114.97746Q364.2531 114.33684 363.40936 114.33684Q362.58124 114.33684 362.1906 114.97746Q361.8156 115.60246 361.8156 116.89934L361.8156 118.63371Q361.8156 120.00871 362.20624 120.68059Q362.6125 121.33684 363.425 121.33684Q364.22186 121.33684 364.6125 120.71184Q365.0031 120.08684 365.01874 118.75871L365.01874 116.97746ZM367.65936 115.21184Q367.65936 114.44621 368.14374 113.94621Q368.64374 113.44621 369.40936 113.44621Q370.1906 113.44621 370.675 113.94621Q371.15936 114.44621 371.15936 115.24309L371.15936 115.66496Q371.15936 116.43059 370.65936 116.93059Q370.175 117.41496 369.425 117.41496Q368.65936 117.41496 368.15936 116.93059Q367.65936 116.43059 367.65936 115.61809L367.65936 115.21184ZM368.47186 115.66496Q368.47186 116.11809 368.72186 116.41496Q368.9875 116.71184 369.425 116.71184Q369.84686 116.71184 370.09686 116.43059Q370.34686 116.13371 370.34686 115.63371L370.34686 115.21184Q370.34686 114.75871 370.09686 114.46184Q369.84686 114.14934 369.40936 114.14934Q368.97186 114.14934 368.72186 114.46184Q368.47186 114.75871 368.47186 115.22746L368.47186 115.66496ZM371.8156 120.00871Q371.8156 119.24309 372.3 118.75871Q372.8 118.25871 373.5656 118.25871Q374.33124 118.25871 374.8156 118.75871Q375.3156 119.24309 375.3156 120.05559L375.3156 120.46184Q375.3156 121.22746 374.83124 121.72746Q374.34686 122.22746 373.58124 122.22746Q372.8156 122.22746 372.3156 121.74309Q371.8156 121.24309 371.8156 120.43059L371.8156 120.00871ZM372.6281 120.46184Q372.6281 120.93059 372.8781 121.22746Q373.14374 121.52434 373.58124 121.52434Q374.0031 121.52434 374.2531 121.24309Q374.5031 120.94621 374.5031 120.44621L374.5031 120.00871Q374.5031 119.53996 374.2375 119.25871Q373.9875 118.96184 373.5656 118.96184Q373.14374 118.96184 372.8781 119.25871Q372.6281 119.53996 372.6281 120.03996L372.6281 120.46184ZM369.675 121.46184L369.05 121.07121L373.22186 114.39934L373.83124 114.78996L369.675 121.46184Z" fill-rule="nonzero"/><path stroke="#757575" stroke-width="1.0" stroke-linecap="butt" d="M376.05 108.60246L291.56668 108.60246L276.73083 108.60246" fill-rule="nonzero"/><path fill="#9e9e9e" d="M278.73083 108.60246C278.73083 107.497894 277.8354 106.60246 276.73083 106.60246C275.62625 106.60246 274.73083 107.497894 274.73083 108.60246C274.73083 109.70703 275.62625 110.60246 276.73083 110.60246C277.8354 110.60246 278.73083 109.70703 278.73083 108.60246" fill-rule="nonzero"/><path fill="#757575" d="M22.66875 28.465626L24.7 20.3875L26.5125 20.3875L23.434376 30.95L21.965626 30.95L19.403126 22.934376L16.903126 30.95L15.434375 30.95L12.371875 20.3875L14.16875 20.3875L16.246876 28.29375L18.715626 20.3875L20.16875 20.3875L22.66875 28.465626ZM32.7 31.153126Q30.559376 31.153126 29.2 29.746876Q27.85625 28.325 27.85625 25.965626L27.85625 25.621876Q27.85625 24.059376 28.45 22.825Q29.059376 21.590626 30.1375 20.8875Q31.215626 20.184376 32.48125 20.184376Q34.54375 20.184376 35.684376 21.54375Q36.825 22.903126 36.825 25.434376L36.825 26.184376L29.66875 26.184376Q29.7 27.746876 30.575 28.715626Q31.45 29.66875 32.79375 29.66875Q33.7625 29.66875 34.41875 29.278126Q35.090626 28.8875 35.590626 28.246876L36.684376 29.10625Q35.35625 31.153126 32.7 31.153126ZM32.48125 21.66875Q31.3875 21.66875 30.6375 22.465626Q29.903126 23.2625 29.73125 24.7L35.0125 24.7L35.0125 24.559376Q34.934376 23.184376 34.2625 22.434376Q33.60625 21.66875 32.48125 21.66875ZM43.7 31.153126Q41.559376 31.153126 40.2 29.746876Q38.85625 28.325 38.85625 25.965626L38.85625 25.621876Q38.85625 24.059376 39.45 22.825Q40.059376 21.590626 41.1375 20.8875Q42.215626 20.184376 43.48125 20.184376Q45.54375 20.184376 46.684376 21.54375Q47.825 22.903126 47.825 25.434376L47.825 26.184376L40.66875 26.184376Q40.7 27.746876 41.575 28.715626Q42.45 29.66875 43.79375 29.66875Q44.7625 29.66875 45.41875 29.278126Q46.090626 28.8875 46.590626 28.246876L47.684376 29.10625Q46.35625 31.153126 43.7 31.153126ZM43.48125 21.66875Q42.3875 21.66875 41.6375 22.465626Q40.903126 23.2625 40.73125 24.7L46.0125 24.7L46.0125 24.559376Q45.934376 23.184376 45.2625 22.434376Q44.60625 21.66875 43.48125 21.66875ZM53.2625 26.059376L52.1375 27.23125L52.1375 30.95L50.325 30.95L50.325 15.950001L52.1375 15.950001L52.1375 25.028126L53.10625 23.85625L56.3875 20.3875L58.590626 20.3875L54.48125 24.79375L59.075 30.95L56.95 30.95L53.2625 26.059376ZM62.278126 30.95L60.48125 30.95L60.48125 15.950001L62.278126 15.950001L62.278126 30.95ZM68.77812 28.309376L71.23125 20.3875L73.16875 20.3875L68.91875 32.575Q67.93437 35.215626 65.79375 35.215626L65.45 35.184376L64.77812 35.059376L64.77812 33.590626L65.2625 33.6375Q66.18437 33.6375 66.68437 33.2625Q67.2 32.8875 67.52812 31.903126L67.93437 30.825L64.16875 20.3875L66.1375 20.3875L68.77812 28.309376ZM88.66875 28.465626L90.7 20.3875L92.5125 20.3875L89.43437 30.95L87.96562 30.95L85.40312 22.934376L82.90312 30.95L81.43437 30.95L78.37187 20.3875L80.16875 20.3875L82.24687 28.29375L84.71562 20.3875L86.16875 20.3875L88.66875 28.465626ZM96.27812 30.95L94.48125 30.95L94.48125 20.3875L96.27812 20.3875L96.27812 30.95ZM94.325 17.575Q94.325 17.1375 94.59062 16.840626Q94.87187 16.528126 95.3875 16.528126Q95.91875 16.528126 96.18437 16.840626Q96.46562 17.1375 96.46562 17.575Q96.46562 18.0125 96.18437 18.309376Q95.91875 18.60625 95.3875 18.60625Q94.87187 18.60625 94.59062 18.309376Q94.325 18.0125 94.325 17.575ZM101.02812 20.3875L101.09062 21.715626Q102.29375 20.184376 104.24687 20.184376Q107.60625 20.184376 107.62187 23.965626L107.62187 30.95L105.825 30.95L105.825 23.95Q105.80937 22.809376 105.29375 22.2625Q104.79375 21.715626 103.7 21.715626Q102.825 21.715626 102.15312 22.184376Q101.49687 22.653126 101.12187 23.41875L101.12187 30.95L99.325 30.95L99.325 20.3875L101.02812 20.3875ZM112.02812 20.3875L112.09062 21.715626Q113.29375 20.184376 115.24687 20.184376Q118.60625 20.184376 118.62187 23.965626L118.62187 30.95L116.825 30.95L116.825 23.95Q116.80937 22.809376 116.29375 22.2625Q115.79375 21.715626 114.7 21.715626Q113.825 21.715626 113.15312 22.184376Q112.49687 22.653126 112.12187 23.41875L112.12187 30.95L110.325 30.95L110.325 20.3875L112.02812 20.3875ZM123.27812 30.95L121.48125 30.95L121.48125 20.3875L123.27812 20.3875L123.27812 30.95ZM121.325 17.575Q121.325 17.1375 121.59062 16.840626Q121.87187 16.528126 122.3875 16.528126Q122.91875 16.528126 123.18437 16.840626Q123.46562 17.1375 123.46562 17.575Q123.46562 18.0125 123.18437 18.309376Q122.91875 18.60625 122.3875 18.60625Q121.87187 18.60625 121.59062 18.309376Q121.325 18.0125 121.325 17.575ZM128.02812 20.3875L128.09062 21.715626Q129.29375 20.184376 131.24687 20.184376Q134.60625 20.184376 134.62187 23.965626L134.62187 30.95L132.825 30.95L132.825 23.95Q132.80937 22.809376 132.29375 22.2625Q131.79375 21.715626 130.7 21.715626Q129.825 21.715626 129.15312 22.184376Q128.49687 22.653126 128.12187 23.41875L128.12187 30.95L126.325 30.95L126.325 20.3875L128.02812 20.3875ZM136.8875 25.575Q136.8875 23.10625 138.02812 21.653126Q139.16875 20.184376 141.05937 20.184376Q142.99687 20.184376 144.075 21.559376L144.16875 20.3875L145.80937 20.3875L145.80937 30.7Q145.80937 32.746876 144.59062 33.91875Q143.3875 35.10625 141.325 35.10625Q140.18437 35.10625 139.09062 34.621876Q137.99687 34.1375 137.41875 33.278126L138.35625 32.2Q139.52812 33.6375 141.2 33.6375Q142.52812 33.6375 143.2625 32.8875Q143.99687 32.153126 143.99687 30.809376L143.99687 29.8875Q142.91875 31.153126 141.04375 31.153126Q139.18437 31.153126 138.02812 29.653126Q136.8875 28.153126 136.8875 25.575ZM138.7 25.778126Q138.7 27.575 139.43437 28.590626Q140.16875 29.60625 141.48125 29.60625Q143.2 29.60625 143.99687 28.059376L143.99687 23.23125Q143.16875 21.715626 141.5125 21.715626Q140.18437 21.715626 139.43437 22.746876Q138.7 23.778126 138.7 25.778126ZM158.41875 21.996876Q158.0125 21.934376 157.54375 21.934376Q155.7625 21.934376 155.12187 23.45L155.12187 30.95L153.325 30.95L153.325 20.3875L155.075 20.3875L155.10625 21.60625Q155.99687 20.184376 157.62187 20.184376Q158.15312 20.184376 158.41875 20.325L158.41875 21.996876ZM166.84062 30.95Q166.68437 30.6375 166.59062 29.840626Q165.325 31.153126 163.575 31.153126Q162.0125 31.153126 161.0125 30.2625Q160.0125 29.371876 160.0125 28.0125Q160.0125 26.371876 161.2625 25.465626Q162.52812 24.54375 164.79375 24.54375L166.55937 24.54375L166.55937 23.715626Q166.55937 22.7625 165.98125 22.2Q165.41875 21.6375 164.325 21.6375Q163.35625 21.6375 162.7 22.1375Q162.04375 22.621876 162.04375 23.309376L160.23125 23.309376Q160.23125 22.528126 160.79375 21.79375Q161.35625 21.04375 162.30937 20.621876Q163.27812 20.184376 164.43437 20.184376Q166.2625 20.184376 167.29375 21.10625Q168.325 22.0125 168.37187 23.621876L168.37187 28.48125Q168.37187 29.934376 168.73125 30.79375L168.73125 30.95L166.84062 30.95ZM163.84062 29.575Q164.7 29.575 165.45 29.1375Q166.21562 28.7 166.55937 27.996876L166.55937 25.825L165.1375 25.825Q161.825 25.825 161.825 27.7625Q161.825 28.621876 162.3875 29.10625Q162.95 29.575 163.84062 29.575ZM173.7625 17.825L173.7625 20.3875L175.74687 20.3875L175.74687 21.778126L173.7625 21.778126L173.7625 28.325Q173.7625 28.965626 174.02812 29.29375Q174.29375 29.60625 174.93437 29.60625Q175.24687 29.60625 175.79375 29.48125L175.79375 30.95Q175.075 31.153126 174.40312 31.153126Q173.2 31.153126 172.575 30.41875Q171.96562 29.684376 171.96562 28.325L171.96562 21.778126L170.04375 21.778126L170.04375 20.3875L171.96562 20.3875L171.96562 17.825L173.7625 17.825ZM180.27812 30.95L178.48125 30.95L178.48125 20.3875L180.27812 20.3875L180.27812 30.95ZM178.325 17.575Q178.325 17.1375 178.59062 16.840626Q178.87187 16.528126 179.3875 16.528126Q179.91875 16.528126 180.18437 16.840626Q180.46562 17.1375 180.46562 17.575Q180.46562 18.0125 180.18437 18.309376Q179.91875 18.60625 179.3875 18.60625Q178.87187 18.60625 178.59062 18.309376Q178.325 18.0125 178.325 17.575ZM182.84062 25.575Q182.84062 24.0125 183.45 22.778126Q184.05937 21.528126 185.1375 20.85625Q186.23125 20.184376 187.6375 20.184376Q189.79375 20.184376 191.12187 21.684376Q192.46562 23.16875 192.46562 25.653126L192.46562 25.778126Q192.46562 27.325 191.87187 28.559376Q191.27812 29.778126 190.16875 30.465626Q189.075 31.153126 187.65312 31.153126Q185.5125 31.153126 184.16875 29.653126Q182.84062 28.153126 182.84062 25.7L182.84062 25.575ZM184.65312 25.778126Q184.65312 27.54375 185.46562 28.60625Q186.29375 29.66875 187.65312 29.66875Q189.02812 29.66875 189.84062 28.590626Q190.65312 27.5125 190.65312 25.575Q190.65312 23.825 189.825 22.746876Q188.99687 21.66875 187.6375 21.66875Q186.29375 21.66875 185.46562 22.73125Q184.65312 23.79375 184.65312 25.778126Z" fill-rule="nonzero"/></svg>