<svg version="1.1" viewBox="0.0 0.0 388.0 239.0" fill="none" stroke="none" stroke-linecap="square" stroke-miterlimit="10" width="388" height="239" xmlns:xlink="http://www.w3.org/1999/xlink" xmlns="http://www.w3.org/2000/svg"><path fill="#ffffff" d="M0 0L388.0 0L388.0 239.0L0 239.0L0 0Z" fill-rule="nonzero"/><path fill="#4285f4" d="M194.0 43.916668C233.66908 43.916668 268.82666 69.46014 281.08508 107.187675C293.3435 144.91522 279.9145 186.24542 247.82153 209.56232L194.0 135.48334Z" fill-rule="nonzero"/><path fill="#46bdc6" d="M106.914925 107.187675C119.17335 69.46014 154.33092 43.916668 194.0 43.916668L194.0 135.48334Z" fill-rule="nonzero"/><path fill="#f4b400" d="M140.17847 209.56232C108.0855 186.24542 94.6565 144.91522 106.914925 107.187675L194.0 135.48334Z" fill-rule="nonzero"/><path fill="#db4437" d="M247.82153 209.56232C215.72858 232.87923 172.27142 232.87923 140.17847 209.56232L194.0 135.48334Z" fill-rule="nonzero"/><path fill="#757575" d="M19.246876 59.48329Q18.809376 60.10829 18.028126 60.42079Q17.246876 60.73329 16.215626 60.73329Q15.184375 60.73329 14.371875 60.248917Q13.559375 59.748917 13.121875 58.842667Q12.684375 57.936417 12.66875 56.748917L12.66875 56.01454Q12.66875 54.07704 13.559375 53.01454Q14.465625 51.95204 16.090626 51.95204Q17.434376 51.95204 18.246876 52.63954Q19.059376 53.32704 19.246876 54.57704L18.121876 54.57704Q17.79375 52.88954 16.10625 52.88954Q14.965625 52.88954 14.3875 53.686417Q13.809375 54.467667 13.79375 55.98329L13.79375 56.67079Q13.79375 58.10829 14.45 58.967667Q15.10625 59.811417 16.23125 59.811417Q16.85625 59.811417 17.325 59.67079Q17.809376 59.530167 18.121876 59.186417L18.121876 57.280167L16.153126 57.280167L16.153126 56.35829L19.246876 56.35829L19.246876 59.48329ZM24.684376 59.98329Q24.059376 60.73329 22.825 60.73329Q21.809376 60.73329 21.278126 60.13954Q20.746876 59.54579 20.746876 58.38954L20.746876 54.26454L21.825 54.26454L21.825 58.35829Q21.825 59.811417 22.996876 59.811417Q24.246876 59.811417 24.653126 58.873917L24.653126 54.26454L25.746876 54.26454L25.746876 60.60829L24.715626 60.60829L24.684376 59.98329ZM28.95 60.60829L27.871876 60.60829L27.871876 54.26454L28.95 54.26454L28.95 60.60829ZM27.778126 52.592667Q27.778126 52.32704 27.934376 52.13954Q28.10625 51.95204 28.41875 51.95204Q28.73125 51.95204 28.8875 52.13954Q29.059376 52.32704 29.059376 52.592667Q29.059376 52.842667 28.8875 53.030167Q28.73125 53.20204 28.41875 53.20204Q28.10625 53.20204 27.934376 53.030167Q27.778126 52.842667 27.778126 52.592667ZM30.5125 57.38954Q30.5125 55.92079 31.2 55.04579Q31.8875 54.155167 33.0125 54.155167Q34.121876 54.155167 34.778126 54.905167L34.778126 51.60829L35.85625 51.60829L35.85625 60.60829L34.85625 60.60829L34.809376 59.92079Q34.153126 60.73329 32.996876 60.73329Q31.903126 60.73329 31.2 59.82704Q30.5125 58.92079 30.5125 57.467667L30.5125 57.38954ZM31.590626 57.51454Q31.590626 58.592667 32.028126 59.20204Q32.48125 59.811417 33.2625 59.811417Q34.29375 59.811417 34.778126 58.873917L34.778126 55.967667Q34.29375 55.07704 33.278126 55.07704Q32.48125 55.07704 32.028126 55.686417Q31.590626 56.29579 31.590626 57.51454ZM37.48125 57.373917Q37.48125 56.45204 37.840626 55.70204Q38.215626 54.95204 38.871876 54.561417Q39.528126 54.155167 40.35625 54.155167Q41.653126 54.155167 42.45 55.04579Q43.2625 55.936417 43.2625 57.436417L43.2625 57.51454Q43.2625 58.436417 42.903126 59.17079Q42.54375 59.905167 41.8875 60.32704Q41.23125 60.73329 40.371876 60.73329Q39.090626 60.73329 38.278126 59.842667Q37.48125 58.936417 37.48125 57.45204L37.48125 57.373917ZM38.575 57.51454Q38.575 58.561417 39.059376 59.20204Q39.559376 59.842667 40.371876 59.842667Q41.2 59.842667 41.684376 59.20204Q42.16875 58.54579 42.16875 57.373917Q42.16875 56.342667 41.66875 55.70204Q41.184376 55.04579 40.35625 55.04579Q39.559376 55.04579 39.059376 55.686417Q38.575 56.311417 38.575 57.51454Z" fill-rule="nonzero"/><path fill="#9e9e9e" d="M18.246876 78.60829L12.653125 78.60829L12.653125 77.82704L15.60625 74.54579Q16.2625 73.79579 16.5125 73.34267Q16.7625 72.87392 16.7625 72.37392Q16.7625 71.70204 16.35625 71.28017Q15.965625 70.84267 15.278125 70.84267Q14.48125 70.84267 14.028125 71.31142Q13.575 71.76454 13.575 72.59267L12.496875 72.59267Q12.496875 71.40517 13.246875 70.68642Q14.0125 69.95204 15.278125 69.95204Q16.48125 69.95204 17.16875 70.57704Q17.85625 71.20204 17.85625 72.24892Q17.85625 73.49892 16.246876 75.24892L13.965625 77.71767L18.246876 77.71767L18.246876 78.60829ZM25.0125 74.96767Q25.0125 76.87392 24.35625 77.81142Q23.715626 78.73329 22.325 78.73329Q20.965626 78.73329 20.309376 77.82704Q19.653126 76.92079 19.621876 75.10829L19.621876 73.67079Q19.621876 71.78017 20.2625 70.87392Q20.91875 69.95204 22.309376 69.95204Q23.684376 69.95204 24.340626 70.84267Q24.996876 71.71767 25.0125 73.56142L25.0125 74.96767ZM23.91875 73.48329Q23.91875 72.10829 23.528126 71.48329Q23.153126 70.84267 22.309376 70.84267Q21.48125 70.84267 21.090626 71.48329Q20.715626 72.10829 20.715626 73.40517L20.715626 75.13954Q20.715626 76.51454 21.10625 77.18642Q21.5125 77.84267 22.325 77.84267Q23.121876 77.84267 23.5125 77.21767Q23.903126 76.59267 23.91875 75.26454L23.91875 73.48329ZM26.79375 78.04579Q26.79375 77.76454 26.95 77.57704Q27.121876 77.38954 27.45 77.38954Q27.79375 77.38954 27.965626 77.57704Q28.1375 77.76454 28.1375 78.04579Q28.1375 78.31142 27.965626 78.49892Q27.79375 78.67079 27.45 78.67079Q27.121876 78.67079 26.95 78.49892Q26.79375 78.31142 26.79375 78.04579ZM35.0125 74.96767Q35.0125 76.87392 34.35625 77.81142Q33.715626 78.73329 32.325 78.73329Q30.965626 78.73329 30.309376 77.82704Q29.653126 76.92079 29.621876 75.10829L29.621876 73.67079Q29.621876 71.78017 30.2625 70.87392Q30.91875 69.95204 32.309376 69.95204Q33.684376 69.95204 34.340626 70.84267Q34.996876 71.71767 35.0125 73.56142L35.0125 74.96767ZM33.91875 73.48329Q33.91875 72.10829 33.528126 71.48329Q33.153126 70.84267 32.309376 70.84267Q31.48125 70.84267 31.090626 71.48329Q30.715626 72.10829 30.715626 73.40517L30.715626 75.13954Q30.715626 76.51454 31.10625 77.18642Q31.5125 77.84267 32.325 77.84267Q33.121876 77.84267 33.5125 77.21767Q33.903126 76.59267 33.91875 75.26454L33.91875 73.48329ZM36.559376 71.71767Q36.559376 70.95204 37.04375 70.45204Q37.54375 69.95204 38.309376 69.95204Q39.090626 69.95204 39.575 70.45204Q40.059376 70.95204 40.059376 71.74892L40.059376 72.17079Q40.059376 72.93642 39.559376 73.43642Q39.075 73.92079 38.325 73.92079Q37.559376 73.92079 37.059376 73.43642Q36.559376 72.93642 36.559376 72.12392L36.559376 71.71767ZM37.371876 72.17079Q37.371876 72.62392 37.621876 72.92079Q37.8875 73.21767 38.325 73.21767Q38.746876 73.21767 38.996876 72.93642Q39.246876 72.63954 39.246876 72.13954L39.246876 71.71767Q39.246876 71.26454 38.996876 70.96767Q38.746876 70.65517 38.309376 70.65517Q37.871876 70.65517 37.621876 70.96767Q37.371876 71.26454 37.371876 71.73329L37.371876 72.17079ZM40.715626 76.51454Q40.715626 75.74892 41.2 75.26454Q41.7 74.76454 42.465626 74.76454Q43.23125 74.76454 43.715626 75.26454Q44.215626 75.74892 44.215626 76.56142L44.215626 76.96767Q44.215626 77.73329 43.73125 78.23329Q43.246876 78.73329 42.48125 78.73329Q41.715626 78.73329 41.215626 78.24892Q40.715626 77.74892 40.715626 76.93642L40.715626 76.51454ZM41.528126 76.96767Q41.528126 77.43642 41.778126 77.73329Q42.04375 78.03017 42.48125 78.03017Q42.903126 78.03017 43.153126 77.74892Q43.403126 77.45204 43.403126 76.95204L43.403126 76.51454Q43.403126 76.04579 43.1375 75.76454Q42.8875 75.46767 42.465626 75.46767Q42.04375 75.46767 41.778126 75.76454Q41.528126 76.04579 41.528126 76.54579L41.528126 76.96767ZM38.575 77.96767L37.95 77.57704L42.121876 70.90517L42.73125 71.29579L38.575 77.96767Z" fill-rule="nonzero"/><path stroke="#757575" stroke-width="1.0" stroke-linecap="butt" d="M11.95 65.10829L96.433334 65.10829L142.86954 65.10829" fill-rule="nonzero"/><path fill="#9e9e9e" d="M144.86954 65.10829C144.86954 64.00372 143.9741 63.10829 142.86954 63.10829C141.76497 63.10829 140.86954 64.00372 140.86954 65.10829C140.86954 66.21286 141.76497 67.10829 142.86954 67.10829C143.9741 67.10829 144.86954 66.21286 144.86954 65.10829" fill-rule="nonzero"/><path fill="#757575" d="M18.840626 150.25484L16.090626 150.25484L16.090626 157.86421L14.98125 157.86421L14.98125 150.25484L12.23125 150.25484L12.23125 149.33296L18.840626 149.33296L18.840626 150.25484ZM20.85625 152.28609Q21.575 151.41109 22.73125 151.41109Q24.746876 151.41109 24.7625 153.67671L24.7625 157.86421L23.66875 157.86421L23.66875 153.66109Q23.66875 152.98921 23.35625 152.66109Q23.059376 152.33296 22.403126 152.33296Q21.871876 152.33296 21.465626 152.61421Q21.075 152.89546 20.85625 153.34859L20.85625 157.86421L19.778126 157.86421L19.778126 148.86421L20.85625 148.86421L20.85625 152.28609ZM30.684376 157.86421Q30.590626 157.67671 30.528126 157.19234Q29.778126 157.98921 28.73125 157.98921Q27.79375 157.98921 27.184376 157.45796Q26.590626 156.92671 26.590626 156.09859Q26.590626 155.11421 27.340626 154.56734Q28.090626 154.02046 29.465626 154.02046L30.5125 154.02046L30.5125 153.52046Q30.5125 152.95796 30.16875 152.62984Q29.840626 152.28609 29.16875 152.28609Q28.590626 152.28609 28.2 152.58296Q27.809376 152.86421 27.809376 153.28609L26.715626 153.28609Q26.715626 152.80171 27.04375 152.36421Q27.3875 151.92671 27.965626 151.67671Q28.54375 151.41109 29.23125 151.41109Q30.340626 151.41109 30.95 151.95796Q31.575 152.50484 31.60625 153.45796L31.60625 156.37984Q31.60625 157.25484 31.825 157.77046L31.825 157.86421L30.684376 157.86421ZM28.8875 157.03609Q29.403126 157.03609 29.85625 156.77046Q30.309376 156.50484 30.5125 156.08296L30.5125 154.78609L29.66875 154.78609Q27.66875 154.78609 27.66875 155.95796Q27.66875 156.45796 28.0125 156.75484Q28.35625 157.03609 28.8875 157.03609ZM34.95 157.86421L33.871876 157.86421L33.871876 151.52046L34.95 151.52046L34.95 157.86421ZM33.778126 149.84859Q33.778126 149.58296 33.934376 149.39546Q34.10625 149.20796 34.41875 149.20796Q34.73125 149.20796 34.8875 149.39546Q35.059376 149.58296 35.059376 149.84859Q35.059376 150.09859 34.8875 150.28609Q34.73125 150.45796 34.41875 150.45796Q34.10625 150.45796 33.934376 150.28609Q33.778126 150.09859 33.778126 149.84859Z" fill-rule="nonzero"/><path fill="#9e9e9e" d="M18.246876 175.86421L12.653125 175.86421L12.653125 175.08296L15.60625 171.80171Q16.2625 171.05171 16.5125 170.59859Q16.7625 170.12984 16.7625 169.62984Q16.7625 168.95796 16.35625 168.53609Q15.965625 168.09859 15.278125 168.09859Q14.48125 168.09859 14.028125 168.56734Q13.575 169.02046 13.575 169.84859L12.496875 169.84859Q12.496875 168.66109 13.246875 167.94234Q14.0125 167.20796 15.278125 167.20796Q16.48125 167.20796 17.16875 167.83296Q17.85625 168.45796 17.85625 169.50484Q17.85625 170.75484 16.246876 172.50484L13.965625 174.97359L18.246876 174.97359L18.246876 175.86421ZM25.0125 172.22359Q25.0125 174.12984 24.35625 175.06734Q23.715626 175.98921 22.325 175.98921Q20.965626 175.98921 20.309376 175.08296Q19.653126 174.17671 19.621876 172.36421L19.621876 170.92671Q19.621876 169.03609 20.2625 168.12984Q20.91875 167.20796 22.309376 167.20796Q23.684376 167.20796 24.340626 168.09859Q24.996876 168.97359 25.0125 170.81734L25.0125 172.22359ZM23.91875 170.73921Q23.91875 169.36421 23.528126 168.73921Q23.153126 168.09859 22.309376 168.09859Q21.48125 168.09859 21.090626 168.73921Q20.715626 169.36421 20.715626 170.66109L20.715626 172.39546Q20.715626 173.77046 21.10625 174.44234Q21.5125 175.09859 22.325 175.09859Q23.121876 175.09859 23.5125 174.47359Q23.903126 173.84859 23.91875 172.52046L23.91875 170.73921ZM26.79375 175.30171Q26.79375 175.02046 26.95 174.83296Q27.121876 174.64546 27.45 174.64546Q27.79375 174.64546 27.965626 174.83296Q28.1375 175.02046 28.1375 175.30171Q28.1375 175.56734 27.965626 175.75484Q27.79375 175.92671 27.45 175.92671Q27.121876 175.92671 26.95 175.75484Q26.79375 175.56734 26.79375 175.30171ZM35.0125 172.22359Q35.0125 174.12984 34.35625 175.06734Q33.715626 175.98921 32.325 175.98921Q30.965626 175.98921 30.309376 175.08296Q29.653126 174.17671 29.621876 172.36421L29.621876 170.92671Q29.621876 169.03609 30.2625 168.12984Q30.91875 167.20796 32.309376 167.20796Q33.684376 167.20796 34.340626 168.09859Q34.996876 168.97359 35.0125 170.81734L35.0125 172.22359ZM33.91875 170.73921Q33.91875 169.36421 33.528126 168.73921Q33.153126 168.09859 32.309376 168.09859Q31.48125 168.09859 31.090626 168.73921Q30.715626 169.36421 30.715626 170.66109L30.715626 172.39546Q30.715626 173.77046 31.10625 174.44234Q31.5125 175.09859 32.325 175.09859Q33.121876 175.09859 33.5125 174.47359Q33.903126 173.84859 33.91875 172.52046L33.91875 170.73921ZM36.559376 168.97359Q36.559376 168.20796 37.04375 167.70796Q37.54375 167.20796 38.309376 167.20796Q39.090626 167.20796 39.575 167.70796Q40.059376 168.20796 40.059376 169.00484L40.059376 169.42671Q40.059376 170.19234 39.559376 170.69234Q39.075 171.17671 38.325 171.17671Q37.559376 171.17671 37.059376 170.69234Q36.559376 170.19234 36.559376 169.37984L36.559376 168.97359ZM37.371876 169.42671Q37.371876 169.87984 37.621876 170.17671Q37.8875 170.47359 38.325 170.47359Q38.746876 170.47359 38.996876 170.19234Q39.246876 169.89546 39.246876 169.39546L39.246876 168.97359Q39.246876 168.52046 38.996876 168.22359Q38.746876 167.91109 38.309376 167.91109Q37.871876 167.91109 37.621876 168.22359Q37.371876 168.52046 37.371876 168.98921L37.371876 169.42671ZM40.715626 173.77046Q40.715626 173.00484 41.2 172.52046Q41.7 172.02046 42.465626 172.02046Q43.23125 172.02046 43.715626 172.52046Q44.215626 173.00484 44.215626 173.81734L44.215626 174.22359Q44.215626 174.98921 43.73125 175.48921Q43.246876 175.98921 42.48125 175.98921Q41.715626 175.98921 41.215626 175.50484Q40.715626 175.00484 40.715626 174.19234L40.715626 173.77046ZM41.528126 174.22359Q41.528126 174.69234 41.778126 174.98921Q42.04375 175.28609 42.48125 175.28609Q42.903126 175.28609 43.153126 175.00484Q43.403126 174.70796 43.403126 174.20796L43.403126 173.77046Q43.403126 173.30171 43.1375 173.02046Q42.8875 172.72359 42.465626 172.72359Q42.04375 172.72359 41.778126 173.02046Q41.528126 173.30171 41.528126 173.80171L41.528126 174.22359ZM38.575 175.22359L37.95 174.83296L42.121876 168.16109L42.73125 168.55171L38.575 175.22359Z" fill-rule="nonzero"/><path stroke="#757575" stroke-width="1.0" stroke-linecap="butt" d="M11.95 162.36421L96.433334 162.36421L111.26918 162.36421" fill-rule="nonzero"/><path fill="#9e9e9e" d="M113.26918 162.36421C113.26918 161.25964 112.37375 160.36421 111.26918 160.36421C110.16461 160.36421 109.26918 161.25964 109.26918 162.36421C109.26918 163.46878 110.16461 164.36421 111.26918 164.36421C112.37375 164.36421 113.26918 163.46878 113.26918 162.36421" fill-rule="nonzero"/><path fill="#757575" d="M338.4875 95.57121L341.28436 102.52434L344.0656 95.57121L345.53436 95.57121L345.53436 104.10246L344.40936 104.10246L344.40936 100.77434L344.51874 97.19621L341.70624 104.10246L340.84686 104.10246L338.05 97.21184L338.15936 100.77434L338.15936 104.10246L337.03436 104.10246L337.03436 95.57121L338.4875 95.57121ZM350.78436 104.10246Q350.6906 103.91496 350.6281 103.43059Q349.8781 104.22746 348.83124 104.22746Q347.89374 104.22746 347.28436 103.69621Q346.6906 103.16496 346.6906 102.33684Q346.6906 101.35246 347.4406 100.80559Q348.1906 100.25871 349.5656 100.25871L350.6125 100.25871L350.6125 99.75871Q350.6125 99.19621 350.26874 98.86809Q349.9406 98.52434 349.26874 98.52434Q348.6906 98.52434 348.3 98.82121Q347.90936 99.10246 347.90936 99.52434L346.8156 99.52434Q346.8156 99.03996 347.14374 98.60246Q347.4875 98.16496 348.0656 97.91496Q348.64374 97.64934 349.33124 97.64934Q350.4406 97.64934 351.05 98.19621Q351.675 98.74309 351.70624 99.69621L351.70624 102.61809Q351.70624 103.49309 351.925 104.00871L351.925 104.10246L350.78436 104.10246ZM348.9875 103.27434Q349.5031 103.27434 349.95624 103.00871Q350.40936 102.74309 350.6125 102.32121L350.6125 101.02434L349.76874 101.02434Q347.76874 101.02434 347.76874 102.19621Q347.76874 102.69621 348.1125 102.99309Q348.45624 103.27434 348.9875 103.27434ZM354.89374 97.75871L354.925 98.55559Q355.65936 97.64934 356.83124 97.64934Q358.84686 97.64934 358.8625 99.91496L358.8625 104.10246L357.76874 104.10246L357.76874 99.89934Q357.76874 99.22746 357.45624 98.89934Q357.15936 98.57121 356.5031 98.57121Q355.97186 98.57121 355.5656 98.85246Q355.175 99.13371 354.95624 99.58684L354.95624 104.10246L353.8781 104.10246L353.8781 97.75871L354.89374 97.75871ZM362.05 104.10246L360.97186 104.10246L360.97186 97.75871L362.05 97.75871L362.05 104.10246ZM360.8781 96.08684Q360.8781 95.82121 361.03436 95.63371Q361.20624 95.44621 361.51874 95.44621Q361.83124 95.44621 361.9875 95.63371Q362.15936 95.82121 362.15936 96.08684Q362.15936 96.33684 361.9875 96.52434Q361.83124 96.69621 361.51874 96.69621Q361.20624 96.69621 361.03436 96.52434Q360.8781 96.33684 360.8781 96.08684ZM367.5656 102.41496Q367.5656 101.97746 367.22186 101.74309Q366.89374 101.49309 366.0656 101.32121Q365.2531 101.14934 364.76874 100.89934Q364.28436 100.64934 364.05 100.32121Q363.83124 99.97746 363.83124 99.50871Q363.83124 98.72746 364.4875 98.19621Q365.14374 97.64934 366.175 97.64934Q367.2531 97.64934 367.90936 98.21184Q368.58124 98.75871 368.58124 99.61809L367.5031 99.61809Q367.5031 99.18059 367.1125 98.86809Q366.7375 98.53996 366.175 98.53996Q365.58124 98.53996 365.2375 98.80559Q364.90936 99.05559 364.90936 99.46184Q364.90936 99.85246 365.22186 100.05559Q365.53436 100.25871 366.34686 100.44621Q367.15936 100.61809 367.65936 100.86809Q368.15936 101.11809 368.39374 101.47746Q368.64374 101.83684 368.64374 102.33684Q368.64374 103.19621 367.95624 103.71184Q367.28436 104.22746 366.20624 104.22746Q365.4406 104.22746 364.84686 103.96184Q364.26874 103.68059 363.9406 103.19621Q363.6125 102.71184 363.6125 102.14934L364.6906 102.14934Q364.72186 102.69621 365.1281 103.02434Q365.53436 103.33684 366.20624 103.33684Q366.8156 103.33684 367.1906 103.08684Q367.5656 102.83684 367.5656 102.41496ZM370.95624 98.52434Q371.675 97.64934 372.83124 97.64934Q374.84686 97.64934 374.8625 99.91496L374.8625 104.10246L373.76874 104.10246L373.76874 99.89934Q373.76874 99.22746 373.45624 98.89934Q373.15936 98.57121 372.5031 98.57121Q371.97186 98.57121 371.5656 98.85246Q371.175 99.13371 370.95624 99.58684L370.95624 104.10246L369.8781 104.10246L369.8781 95.10246L370.95624 95.10246L370.95624 98.52434Z" fill-rule="nonzero"/><path fill="#9e9e9e" d="M348.33124 119.24309L349.51874 119.24309L349.51874 120.11809L348.33124 120.11809L348.33124 122.10246L347.2531 122.10246L347.2531 120.11809L343.3625 120.11809L343.3625 119.47746L347.175 113.57121L348.33124 113.57121L348.33124 119.24309ZM344.59686 119.24309L347.2531 119.24309L347.2531 115.05559L347.1125 115.28996L344.59686 119.24309ZM356.1125 118.46184Q356.1125 120.36809 355.45624 121.30559Q354.8156 122.22746 353.425 122.22746Q352.0656 122.22746 351.40936 121.32121Q350.7531 120.41496 350.72186 118.60246L350.72186 117.16496Q350.72186 115.27434 351.3625 114.36809Q352.01874 113.44621 353.40936 113.44621Q354.78436 113.44621 355.4406 114.33684Q356.09686 115.21184 356.1125 117.05559L356.1125 118.46184ZM355.01874 116.97746Q355.01874 115.60246 354.6281 114.97746Q354.2531 114.33684 353.40936 114.33684Q352.58124 114.33684 352.1906 114.97746Q351.8156 115.60246 351.8156 116.89934L351.8156 118.63371Q351.8156 120.00871 352.20624 120.68059Q352.6125 121.33684 353.425 121.33684Q354.22186 121.33684 354.6125 120.71184Q355.0031 120.08684 355.01874 118.75871L355.01874 116.97746ZM357.89374 121.53996Q357.89374 121.25871 358.05 121.07121Q358.22186 120.88371 358.55 120.88371Q358.89374 120.88371 359.0656 121.07121Q359.2375 121.25871 359.2375 121.53996Q359.2375 121.80559 359.0656 121.99309Q358.89374 122.16496 358.55 122.16496Q358.22186 122.16496 358.05 121.99309Q357.89374 121.80559 357.89374 121.53996ZM366.1125 118.46184Q366.1125 120.36809 365.45624 121.30559Q364.8156 122.22746 363.425 122.22746Q362.0656 122.22746 361.40936 121.32121Q360.7531 120.41496 360.72186 118.60246L360.72186 117.16496Q360.72186 115.27434 361.3625 114.36809Q362.01874 113.44621 363.40936 113.44621Q364.78436 113.44621 365.4406 114.33684Q366.09686 115.21184 366.1125 117.05559L366.1125 118.46184ZM365.01874 116.97746Q365.01874 115.60246 364.6281 114.97746Q364.2531 114.33684 363.40936 114.33684Q362.58124 114.33684 362.1906 114.97746Q361.8156 115.60246 361.8156 116.89934L361.8156 118.63371Q361.8156 120.00871 362.20624 120.68059Q362.6125 121.33684 363.425 121.33684Q364.22186 121.33684 364.6125 120.71184Q365.0031 120.08684 365.01874 118.75871L365.01874 116.97746ZM367.65936 115.21184Q367.65936 114.44621 368.14374 113.94621Q368.64374 113.44621 369.40936 113.44621Q370.1906 113.44621 370.675 113.94621Q371.15936 114.44621 371.15936 115.24309L371.15936 115.66496Q371.15936 116.43059 370.65936 116.93059Q370.175 117.41496 369.425 117.41496Q368.65936 117.41496 368.15936 116.93059Q367.65936 116.43059 367.65936 115.61809L367.65936 115.21184ZM368.47186 115.66496Q368.47186 116.11809 368.72186 116.41496Q368.9875 116.71184 369.425 116.71184Q369.84686 116.71184 370.09686 116.43059Q370.34686 116.13371 370.34686 115.63371L370.34686 115.21184Q370.34686 114.75871 370.09686 114.46184Q369.84686 114.14934 369.40936 114.14934Q368.97186 114.14934 368.72186 114.46184Q368.47186 114.75871 368.47186 115.22746L368.47186 115.66496ZM371.8156 120.00871Q371.8156 119.24309 372.3 118.75871Q372.8 118.25871 373.5656 118.25871Q374.33124 118.25871 374.8156 118.75871Q375.3156 119.24309 375.3156 120.05559L375.3156 120.46184Q375.3156 121.22746 374.83124 121.72746Q374.34686 122.22746 373.58124 122.22746Q372.8156 122.22746 372.3156 121.74309Q371.8156 121.24309 371.8156 120.43059L371.8156 120.00871ZM372.6281 120.46184Q372.6281 120.93059 372.8781 121.22746Q373.14374 121.52434 373.58124 121.52434Q374.0031 121.52434 374.2531 121.24309Q374.5031 120.94621 374.5031 120.44621L374.5031 120.00871Q374.5031 119.53996 374.2375 119.25871Q373.9875 118.96184 373.5656 118.96184Q373.14374 118.96184 372.8781 119.25871Q372.6281 119.53996 372.6281 120.03996L372.6281 120.46184ZM369.675 121.46184L369.05 121.07121L373.22186 114.39934L373.83124 114.78996L369.675 121.46184Z" fill-rule="nonzero"/><path stroke="#757575" stroke-width="1.0" stroke-linecap="butt" d="M376.05 108.60246L291.56668 108.60246L276.73083 108.60246" fill-rule="nonzero"/><path fill="#9e9e9e" d="M278.73083 108.60246C278.73083 107.497894 277.8354 106.60246 276.73083 106.60246C275.62625 106.60246 274.73083 107.497894 274.73083 108.60246C274.73083 109.70703 275.62625 110.60246 276.73083 110.60246C277.8354 110.60246 278.73083 109.70703 278.73083 108.60246" fill-rule="nonzero"/><path fill="#757575" d="M349.7531 203.81563L346.175 203.81563L345.3781 206.05L344.22186 206.05L347.47186 197.51875L348.45624 197.51875L351.72186 206.05L350.5656 206.05L349.7531 203.81563ZM346.51874 202.89375L349.425 202.89375L347.97186 198.90938L346.51874 202.89375ZM354.05 206.05L352.97186 206.05L352.97186 197.05L354.05 197.05L354.05 206.05ZM358.5031 206.175Q357.20624 206.175 356.39374 205.33125Q355.59686 204.47188 355.59686 203.05L355.59686 202.8625Q355.59686 201.90938 355.95624 201.175Q356.3156 200.425 356.95624 200.01875Q357.6125 199.59688 358.3625 199.59688Q359.59686 199.59688 360.28436 200.40938Q360.97186 201.22188 360.97186 202.7375L360.97186 203.19063L356.675 203.19063Q356.70624 204.12813 357.22186 204.70625Q357.7531 205.28438 358.5656 205.28438Q359.1281 205.28438 359.51874 205.05Q359.925 204.81563 360.2375 204.425L360.89374 204.94063Q360.09686 206.175 358.5031 206.175ZM358.3625 200.4875Q357.70624 200.4875 357.2531 200.97188Q356.8156 201.44063 356.72186 202.3L359.89374 202.3L359.89374 202.22188Q359.84686 201.39375 359.4406 200.94063Q359.05 200.4875 358.3625 200.4875ZM364.0031 202.01875L365.40936 199.70625L366.675 199.70625L364.59686 202.84688L366.7375 206.05L365.4875 206.05L364.01874 203.675L362.55 206.05L361.28436 206.05L363.425 202.84688L361.3625 199.70625L362.6125 199.70625L364.0031 202.01875ZM369.05 206.05L367.97186 206.05L367.97186 199.70625L369.05 199.70625L369.05 206.05ZM367.8781 198.03438Q367.8781 197.76875 368.03436 197.58125Q368.20624 197.39375 368.51874 197.39375Q368.83124 197.39375 368.9875 197.58125Q369.15936 197.76875 369.15936 198.03438Q369.15936 198.28438 368.9875 198.47188Q368.83124 198.64375 368.51874 198.64375Q368.20624 198.64375 368.03436 198.47188Q367.8781 198.28438 367.8781 198.03438ZM374.5656 204.3625Q374.5656 203.925 374.22186 203.69063Q373.89374 203.44063 373.0656 203.26875Q372.2531 203.09688 371.76874 202.84688Q371.28436 202.59688 371.05 202.26875Q370.83124 201.925 370.83124 201.45625Q370.83124 200.675 371.4875 200.14375Q372.14374 199.59688 373.175 199.59688Q374.2531 199.59688 374.90936 200.15938Q375.58124 200.70625 375.58124 201.56563L374.5031 201.56563Q374.5031 201.12813 374.1125 200.81563Q373.7375 200.4875 373.175 200.4875Q372.58124 200.4875 372.2375 200.75313Q371.90936 201.00313 371.90936 201.40938Q371.90936 201.8 372.22186 202.00313Q372.53436 202.20625 373.34686 202.39375Q374.15936 202.56563 374.65936 202.81563Q375.15936 203.06563 375.39374 203.425Q375.64374 203.78438 375.64374 204.28438Q375.64374 205.14375 374.95624 205.65938Q374.28436 206.175 373.20624 206.175Q372.4406 206.175 371.84686 205.90938Q371.26874 205.62813 370.9406 205.14375Q370.6125 204.65938 370.6125 204.09688L371.6906 204.09688Q371.72186 204.64375 372.1281 204.97188Q372.53436 205.28438 373.20624 205.28438Q373.8156 205.28438 374.1906 205.03438Q374.5656 204.78438 374.5656 204.3625Z" fill-rule="nonzero"/><path fill="#9e9e9e" d="M349.34686 224.05L343.7531 224.05L343.7531 223.26875L346.70624 219.9875Q347.3625 219.2375 347.6125 218.78438Q347.8625 218.31563 347.8625 217.81563Q347.8625 217.14375 347.45624 216.72188Q347.0656 216.28438 346.3781 216.28438Q345.58124 216.28438 345.1281 216.75313Q344.675 217.20625 344.675 218.03438L343.59686 218.03438Q343.59686 216.84688 344.34686 216.12813Q345.1125 215.39375 346.3781 215.39375Q347.58124 215.39375 348.26874 216.01875Q348.95624 216.64375 348.95624 217.69063Q348.95624 218.94063 347.34686 220.69063L345.0656 223.15938L349.34686 223.15938L349.34686 224.05ZM356.1125 220.40938Q356.1125 222.31563 355.45624 223.25313Q354.8156 224.175 353.425 224.175Q352.0656 224.175 351.40936 223.26875Q350.7531 222.3625 350.72186 220.55L350.72186 219.1125Q350.72186 217.22188 351.3625 216.31563Q352.01874 215.39375 353.40936 215.39375Q354.78436 215.39375 355.4406 216.28438Q356.09686 217.15938 356.1125 219.00313L356.1125 220.40938ZM355.01874 218.925Q355.01874 217.55 354.6281 216.925Q354.2531 216.28438 353.40936 216.28438Q352.58124 216.28438 352.1906 216.925Q351.8156 217.55 351.8156 218.84688L351.8156 220.58125Q351.8156 221.95625 352.20624 222.62813Q352.6125 223.28438 353.425 223.28438Q354.22186 223.28438 354.6125 222.65938Q355.0031 222.03438 355.01874 220.70625L355.01874 218.925ZM357.89374 223.4875Q357.89374 223.20625 358.05 223.01875Q358.22186 222.83125 358.55 222.83125Q358.89374 222.83125 359.0656 223.01875Q359.2375 223.20625 359.2375 223.4875Q359.2375 223.75313 359.0656 223.94063Q358.89374 224.1125 358.55 224.1125Q358.22186 224.1125 358.05 223.94063Q357.89374 223.75313 357.89374 223.4875ZM366.1125 220.40938Q366.1125 222.31563 365.45624 223.25313Q364.8156 224.175 363.425 224.175Q362.0656 224.175 361.40936 223.26875Q360.7531 222.3625 360.72186 220.55L360.72186 219.1125Q360.72186 217.22188 361.3625 216.31563Q362.01874 215.39375 363.40936 215.39375Q364.78436 215.39375 365.4406 216.28438Q366.09686 217.15938 366.1125 219.00313L366.1125 220.40938ZM365.01874 218.925Q365.01874 217.55 364.6281 216.925Q364.2531 216.28438 363.40936 216.28438Q362.58124 216.28438 362.1906 216.925Q361.8156 217.55 361.8156 218.84688L361.8156 220.58125Q361.8156 221.95625 362.20624 222.62813Q362.6125 223.28438 363.425 223.28438Q364.22186 223.28438 364.6125 222.65938Q365.0031 222.03438 365.01874 220.70625L365.01874 218.925ZM367.65936 217.15938Q367.65936 216.39375 368.14374 215.89375Q368.64374 215.39375 369.40936 215.39375Q370.1906 215.39375 370.675 215.89375Q371.15936 216.39375 371.15936 217.19063L371.15936 217.6125Q371.15936 218.37813 370.65936 218.87813Q370.175 219.3625 369.425 219.3625Q368.65936 219.3625 368.15936 218.87813Q367.65936 218.37813 367.65936 217.56563L367.65936 217.15938ZM368.47186 217.6125Q368.47186 218.06563 368.72186 218.3625Q368.9875 218.65938 369.425 218.65938Q369.84686 218.65938 370.09686 218.37813Q370.34686 218.08125 370.34686 217.58125L370.34686 217.15938Q370.34686 216.70625 370.09686 216.40938Q369.84686 216.09688 369.40936 216.09688Q368.97186 216.09688 368.72186 216.40938Q368.47186 216.70625 368.47186 217.175L368.47186 217.6125ZM371.8156 221.95625Q371.8156 221.19063 372.3 220.70625Q372.8 220.20625 373.5656 220.20625Q374.33124 220.20625 374.8156 220.70625Q375.3156 221.19063 375.3156 222.00313L375.3156 222.40938Q375.3156 223.175 374.83124 223.675Q374.34686 224.175 373.58124 224.175Q372.8156 224.175 372.3156 223.69063Q371.8156 223.19063 371.8156 222.37813L371.8156 221.95625ZM372.6281 222.40938Q372.6281 222.87813 372.8781 223.175Q373.14374 223.47188 373.58124 223.47188Q374.0031 223.47188 374.2531 223.19063Q374.5031 222.89375 374.5031 222.39375L374.5031 221.95625Q374.5031 221.4875 374.2375 221.20625Q373.9875 220.90938 373.5656 220.90938Q373.14374 220.90938 372.8781 221.20625Q372.6281 221.4875 372.6281 221.9875L372.6281 222.40938ZM369.675 223.40938L369.05 223.01875L373.22186 216.34688L373.83124 216.7375L369.675 223.40938Z" fill-rule="nonzero"/><path stroke="#757575" stroke-width="1.0" stroke-linecap="butt" d="M376.05 210.55L291.56668 210.55L194.0 222.47166" fill-rule="nonzero"/><path fill="#9e9e9e" d="M196.0 222.47166C196.0 221.3671 195.10457 220.47166 194.0 220.47166C192.89543 220.47166 192.0 221.3671 192.0 222.47166C192.0 223.57623 192.89543 224.47166 194.0 224.47166C195.10457 224.47166 196.0 223.57623 196.0 222.47166" fill-rule="nonzero"/><path fill="#757575" d="M22.66875 28.465626L24.7 20.3875L26.5125 20.3875L23.434376 30.95L21.965626 30.95L19.403126 22.934376L16.903126 30.95L15.434375 30.95L12.371875 20.3875L14.16875 20.3875L16.246876 28.29375L18.715626 20.3875L20.16875 20.3875L22.66875 28.465626ZM32.7 31.153126Q30.559376 31.153126 29.2 29.746876Q27.85625 28.325 27.85625 25.965626L27.85625 25.621876Q27.85625 24.059376 28.45 22.825Q29.059376 21.590626 30.1375 20.8875Q31.215626 20.184376 32.48125 20.184376Q34.54375 20.184376 35.684376 21.54375Q36.825 22.903126 36.825 25.434376L36.825 26.184376L29.66875 26.184376Q29.7 27.746876 30.575 28.715626Q31.45 29.66875 32.79375 29.66875Q33.7625 29.66875 34.41875 29.278126Q35.090626 28.8875 35.590626 28.246876L36.684376 29.10625Q35.35625 31.153126 32.7 31.153126ZM32.48125 21.66875Q31.3875 21.66875 30.6375 22.465626Q29.903126 23.2625 29.73125 24.7L35.0125 24.7L35.0125 24.559376Q34.934376 23.184376 34.2625 22.434376Q33.60625 21.66875 32.48125 21.66875ZM43.7 31.153126Q41.559376 31.153126 40.2 29.746876Q38.85625 28.325 38.85625 25.965626L38.85625 25.621876Q38.85625 24.059376 39.45 22.825Q40.059376 21.590626 41.1375 20.8875Q42.215626 20.184376 43.48125 20.184376Q45.54375 20.184376 46.684376 21.54375Q47.825 22.903126 47.825 25.434376L47.825 26.184376L40.66875 26.184376Q40.7 27.746876 41.575 28.715626Q42.45 29.66875 43.79375 29.66875Q44.7625 29.66875 45.41875 29.278126Q46.090626 28.8875 46.590626 28.246876L47.684376 29.10625Q46.35625 31.153126 43.7 31.153126ZM43.48125 21.66875Q42.3875 21.66875 41.6375 22.465626Q40.903126 23.2625 40.73125 24.7L46.0125 24.7L46.0125 24.559376Q45.934376 23.184376 45.2625 22.434376Q44.60625 21.66875 43.48125 21.66875ZM53.2625 26.059376L52.1375 27.23125L52.1375 30.95L50.325 30.95L50.325 15.950001L52.1375 15.950001L52.1375 25.028126L53.10625 23.85625L56.3875 20.3875L58.590626 20.3875L54.48125 24.79375L59.075 30.95L56.95 30.95L53.2625 26.059376ZM62.278126 30.95L60.48125 30.95L60.48125 15.950001L62.278126 15.950001L62.278126 30.95ZM68.77812 28.309376L71.23125 20.3875L73.16875 20.3875L68.91875 32.575Q67.93437 35.215626 65.79375 35.215626L65.45 35.184376L64.77812 35.059376L64.77812 33.590626L65.2625 33.6375Q66.18437 33.6375 66.68437 33.2625Q67.2 32.8875 67.52812 31.903126L67.93437 30.825L64.16875 20.3875L66.1375 20.3875L68.77812 28.309376ZM88.66875 28.465626L90.7 20.3875L92.5125 20.3875L89.43437 30.95L87.96562 30.95L85.40312 22.934376L82.90312 30.95L81.43437 30.95L78.37187 20.3875L80.16875 20.3875L82.24687 28.29375L84.71562 20.3875L86.16875 20.3875L88.66875 28.465626ZM96.27812 30.95L94.48125 30.95L94.48125 20.3875L96.27812 20.3875L96.27812 30.95ZM94.325 17.575Q94.325 17.1375 94.59062 16.840626Q94.87187 16.528126 95.3875 16.528126Q95.91875 16.528126 96.18437 16.840626Q96.46562 17.1375 96.46562 17.575Q96.46562 18.0125 96.18437 18.309376Q95.91875 18.60625 95.3875 18.60625Q94.87187 18.60625 94.59062 18.309376Q94.325 18.0125 94.325 17.575ZM101.02812 20.3875L101.09062 21.715626Q102.29375 20.184376 104.24687 20.184376Q107.60625 20.184376 107.62187 23.965626L107.62187 30.95L105.825 30.95L105.825 23.95Q105.80937 22.809376 105.29375 22.2625Q104.79375 21.715626 103.7 21.715626Q102.825 21.715626 102.15312 22.184376Q101.49687 22.653126 101.12187 23.41875L101.12187 30.95L99.325 30.95L99.325 20.3875L101.02812 20.3875ZM112.02812 20.3875L112.09062 21.715626Q113.29375 20.184376 115.24687 20.184376Q118.60625 20.184376 118.62187 23.965626L118.62187 30.95L116.825 30.95L116.825 23.95Q116.80937 22.809376 116.29375 22.2625Q115.79375 21.715626 114.7 21.715626Q113.825 21.715626 113.15312 22.184376Q112.49687 22.653126 112.12187 23.41875L112.12187 30.95L110.325 30.95L110.325 20.3875L112.02812 20.3875ZM123.27812 30.95L121.48125 30.95L121.48125 20.3875L123.27812 20.3875L123.27812 30.95ZM121.325 17.575Q121.325 17.1375 121.59062 16.840626Q121.87187 16.528126 122.3875 16.528126Q122.91875 16.528126 123.18437 16.840626Q123.46562 17.1375 123.46562 17.575Q123.46562 18.0125 123.18437 18.309376Q122.91875 18.60625 122.3875 18.60625Q121.87187 18.60625 121.59062 18.309376Q121.325 18.0125 121.325 17.575ZM128.02812 20.3875L128.09062 21.715626Q129.29375 20.184376 131.24687 20.184376Q134.60625 20.184376 134.62187 23.965626L134.62187 30.95L132.825 30.95L132.825 23.95Q132.80937 22.809376 132.29375 22.2625Q131.79375 21.715626 130.7 21.715626Q129.825 21.715626 129.15312 22.184376Q128.49687 22.653126 128.12187 23.41875L128.12187 30.95L126.325 30.95L126.325 20.3875L128.02812 20.3875ZM136.8875 25.575Q136.8875 23.10625 138.02812 21.653126Q139.16875 20.184376 141.05937 20.184376Q142.99687 20.184376 144.075 21.559376L144.16875 20.3875L145.80937 20.3875L145.80937 30.7Q145.80937 32.746876 144.59062 33.91875Q143.3875 35.10625 141.325 35.10625Q140.18437 35.10625 139.09062 34.621876Q137.99687 34.1375 137.41875 33.278126L138.35625 32.2Q139.52812 33.6375 141.2 33.6375Q142.52812 33.6375 143.2625 32.8875Q143.99687 32.153126 143.99687 30.809376L143.99687 29.8875Q142.91875 31.153126 141.04375 31.153126Q139.18437 31.153126 138.02812 29.653126Q136.8875 28.153126 136.8875 25.575ZM138.7 25.778126Q138.7 27.575 139.43437 28.590626Q140.16875 29.60625 141.48125 29.60625Q143.2 29.60625 143.99687 28.059376L143.99687 23.23125Q143.16875 21.715626 141.5125 21.715626Q140.18437 21.715626 139.43437 22.746876Q138.7 23.778126 138.7 25.778126ZM158.41875 21.996876Q158.0125 21.934376 157.54375 21.934376Q155.7625 21.934376 155.12187 23.45L155.12187 30.95L153.325 30.95L153.325 20.3875L155.075 20.3875L155.10625 21.60625Q155.99687 20.184376 157.62187 20.184376Q158.15312 20.184376 158.41875 20.325L158.41875 21.996876ZM166.84062 30.95Q166.68437 30.6375 166.59062 29.840626Q165.325 31.153126 163.575 31.153126Q162.0125 31.153126 161.0125 30.2625Q160.0125 29.371876 160.0125 28.0125Q160.0125 26.371876 161.2625 25.465626Q162.52812 24.54375 164.79375 24.54375L166.55937 24.54375L166.55937 23.715626Q166.55937 22.7625 165.98125 22.2Q165.41875 21.6375 164.325 21.6375Q163.35625 21.6375 162.7 22.1375Q162.04375 22.621876 162.04375 23.309376L160.23125 23.309376Q160.23125 22.528126 160.79375 21.79375Q161.35625 21.04375 162.30937 20.621876Q163.27812 20.184376 164.43437 20.184376Q166.2625 20.184376 167.29375 21.10625Q168.325 22.0125 168.37187 23.621876L168.37187 28.48125Q168.37187 29.934376 168.73125 30.79375L168.73125 30.95L166.84062 30.95ZM163.84062 29.575Q164.7 29.575 165.45 29.1375Q166.21562 28.7 166.55937 27.996876L166.55937 25.825L165.1375 25.825Q161.825 25.825 161.825 27.7625Q161.825 28.621876 162.3875 29.10625Q162.95 29.575 163.84062 29.575ZM173.7625 17.825L173.7625 20.3875L175.74687 20.3875L175.74687 21.778126L173.7625 21.778126L173.7625 28.325Q173.7625 28.965626 174.02812 29.29375Q174.29375 29.60625 174.93437 29.60625Q175.24687 29.60625 175.79375 29.48125L175.79375 30.95Q175.075 31.153126 174.40312 31.153126Q173.2 31.153126 172.575 30.41875Q171.96562 29.684376 171.96562 28.325L171.96562 21.778126L170.04375 21.778126L170.04375 20.3875L171.96562 20.3875L171.96562 17.825L173.7625 17.825ZM180.27812 30.95L178.48125 30.95L178.48125 20.3875L180.27812 20.3875L180.27812 30.95ZM178.325 17.575Q178.325 17.1375 178.59062 16.840626Q178.87187 16.528126 179.3875 16.528126Q179.91875 16.528126 180.18437 16.840626Q180.46562 17.1375 180.46562 17.575Q180.46562 18.0125 180.18437 18.309376Q179.91875 18.60625 179.3875 18.60625Q178.87187 18.60625 178.59062 18.309376Q178.325 18.0125 178.325 17.575ZM182.84062 25.575Q182.84062 24.0125 183.45 22.778126Q184.05937 21.528126 185.1375 20.85625Q186.23125 20.184376 187.6375 20.184376Q189.79375 20.184376 191.12187 21.684376Q192.46562 23.16875 192.46562 25.653126L192.46562 25.778126Q192.46562 27.325 191.87187 28.559376Q191.27812 29.778126 190.16875 30.465626Q189.075 31.153126 187.65312 31.153126Q185.5125 31.153126 184.16875 29.653126Q182.84062 28.153126 182.84062 25.7L182.84062 25.575ZM184.65312 25.778126Q184.65312 27.54375 185.46562 28.60625Q186.29375 29.66875 187.65312 29.66875Q189.02812 29.66875 189.84062 28.590626Q190.65312 27.5125 190.65312 25.575Q190.65312 23.825 189.825 22.746876Q188.99687 21.66875 187.6375 21.66875Q186.29375 21.66875 185.46562 22.73125Q184.65312 23.79375 184.65312 25.778126Z" fill-rule="nonzero"/></svg>