<svg version="1.1" viewBox="0.0 0.0 388.0 239.0" fill="none" stroke="none" stroke-linecap="square" stroke-miterlimit="10" width="388" height="239" xmlns:xlink="http://www.w3.org/1999/xlink" xmlns="http://www.w3.org/2000/svg"><path fill="#ffffff" d="M0 0L388.0 0L388.0 239.0L0 239.0L0 0Z" fill-rule="nonzero"/><path fill="#ffd966" d="M194.0 43.916668C244.57088 43.916668 285.56668 84.91246 285.56668 135.48334L194.0 135.48334Z" fill-rule="nonzero"/><path fill="#db4437" d="M285.56668 135.48334C285.56668 186.05421 244.57088 227.05 194.0 227.05L194.0 135.48334Z" fill-rule="nonzero"/><path fill="#0f9d58" d="M102.433334 135.48334C102.433334 84.91246 143.42912 43.916668 194.0 43.916668L194.0 135.48334Z" fill-rule="nonzero"/><path fill="#f4b400" d="M194.0 227.05C143.42912 227.05 102.433334 186.05421 102.433334 135.48334L194.0 135.48334Z" fill-rule="nonzero"/><path fill="#757575" d="M17.653126 65.707664L14.059375 65.707664L14.059375 69.47329L12.934375 69.47329L12.934375 60.94204L18.23125 60.94204L18.23125 61.863914L14.059375 61.863914L14.059375 64.78579L17.653126 64.78579L17.653126 65.707664ZM22.403126 69.59829Q21.10625 69.59829 20.29375 68.75454Q19.496876 67.895164 19.496876 66.47329L19.496876 66.28579Q19.496876 65.332664 19.85625 64.59829Q20.215626 63.84829 20.85625 63.44204Q21.5125 63.020164 22.2625 63.020164Q23.496876 63.020164 24.184376 63.832664Q24.871876 64.645164 24.871876 66.16079L24.871876 66.613914L20.575 66.613914Q20.60625 67.551414 21.121876 68.12954Q21.653126 68.707664 22.465626 68.707664Q23.028126 68.707664 23.41875 68.47329Q23.825 68.238914 24.1375 67.84829L24.79375 68.363914Q23.996876 69.59829 22.403126 69.59829ZM22.2625 63.91079Q21.60625 63.91079 21.153126 64.395164Q20.715626 64.863914 20.621876 65.72329L23.79375 65.72329L23.79375 65.645164Q23.746876 64.81704 23.340626 64.363914Q22.95 63.91079 22.2625 63.91079ZM22.809376 60.47329L24.121876 60.47329L22.54375 62.19204L21.66875 62.19204L22.809376 60.47329ZM26.95 69.47329L25.871876 69.47329L25.871876 60.47329L26.95 60.47329L26.95 69.47329ZM29.95 69.47329L28.871876 69.47329L28.871876 63.12954L29.95 63.12954L29.95 69.47329ZM28.778126 61.457664Q28.778126 61.19204 28.934376 61.00454Q29.10625 60.81704 29.41875 60.81704Q29.73125 60.81704 29.8875 61.00454Q30.059376 61.19204 30.059376 61.457664Q30.059376 61.707664 29.8875 61.895164Q29.73125 62.06704 29.41875 62.06704Q29.10625 62.06704 28.934376 61.895164Q28.778126 61.707664 28.778126 61.457664ZM33.903126 65.44204L35.309376 63.12954L36.575 63.12954L34.496876 66.270164L36.6375 69.47329L35.3875 69.47329L33.91875 67.09829L32.45 69.47329L31.184376 69.47329L33.325 66.270164L31.2625 63.12954L32.5125 63.12954L33.903126 65.44204Z" fill-rule="nonzero"/><path fill="#9e9e9e" d="M18.246876 87.47329L12.653125 87.47329L12.653125 86.69204L15.60625 83.41079Q16.2625 82.66079 16.5125 82.207664Q16.7625 81.738914 16.7625 81.238914Q16.7625 80.56704 16.35625 80.145164Q15.965625 79.707664 15.278125 79.707664Q14.48125 79.707664 14.028125 80.176414Q13.575 80.62954 13.575 81.457664L12.496875 81.457664Q12.496875 80.270164 13.246875 79.551414Q14.0125 78.81704 15.278125 78.81704Q16.48125 78.81704 17.16875 79.44204Q17.85625 80.06704 17.85625 81.113914Q17.85625 82.363914 16.246876 84.113914L13.965625 86.582664L18.246876 86.582664L18.246876 87.47329ZM20.153126 83.19204L20.590626 78.94204L24.965626 78.94204L24.965626 79.94204L21.5125 79.94204L21.246876 82.270164Q21.8875 81.895164 22.684376 81.895164Q23.840626 81.895164 24.528126 82.676414Q25.215626 83.44204 25.215626 84.75454Q25.215626 86.06704 24.496876 86.832664Q23.79375 87.59829 22.5125 87.59829Q21.3875 87.59829 20.66875 86.97329Q19.95 86.332664 19.85625 85.22329L20.871876 85.22329Q20.98125 85.957664 21.403126 86.332664Q21.825 86.707664 22.5125 86.707664Q23.2625 86.707664 23.7 86.19204Q24.1375 85.676414 24.1375 84.770164Q24.1375 83.91079 23.66875 83.395164Q23.2 82.87954 22.41875 82.87954Q21.715626 82.87954 21.309376 83.176414L21.028126 83.41079L20.153126 83.19204ZM26.79375 86.91079Q26.79375 86.62954 26.95 86.44204Q27.121876 86.25454 27.45 86.25454Q27.79375 86.25454 27.965626 86.44204Q28.1375 86.62954 28.1375 86.91079Q28.1375 87.176414 27.965626 87.363914Q27.79375 87.53579 27.45 87.53579Q27.121876 87.53579 26.95 87.363914Q26.79375 87.176414 26.79375 86.91079ZM35.0125 83.832664Q35.0125 85.738914 34.35625 86.676414Q33.715626 87.59829 32.325 87.59829Q30.965626 87.59829 30.309376 86.69204Q29.653126 85.78579 29.621876 83.97329L29.621876 82.53579Q29.621876 80.645164 30.2625 79.738914Q30.91875 78.81704 32.309376 78.81704Q33.684376 78.81704 34.340626 79.707664Q34.996876 80.582664 35.0125 82.426414L35.0125 83.832664ZM33.91875 82.34829Q33.91875 80.97329 33.528126 80.34829Q33.153126 79.707664 32.309376 79.707664Q31.48125 79.707664 31.090626 80.34829Q30.715626 80.97329 30.715626 82.270164L30.715626 84.00454Q30.715626 85.37954 31.10625 86.051414Q31.5125 86.707664 32.325 86.707664Q33.121876 86.707664 33.5125 86.082664Q33.903126 85.457664 33.91875 84.12954L33.91875 82.34829ZM36.559376 80.582664Q36.559376 79.81704 37.04375 79.31704Q37.54375 78.81704 38.309376 78.81704Q39.090626 78.81704 39.575 79.31704Q40.059376 79.81704 40.059376 80.613914L40.059376 81.03579Q40.059376 81.801414 39.559376 82.301414Q39.075 82.78579 38.325 82.78579Q37.559376 82.78579 37.059376 82.301414Q36.559376 81.801414 36.559376 80.988914L36.559376 80.582664ZM37.371876 81.03579Q37.371876 81.488914 37.621876 81.78579Q37.8875 82.082664 38.325 82.082664Q38.746876 82.082664 38.996876 81.801414Q39.246876 81.50454 39.246876 81.00454L39.246876 80.582664Q39.246876 80.12954 38.996876 79.832664Q38.746876 79.520164 38.309376 79.520164Q37.871876 79.520164 37.621876 79.832664Q37.371876 80.12954 37.371876 80.59829L37.371876 81.03579ZM40.715626 85.37954Q40.715626 84.613914 41.2 84.12954Q41.7 83.62954 42.465626 83.62954Q43.23125 83.62954 43.715626 84.12954Q44.215626 84.613914 44.215626 85.426414L44.215626 85.832664Q44.215626 86.59829 43.73125 87.09829Q43.246876 87.59829 42.48125 87.59829Q41.715626 87.59829 41.215626 87.113914Q40.715626 86.613914 40.715626 85.801414L40.715626 85.37954ZM41.528126 85.832664Q41.528126 86.301414 41.778126 86.59829Q42.04375 86.895164 42.48125 86.895164Q42.903126 86.895164 43.153126 86.613914Q43.403126 86.31704 43.403126 85.81704L43.403126 85.37954Q43.403126 84.91079 43.1375 84.62954Q42.8875 84.332664 42.465626 84.332664Q42.04375 84.332664 41.778126 84.62954Q41.528126 84.91079 41.528126 85.41079L41.528126 85.832664ZM38.575 86.832664L37.95 86.44204L42.121876 79.770164L42.73125 80.16079L38.575 86.832664Z" fill-rule="nonzero"/><path stroke="#757575" stroke-width="1.0" stroke-linecap="butt" d="M11.95 73.97329L96.433334 73.97329L132.48996 73.97329" fill-rule="nonzero"/><path fill="#9e9e9e" d="M134.48996 73.97329C134.48996 72.86872 133.59453 71.97329 132.48996 71.97329C131.38539 71.97329 130.48996 72.86872 130.48996 73.97329C130.48996 75.077866 131.38539 75.97329 132.48996 75.97329C133.59453 75.97329 134.48996 75.077866 134.48996 73.97329" fill-rule="nonzero"/><path fill="#757575" d="M19.246876 191.36838Q18.809376 191.99338 18.028126 192.30588Q17.246876 192.61838 16.215626 192.61838Q15.184375 192.61838 14.371875 192.134Q13.559375 191.634 13.121875 190.72775Q12.684375 189.8215 12.66875 188.634L12.66875 187.89963Q12.66875 185.96213 13.559375 184.89963Q14.465625 183.83713 16.090626 183.83713Q17.434376 183.83713 18.246876 184.52463Q19.059376 185.21213 19.246876 186.46213L18.121876 186.46213Q17.79375 184.77463 16.10625 184.77463Q14.965625 184.77463 14.3875 185.5715Q13.809375 186.35275 13.79375 187.86838L13.79375 188.55588Q13.79375 189.99338 14.45 190.85275Q15.10625 191.6965 16.23125 191.6965Q16.85625 191.6965 17.325 191.55588Q17.809376 191.41525 18.121876 191.0715L18.121876 189.16525L16.153126 189.16525L16.153126 188.24338L19.246876 188.24338L19.246876 191.36838ZM24.684376 191.86838Q24.059376 192.61838 22.825 192.61838Q21.809376 192.61838 21.278126 192.02463Q20.746876 191.43088 20.746876 190.27463L20.746876 186.14963L21.825 186.14963L21.825 190.24338Q21.825 191.6965 22.996876 191.6965Q24.246876 191.6965 24.653126 190.759L24.653126 186.14963L25.746876 186.14963L25.746876 192.49338L24.715626 192.49338L24.684376 191.86838ZM28.95 192.49338L27.871876 192.49338L27.871876 186.14963L28.95 186.14963L28.95 192.49338ZM27.778126 184.47775Q27.778126 184.21213 27.934376 184.02463Q28.10625 183.83713 28.41875 183.83713Q28.73125 183.83713 28.8875 184.02463Q29.059376 184.21213 29.059376 184.47775Q29.059376 184.72775 28.8875 184.91525Q28.73125 185.08713 28.41875 185.08713Q28.10625 185.08713 27.934376 184.91525Q27.778126 184.72775 27.778126 184.47775ZM30.5125 189.27463Q30.5125 187.80588 31.2 186.93088Q31.8875 186.04025 33.0125 186.04025Q34.121876 186.04025 34.778126 186.79025L34.778126 183.49338L35.85625 183.49338L35.85625 192.49338L34.85625 192.49338L34.809376 191.80588Q34.153126 192.61838 32.996876 192.61838Q31.903126 192.61838 31.2 191.71213Q30.5125 190.80588 30.5125 189.35275L30.5125 189.27463ZM31.590626 189.39963Q31.590626 190.47775 32.028126 191.08713Q32.48125 191.6965 33.2625 191.6965Q34.29375 191.6965 34.778126 190.759L34.778126 187.85275Q34.29375 186.96213 33.278126 186.96213Q32.48125 186.96213 32.028126 187.5715Q31.590626 188.18088 31.590626 189.39963ZM37.48125 189.259Q37.48125 188.33713 37.840626 187.58713Q38.215626 186.83713 38.871876 186.4465Q39.528126 186.04025 40.35625 186.04025Q41.653126 186.04025 42.45 186.93088Q43.2625 187.8215 43.2625 189.3215L43.2625 189.39963Q43.2625 190.3215 42.903126 191.05588Q42.54375 191.79025 41.8875 192.21213Q41.23125 192.61838 40.371876 192.61838Q39.090626 192.61838 38.278126 191.72775Q37.48125 190.8215 37.48125 189.33713L37.48125 189.259ZM38.575 189.39963Q38.575 190.4465 39.059376 191.08713Q39.559376 191.72775 40.371876 191.72775Q41.2 191.72775 41.684376 191.08713Q42.16875 190.43088 42.16875 189.259Q42.16875 188.22775 41.66875 187.58713Q41.184376 186.93088 40.35625 186.93088Q39.559376 186.93088 39.059376 187.5715Q38.575 188.1965 38.575 189.39963Z" fill-rule="nonzero"/><path fill="#9e9e9e" d="M18.246876 210.49338L12.653125 210.49338L12.653125 209.71213L15.60625 206.43088Q16.2625 205.68088 16.5125 205.22775Q16.7625 204.759 16.7625 204.259Q16.7625 203.58713 16.35625 203.16525Q15.965625 202.72775 15.278125 202.72775Q14.48125 202.72775 14.028125 203.1965Q13.575 203.64963 13.575 204.47775L12.496875 204.47775Q12.496875 203.29025 13.246875 202.5715Q14.0125 201.83713 15.278125 201.83713Q16.48125 201.83713 17.16875 202.46213Q17.85625 203.08713 17.85625 204.134Q17.85625 205.384 16.246876 207.134L13.965625 209.60275L18.246876 209.60275L18.246876 210.49338ZM20.153126 206.21213L20.590626 201.96213L24.965626 201.96213L24.965626 202.96213L21.5125 202.96213L21.246876 205.29025Q21.8875 204.91525 22.684376 204.91525Q23.840626 204.91525 24.528126 205.6965Q25.215626 206.46213 25.215626 207.77463Q25.215626 209.08713 24.496876 209.85275Q23.79375 210.61838 22.5125 210.61838Q21.3875 210.61838 20.66875 209.99338Q19.95 209.35275 19.85625 208.24338L20.871876 208.24338Q20.98125 208.97775 21.403126 209.35275Q21.825 209.72775 22.5125 209.72775Q23.2625 209.72775 23.7 209.21213Q24.1375 208.6965 24.1375 207.79025Q24.1375 206.93088 23.66875 206.41525Q23.2 205.89963 22.41875 205.89963Q21.715626 205.89963 21.309376 206.1965L21.028126 206.43088L20.153126 206.21213ZM26.79375 209.93088Q26.79375 209.64963 26.95 209.46213Q27.121876 209.27463 27.45 209.27463Q27.79375 209.27463 27.965626 209.46213Q28.1375 209.64963 28.1375 209.93088Q28.1375 210.1965 27.965626 210.384Q27.79375 210.55588 27.45 210.55588Q27.121876 210.55588 26.95 210.384Q26.79375 210.1965 26.79375 209.93088ZM35.0125 206.85275Q35.0125 208.759 34.35625 209.6965Q33.715626 210.61838 32.325 210.61838Q30.965626 210.61838 30.309376 209.71213Q29.653126 208.80588 29.621876 206.99338L29.621876 205.55588Q29.621876 203.66525 30.2625 202.759Q30.91875 201.83713 32.309376 201.83713Q33.684376 201.83713 34.340626 202.72775Q34.996876 203.60275 35.0125 205.4465L35.0125 206.85275ZM33.91875 205.36838Q33.91875 203.99338 33.528126 203.36838Q33.153126 202.72775 32.309376 202.72775Q31.48125 202.72775 31.090626 203.36838Q30.715626 203.99338 30.715626 205.29025L30.715626 207.02463Q30.715626 208.39963 31.10625 209.0715Q31.5125 209.72775 32.325 209.72775Q33.121876 209.72775 33.5125 209.10275Q33.903126 208.47775 33.91875 207.14963L33.91875 205.36838ZM36.559376 203.60275Q36.559376 202.83713 37.04375 202.33713Q37.54375 201.83713 38.309376 201.83713Q39.090626 201.83713 39.575 202.33713Q40.059376 202.83713 40.059376 203.634L40.059376 204.05588Q40.059376 204.8215 39.559376 205.3215Q39.075 205.80588 38.325 205.80588Q37.559376 205.80588 37.059376 205.3215Q36.559376 204.8215 36.559376 204.009L36.559376 203.60275ZM37.371876 204.05588Q37.371876 204.509 37.621876 204.80588Q37.8875 205.10275 38.325 205.10275Q38.746876 205.10275 38.996876 204.8215Q39.246876 204.52463 39.246876 204.02463L39.246876 203.60275Q39.246876 203.14963 38.996876 202.85275Q38.746876 202.54025 38.309376 202.54025Q37.871876 202.54025 37.621876 202.85275Q37.371876 203.14963 37.371876 203.61838L37.371876 204.05588ZM40.715626 208.39963Q40.715626 207.634 41.2 207.14963Q41.7 206.64963 42.465626 206.64963Q43.23125 206.64963 43.715626 207.14963Q44.215626 207.634 44.215626 208.4465L44.215626 208.85275Q44.215626 209.61838 43.73125 210.11838Q43.246876 210.61838 42.48125 210.61838Q41.715626 210.61838 41.215626 210.134Q40.715626 209.634 40.715626 208.8215L40.715626 208.39963ZM41.528126 208.85275Q41.528126 209.3215 41.778126 209.61838Q42.04375 209.91525 42.48125 209.91525Q42.903126 209.91525 43.153126 209.634Q43.403126 209.33713 43.403126 208.83713L43.403126 208.39963Q43.403126 207.93088 43.1375 207.64963Q42.8875 207.35275 42.465626 207.35275Q42.04375 207.35275 41.778126 207.64963Q41.528126 207.93088 41.528126 208.43088L41.528126 208.85275ZM38.575 209.85275L37.95 209.46213L42.121876 202.79025L42.73125 203.18088L38.575 209.85275Z" fill-rule="nonzero"/><path stroke="#757575" stroke-width="1.0" stroke-linecap="butt" d="M11.95 196.99338L96.433334 196.99338L132.48996 196.99338" fill-rule="nonzero"/><path fill="#9e9e9e" d="M134.48996 196.99338C134.48996 195.88881 133.59453 194.99338 132.48996 194.99338C131.38539 194.99338 130.48996 195.88881 130.48996 196.99338C130.48996 198.09795 131.38539 198.99338 132.48996 198.99338C133.59453 198.99338 134.48996 198.09795 134.48996 196.99338" fill-rule="nonzero"/><path fill="#757575" d="M338.4875 60.94204L341.28436 67.895164L344.0656 60.94204L345.53436 60.94204L345.53436 69.47329L344.40936 69.47329L344.40936 66.145164L344.51874 62.56704L341.70624 69.47329L340.84686 69.47329L338.05 62.582664L338.15936 66.145164L338.15936 69.47329L337.03436 69.47329L337.03436 60.94204L338.4875 60.94204ZM350.78436 69.47329Q350.6906 69.28579 350.6281 68.801414Q349.8781 69.59829 348.83124 69.59829Q347.89374 69.59829 347.28436 69.06704Q346.6906 68.53579 346.6906 67.707664Q346.6906 66.72329 347.4406 66.176414Q348.1906 65.62954 349.5656 65.62954L350.6125 65.62954L350.6125 65.12954Q350.6125 64.56704 350.26874 64.238914Q349.9406 63.895164 349.26874 63.895164Q348.6906 63.895164 348.3 64.19204Q347.90936 64.47329 347.90936 64.895164L346.8156 64.895164Q346.8156 64.41079 347.14374 63.97329Q347.4875 63.53579 348.0656 63.28579Q348.64374 63.020164 349.33124 63.020164Q350.4406 63.020164 351.05 63.56704Q351.675 64.113914 351.70624 65.06704L351.70624 67.988914Q351.70624 68.863914 351.925 69.37954L351.925 69.47329L350.78436 69.47329ZM348.9875 68.645164Q349.5031 68.645164 349.95624 68.37954Q350.40936 68.113914 350.6125 67.69204L350.6125 66.395164L349.76874 66.395164Q347.76874 66.395164 347.76874 67.56704Q347.76874 68.06704 348.1125 68.363914Q348.45624 68.645164 348.9875 68.645164ZM354.89374 63.12954L354.925 63.926414Q355.65936 63.020164 356.83124 63.020164Q358.84686 63.020164 358.8625 65.28579L358.8625 69.47329L357.76874 69.47329L357.76874 65.270164Q357.76874 64.59829 357.45624 64.270164Q357.15936 63.94204 356.5031 63.94204Q355.97186 63.94204 355.5656 64.22329Q355.175 64.50454 354.95624 64.957664L354.95624 69.47329L353.8781 69.47329L353.8781 63.12954L354.89374 63.12954ZM362.05 69.47329L360.97186 69.47329L360.97186 63.12954L362.05 63.12954L362.05 69.47329ZM360.8781 61.457664Q360.8781 61.19204 361.03436 61.00454Q361.20624 60.81704 361.51874 60.81704Q361.83124 60.81704 361.9875 61.00454Q362.15936 61.19204 362.15936 61.457664Q362.15936 61.707664 361.9875 61.895164Q361.83124 62.06704 361.51874 62.06704Q361.20624 62.06704 361.03436 61.895164Q360.8781 61.707664 360.8781 61.457664ZM367.5656 67.78579Q367.5656 67.34829 367.22186 67.113914Q366.89374 66.863914 366.0656 66.69204Q365.2531 66.520164 364.76874 66.270164Q364.28436 66.020164 364.05 65.69204Q363.83124 65.34829 363.83124 64.87954Q363.83124 64.09829 364.4875 63.56704Q365.14374 63.020164 366.175 63.020164Q367.2531 63.020164 367.90936 63.582664Q368.58124 64.12954 368.58124 64.988914L367.5031 64.988914Q367.5031 64.551414 367.1125 64.238914Q366.7375 63.91079 366.175 63.91079Q365.58124 63.91079 365.2375 64.176414Q364.90936 64.426414 364.90936 64.832664Q364.90936 65.22329 365.22186 65.426414Q365.53436 65.62954 366.34686 65.81704Q367.15936 65.988914 367.65936 66.238914Q368.15936 66.488914 368.39374 66.84829Q368.64374 67.207664 368.64374 67.707664Q368.64374 68.56704 367.95624 69.082664Q367.28436 69.59829 366.20624 69.59829Q365.4406 69.59829 364.84686 69.332664Q364.26874 69.051414 363.9406 68.56704Q363.6125 68.082664 363.6125 67.520164L364.6906 67.520164Q364.72186 68.06704 365.1281 68.395164Q365.53436 68.707664 366.20624 68.707664Q366.8156 68.707664 367.1906 68.457664Q367.5656 68.207664 367.5656 67.78579ZM370.95624 63.895164Q371.675 63.020164 372.83124 63.020164Q374.84686 63.020164 374.8625 65.28579L374.8625 69.47329L373.76874 69.47329L373.76874 65.270164Q373.76874 64.59829 373.45624 64.270164Q373.15936 63.94204 372.5031 63.94204Q371.97186 63.94204 371.5656 64.22329Q371.175 64.50454 370.95624 64.957664L370.95624 69.47329L369.8781 69.47329L369.8781 60.47329L370.95624 60.47329L370.95624 63.895164Z" fill-rule="nonzero"/><path fill="#9e9e9e" d="M349.34686 87.47329L343.7531 87.47329L343.7531 86.69204L346.70624 83.41079Q347.3625 82.66079 347.6125 82.207664Q347.8625 81.738914 347.8625 81.238914Q347.8625 80.56704 347.45624 80.145164Q347.0656 79.707664 346.3781 79.707664Q345.58124 79.707664 345.1281 80.176414Q344.675 80.62954 344.675 81.457664L343.59686 81.457664Q343.59686 80.270164 344.34686 79.551414Q345.1125 78.81704 346.3781 78.81704Q347.58124 78.81704 348.26874 79.44204Q348.95624 80.06704 348.95624 81.113914Q348.95624 82.363914 347.34686 84.113914L345.0656 86.582664L349.34686 86.582664L349.34686 87.47329ZM351.2531 83.19204L351.6906 78.94204L356.0656 78.94204L356.0656 79.94204L352.6125 79.94204L352.34686 82.270164Q352.9875 81.895164 353.78436 81.895164Q354.9406 81.895164 355.6281 82.676414Q356.3156 83.44204 356.3156 84.75454Q356.3156 86.06704 355.59686 86.832664Q354.89374 87.59829 353.6125 87.59829Q352.4875 87.59829 351.76874 86.97329Q351.05 86.332664 350.95624 85.22329L351.97186 85.22329Q352.08124 85.957664 352.5031 86.332664Q352.925 86.707664 353.6125 86.707664Q354.3625 86.707664 354.8 86.19204Q355.2375 85.676414 355.2375 84.770164Q355.2375 83.91079 354.76874 83.395164Q354.3 82.87954 353.51874 82.87954Q352.8156 82.87954 352.40936 83.176414L352.1281 83.41079L351.2531 83.19204ZM357.89374 86.91079Q357.89374 86.62954 358.05 86.44204Q358.22186 86.25454 358.55 86.25454Q358.89374 86.25454 359.0656 86.44204Q359.2375 86.62954 359.2375 86.91079Q359.2375 87.176414 359.0656 87.363914Q358.89374 87.53579 358.55 87.53579Q358.22186 87.53579 358.05 87.363914Q357.89374 87.176414 357.89374 86.91079ZM366.1125 83.832664Q366.1125 85.738914 365.45624 86.676414Q364.8156 87.59829 363.425 87.59829Q362.0656 87.59829 361.40936 86.69204Q360.7531 85.78579 360.72186 83.97329L360.72186 82.53579Q360.72186 80.645164 361.3625 79.738914Q362.01874 78.81704 363.40936 78.81704Q364.78436 78.81704 365.4406 79.707664Q366.09686 80.582664 366.1125 82.426414L366.1125 83.832664ZM365.01874 82.34829Q365.01874 80.97329 364.6281 80.34829Q364.2531 79.707664 363.40936 79.707664Q362.58124 79.707664 362.1906 80.34829Q361.8156 80.97329 361.8156 82.270164L361.8156 84.00454Q361.8156 85.37954 362.20624 86.051414Q362.6125 86.707664 363.425 86.707664Q364.22186 86.707664 364.6125 86.082664Q365.0031 85.457664 365.01874 84.12954L365.01874 82.34829ZM367.65936 80.582664Q367.65936 79.81704 368.14374 79.31704Q368.64374 78.81704 369.40936 78.81704Q370.1906 78.81704 370.675 79.31704Q371.15936 79.81704 371.15936 80.613914L371.15936 81.03579Q371.15936 81.801414 370.65936 82.301414Q370.175 82.78579 369.425 82.78579Q368.65936 82.78579 368.15936 82.301414Q367.65936 81.801414 367.65936 80.988914L367.65936 80.582664ZM368.47186 81.03579Q368.47186 81.488914 368.72186 81.78579Q368.9875 82.082664 369.425 82.082664Q369.84686 82.082664 370.09686 81.801414Q370.34686 81.50454 370.34686 81.00454L370.34686 80.582664Q370.34686 80.12954 370.09686 79.832664Q369.84686 79.520164 369.40936 79.520164Q368.97186 79.520164 368.72186 79.832664Q368.47186 80.12954 368.47186 80.59829L368.47186 81.03579ZM371.8156 85.37954Q371.8156 84.613914 372.3 84.12954Q372.8 83.62954 373.5656 83.62954Q374.33124 83.62954 374.8156 84.12954Q375.3156 84.613914 375.3156 85.426414L375.3156 85.832664Q375.3156 86.59829 374.83124 87.09829Q374.34686 87.59829 373.58124 87.59829Q372.8156 87.59829 372.3156 87.113914Q371.8156 86.613914 371.8156 85.801414L371.8156 85.37954ZM372.6281 85.832664Q372.6281 86.301414 372.8781 86.59829Q373.14374 86.895164 373.58124 86.895164Q374.0031 86.895164 374.2531 86.613914Q374.5031 86.31704 374.5031 85.81704L374.5031 85.37954Q374.5031 84.91079 374.2375 84.62954Q373.9875 84.332664 373.5656 84.332664Q373.14374 84.332664 372.8781 84.62954Q372.6281 84.91079 372.6281 85.41079L372.6281 85.832664ZM369.675 86.832664L369.05 86.44204L373.22186 79.770164L373.83124 80.16079L369.675 86.832664Z" fill-rule="nonzero"/><path stroke="#757575" stroke-width="1.0" stroke-linecap="butt" d="M376.05 73.97329L291.56668 73.97329L255.51004 73.97329" fill-rule="nonzero"/><path fill="#9e9e9e" d="M257.51004 73.97329C257.51004 72.86872 256.61462 71.97329 255.51004 71.97329C254.40547 71.97329 253.51004 72.86872 253.51004 73.97329C253.51004 75.077866 254.40547 75.97329 255.51004 75.97329C256.61462 75.97329 257.51004 75.077866 257.51004 73.97329" fill-rule="nonzero"/><path fill="#757575" d="M330.55 188.6965Q329.1125 188.27463 328.4406 187.66525Q327.78436 187.05588 327.78436 186.16525Q327.78436 185.16525 328.58124 184.509Q329.39374 183.83713 330.6906 183.83713Q331.5656 183.83713 332.2531 184.18088Q332.9406 184.52463 333.3156 185.11838Q333.70624 185.71213 333.70624 186.43088L332.5656 186.43088Q332.5656 185.64963 332.0656 185.21213Q331.58124 184.77463 330.6906 184.77463Q329.8625 184.77463 329.39374 185.14963Q328.925 185.509 328.925 186.14963Q328.925 186.68088 329.3625 187.04025Q329.8156 187.39963 330.8781 187.6965Q331.9406 187.99338 332.53436 188.35275Q333.14374 188.71213 333.425 189.1965Q333.72186 189.68088 333.72186 190.3215Q333.72186 191.36838 332.90936 191.99338Q332.09686 192.61838 330.7531 192.61838Q329.8625 192.61838 329.09686 192.27463Q328.34686 191.93088 327.925 191.35275Q327.51874 190.759 327.51874 190.02463L328.64374 190.02463Q328.64374 190.79025 329.22186 191.24338Q329.8 191.6965 330.7531 191.6965Q331.64374 191.6965 332.1125 191.33713Q332.58124 190.96213 332.58124 190.33713Q332.58124 189.71213 332.14374 189.36838Q331.70624 189.02463 330.55 188.6965ZM338.78436 192.49338Q338.6906 192.30588 338.6281 191.8215Q337.8781 192.61838 336.83124 192.61838Q335.89374 192.61838 335.28436 192.08713Q334.6906 191.55588 334.6906 190.72775Q334.6906 189.74338 335.4406 189.1965Q336.1906 188.64963 337.5656 188.64963L338.6125 188.64963L338.6125 188.14963Q338.6125 187.58713 338.26874 187.259Q337.9406 186.91525 337.26874 186.91525Q336.6906 186.91525 336.3 187.21213Q335.90936 187.49338 335.90936 187.91525L334.8156 187.91525Q334.8156 187.43088 335.14374 186.99338Q335.4875 186.55588 336.0656 186.30588Q336.64374 186.04025 337.33124 186.04025Q338.4406 186.04025 339.05 186.58713Q339.675 187.134 339.70624 188.08713L339.70624 191.009Q339.70624 191.884 339.925 192.39963L339.925 192.49338L338.78436 192.49338ZM336.9875 191.66525Q337.5031 191.66525 337.95624 191.39963Q338.40936 191.134 338.6125 190.71213L338.6125 189.41525L337.76874 189.41525Q335.76874 189.41525 335.76874 190.58713Q335.76874 191.08713 336.1125 191.384Q336.45624 191.66525 336.9875 191.66525ZM342.89374 186.14963L342.925 186.9465Q343.65936 186.04025 344.83124 186.04025Q346.84686 186.04025 346.8625 188.30588L346.8625 192.49338L345.76874 192.49338L345.76874 188.29025Q345.76874 187.61838 345.45624 187.29025Q345.15936 186.96213 344.5031 186.96213Q343.97186 186.96213 343.5656 187.24338Q343.175 187.52463 342.95624 187.97775L342.95624 192.49338L341.8781 192.49338L341.8781 186.14963L342.89374 186.14963ZM350.34686 184.61838L350.34686 186.14963L351.51874 186.14963L351.51874 186.99338L350.34686 186.99338L350.34686 190.91525Q350.34686 191.30588 350.5031 191.49338Q350.65936 191.68088 351.03436 191.68088Q351.22186 191.68088 351.55 191.61838L351.55 192.49338Q351.1281 192.61838 350.72186 192.61838Q350.0031 192.61838 349.6281 192.18088Q349.2531 191.72775 349.2531 190.91525L349.2531 186.99338L348.09686 186.99338L348.09686 186.14963L349.2531 186.14963L349.2531 184.61838L350.34686 184.61838ZM354.05 192.49338L352.97186 192.49338L352.97186 186.14963L354.05 186.14963L354.05 192.49338ZM352.8781 184.47775Q352.8781 184.21213 353.03436 184.02463Q353.20624 183.83713 353.51874 183.83713Q353.83124 183.83713 353.9875 184.02463Q354.15936 184.21213 354.15936 184.47775Q354.15936 184.72775 353.9875 184.91525Q353.83124 185.08713 353.51874 185.08713Q353.20624 185.08713 353.03436 184.91525Q352.8781 184.72775 352.8781 184.47775ZM359.78436 192.49338Q359.6906 192.30588 359.6281 191.8215Q358.8781 192.61838 357.83124 192.61838Q356.89374 192.61838 356.28436 192.08713Q355.6906 191.55588 355.6906 190.72775Q355.6906 189.74338 356.4406 189.1965Q357.1906 188.64963 358.5656 188.64963L359.6125 188.64963L359.6125 188.14963Q359.6125 187.58713 359.26874 187.259Q358.9406 186.91525 358.26874 186.91525Q357.6906 186.91525 357.3 187.21213Q356.90936 187.49338 356.90936 187.91525L355.8156 187.91525Q355.8156 187.43088 356.14374 186.99338Q356.4875 186.55588 357.0656 186.30588Q357.64374 186.04025 358.33124 186.04025Q359.4406 186.04025 360.05 186.58713Q360.675 187.134 360.70624 188.08713L360.70624 191.009Q360.70624 191.884 360.925 192.39963L360.925 192.49338L359.78436 192.49338ZM357.9875 191.66525Q358.5031 191.66525 358.95624 191.39963Q359.40936 191.134 359.6125 190.71213L359.6125 189.41525L358.76874 189.41525Q356.76874 189.41525 356.76874 190.58713Q356.76874 191.08713 357.1125 191.384Q357.45624 191.66525 357.9875 191.66525ZM362.6125 189.27463Q362.6125 187.79025 363.3 186.91525Q363.9875 186.04025 365.1125 186.04025Q366.26874 186.04025 366.925 186.85275L366.97186 186.14963L367.97186 186.14963L367.97186 192.33713Q367.97186 193.5715 367.2375 194.27463Q366.5031 194.99338 365.28436 194.99338Q364.59686 194.99338 363.9406 194.6965Q363.28436 194.39963 362.9406 193.89963L363.5031 193.24338Q364.1906 194.10275 365.20624 194.10275Q365.9875 194.10275 366.425 193.64963Q366.8781 193.21213 366.8781 192.39963L366.8781 191.85275Q366.22186 192.61838 365.09686 192.61838Q363.9875 192.61838 363.3 191.72775Q362.6125 190.8215 362.6125 189.27463ZM363.70624 189.39963Q363.70624 190.46213 364.14374 191.08713Q364.58124 191.6965 365.3781 191.6965Q366.39374 191.6965 366.8781 190.759L366.8781 187.86838Q366.3781 186.96213 365.3781 186.96213Q364.59686 186.96213 364.14374 187.5715Q363.70624 188.18088 363.70624 189.39963ZM369.58124 189.259Q369.58124 188.33713 369.9406 187.58713Q370.3156 186.83713 370.97186 186.4465Q371.6281 186.04025 372.45624 186.04025Q373.7531 186.04025 374.55 186.93088Q375.3625 187.8215 375.3625 189.3215L375.3625 189.39963Q375.3625 190.3215 375.0031 191.05588Q374.64374 191.79025 373.9875 192.21213Q373.33124 192.61838 372.47186 192.61838Q371.1906 192.61838 370.3781 191.72775Q369.58124 190.8215 369.58124 189.33713L369.58124 189.259ZM370.675 189.39963Q370.675 190.4465 371.15936 191.08713Q371.65936 191.72775 372.47186 191.72775Q373.3 191.72775 373.78436 191.08713Q374.26874 190.43088 374.26874 189.259Q374.26874 188.22775 373.76874 187.58713Q373.28436 186.93088 372.45624 186.93088Q371.65936 186.93088 371.15936 187.5715Q370.675 188.1965 370.675 189.39963Z" fill-rule="nonzero"/><path fill="#9e9e9e" d="M349.34686 210.49338L343.7531 210.49338L343.7531 209.71213L346.70624 206.43088Q347.3625 205.68088 347.6125 205.22775Q347.8625 204.759 347.8625 204.259Q347.8625 203.58713 347.45624 203.16525Q347.0656 202.72775 346.3781 202.72775Q345.58124 202.72775 345.1281 203.1965Q344.675 203.64963 344.675 204.47775L343.59686 204.47775Q343.59686 203.29025 344.34686 202.5715Q345.1125 201.83713 346.3781 201.83713Q347.58124 201.83713 348.26874 202.46213Q348.95624 203.08713 348.95624 204.134Q348.95624 205.384 347.34686 207.134L345.0656 209.60275L349.34686 209.60275L349.34686 210.49338ZM351.2531 206.21213L351.6906 201.96213L356.0656 201.96213L356.0656 202.96213L352.6125 202.96213L352.34686 205.29025Q352.9875 204.91525 353.78436 204.91525Q354.9406 204.91525 355.6281 205.6965Q356.3156 206.46213 356.3156 207.77463Q356.3156 209.08713 355.59686 209.85275Q354.89374 210.61838 353.6125 210.61838Q352.4875 210.61838 351.76874 209.99338Q351.05 209.35275 350.95624 208.24338L351.97186 208.24338Q352.08124 208.97775 352.5031 209.35275Q352.925 209.72775 353.6125 209.72775Q354.3625 209.72775 354.8 209.21213Q355.2375 208.6965 355.2375 207.79025Q355.2375 206.93088 354.76874 206.41525Q354.3 205.89963 353.51874 205.89963Q352.8156 205.89963 352.40936 206.1965L352.1281 206.43088L351.2531 206.21213ZM357.89374 209.93088Q357.89374 209.64963 358.05 209.46213Q358.22186 209.27463 358.55 209.27463Q358.89374 209.27463 359.0656 209.46213Q359.2375 209.64963 359.2375 209.93088Q359.2375 210.1965 359.0656 210.384Q358.89374 210.55588 358.55 210.55588Q358.22186 210.55588 358.05 210.384Q357.89374 210.1965 357.89374 209.93088ZM366.1125 206.85275Q366.1125 208.759 365.45624 209.6965Q364.8156 210.61838 363.425 210.61838Q362.0656 210.61838 361.40936 209.71213Q360.7531 208.80588 360.72186 206.99338L360.72186 205.55588Q360.72186 203.66525 361.3625 202.759Q362.01874 201.83713 363.40936 201.83713Q364.78436 201.83713 365.4406 202.72775Q366.09686 203.60275 366.1125 205.4465L366.1125 206.85275ZM365.01874 205.36838Q365.01874 203.99338 364.6281 203.36838Q364.2531 202.72775 363.40936 202.72775Q362.58124 202.72775 362.1906 203.36838Q361.8156 203.99338 361.8156 205.29025L361.8156 207.02463Q361.8156 208.39963 362.20624 209.0715Q362.6125 209.72775 363.425 209.72775Q364.22186 209.72775 364.6125 209.10275Q365.0031 208.47775 365.01874 207.14963L365.01874 205.36838ZM367.65936 203.60275Q367.65936 202.83713 368.14374 202.33713Q368.64374 201.83713 369.40936 201.83713Q370.1906 201.83713 370.675 202.33713Q371.15936 202.83713 371.15936 203.634L371.15936 204.05588Q371.15936 204.8215 370.65936 205.3215Q370.175 205.80588 369.425 205.80588Q368.65936 205.80588 368.15936 205.3215Q367.65936 204.8215 367.65936 204.009L367.65936 203.60275ZM368.47186 204.05588Q368.47186 204.509 368.72186 204.80588Q368.9875 205.10275 369.425 205.10275Q369.84686 205.10275 370.09686 204.8215Q370.34686 204.52463 370.34686 204.02463L370.34686 203.60275Q370.34686 203.14963 370.09686 202.85275Q369.84686 202.54025 369.40936 202.54025Q368.97186 202.54025 368.72186 202.85275Q368.47186 203.14963 368.47186 203.61838L368.47186 204.05588ZM371.8156 208.39963Q371.8156 207.634 372.3 207.14963Q372.8 206.64963 373.5656 206.64963Q374.33124 206.64963 374.8156 207.14963Q375.3156 207.634 375.3156 208.4465L375.3156 208.85275Q375.3156 209.61838 374.83124 210.11838Q374.34686 210.61838 373.58124 210.61838Q372.8156 210.61838 372.3156 210.134Q371.8156 209.634 371.8156 208.8215L371.8156 208.39963ZM372.6281 208.85275Q372.6281 209.3215 372.8781 209.61838Q373.14374 209.91525 373.58124 209.91525Q374.0031 209.91525 374.2531 209.634Q374.5031 209.33713 374.5031 208.83713L374.5031 208.39963Q374.5031 207.93088 374.2375 207.64963Q373.9875 207.35275 373.5656 207.35275Q373.14374 207.35275 372.8781 207.64963Q372.6281 207.93088 372.6281 208.43088L372.6281 208.85275ZM369.675 209.85275L369.05 209.46213L373.22186 202.79025L373.83124 203.18088L369.675 209.85275Z" fill-rule="nonzero"/><path stroke="#757575" stroke-width="1.0" stroke-linecap="butt" d="M376.05 196.99338L291.56668 196.99338L255.51004 196.99338" fill-rule="nonzero"/><path fill="#9e9e9e" d="M257.51004 196.99338C257.51004 195.88881 256.61462 194.99338 255.51004 194.99338C254.40547 194.99338 253.51004 195.88881 253.51004 196.99338C253.51004 198.09795 254.40547 198.99338 255.51004 198.99338C256.61462 198.99338 257.51004 198.09795 257.51004 196.99338" fill-rule="nonzero"/><path fill="#757575" d="M22.66875 28.465626L24.7 20.3875L26.5125 20.3875L23.434376 30.95L21.965626 30.95L19.403126 22.934376L16.903126 30.95L15.434375 30.95L12.371875 20.3875L14.16875 20.3875L16.246876 28.29375L18.715626 20.3875L20.16875 20.3875L22.66875 28.465626ZM32.7 31.153126Q30.559376 31.153126 29.2 29.746876Q27.85625 28.325 27.85625 25.965626L27.85625 25.621876Q27.85625 24.059376 28.45 22.825Q29.059376 21.590626 30.1375 20.8875Q31.215626 20.184376 32.48125 20.184376Q34.54375 20.184376 35.684376 21.54375Q36.825 22.903126 36.825 25.434376L36.825 26.184376L29.66875 26.184376Q29.7 27.746876 30.575 28.715626Q31.45 29.66875 32.79375 29.66875Q33.7625 29.66875 34.41875 29.278126Q35.090626 28.8875 35.590626 28.246876L36.684376 29.10625Q35.35625 31.153126 32.7 31.153126ZM32.48125 21.66875Q31.3875 21.66875 30.6375 22.465626Q29.903126 23.2625 29.73125 24.7L35.0125 24.7L35.0125 24.559376Q34.934376 23.184376 34.2625 22.434376Q33.60625 21.66875 32.48125 21.66875ZM43.7 31.153126Q41.559376 31.153126 40.2 29.746876Q38.85625 28.325 38.85625 25.965626L38.85625 25.621876Q38.85625 24.059376 39.45 22.825Q40.059376 21.590626 41.1375 20.8875Q42.215626 20.184376 43.48125 20.184376Q45.54375 20.184376 46.684376 21.54375Q47.825 22.903126 47.825 25.434376L47.825 26.184376L40.66875 26.184376Q40.7 27.746876 41.575 28.715626Q42.45 29.66875 43.79375 29.66875Q44.7625 29.66875 45.41875 29.278126Q46.090626 28.8875 46.590626 28.246876L47.684376 29.10625Q46.35625 31.153126 43.7 31.153126ZM43.48125 21.66875Q42.3875 21.66875 41.6375 22.465626Q40.903126 23.2625 40.73125 24.7L46.0125 24.7L46.0125 24.559376Q45.934376 23.184376 45.2625 22.434376Q44.60625 21.66875 43.48125 21.66875ZM53.2625 26.059376L52.1375 27.23125L52.1375 30.95L50.325 30.95L50.325 15.950001L52.1375 15.950001L52.1375 25.028126L53.10625 23.85625L56.3875 20.3875L58.590626 20.3875L54.48125 24.79375L59.075 30.95L56.95 30.95L53.2625 26.059376ZM62.278126 30.95L60.48125 30.95L60.48125 15.950001L62.278126 15.950001L62.278126 30.95ZM68.77812 28.309376L71.23125 20.3875L73.16875 20.3875L68.91875 32.575Q67.93437 35.215626 65.79375 35.215626L65.45 35.184376L64.77812 35.059376L64.77812 33.590626L65.2625 33.6375Q66.18437 33.6375 66.68437 33.2625Q67.2 32.8875 67.52812 31.903126L67.93437 30.825L64.16875 20.3875L66.1375 20.3875L68.77812 28.309376ZM88.66875 28.465626L90.7 20.3875L92.5125 20.3875L89.43437 30.95L87.96562 30.95L85.40312 22.934376L82.90312 30.95L81.43437 30.95L78.37187 20.3875L80.16875 20.3875L82.24687 28.29375L84.71562 20.3875L86.16875 20.3875L88.66875 28.465626ZM96.27812 30.95L94.48125 30.95L94.48125 20.3875L96.27812 20.3875L96.27812 30.95ZM94.325 17.575Q94.325 17.1375 94.59062 16.840626Q94.87187 16.528126 95.3875 16.528126Q95.91875 16.528126 96.18437 16.840626Q96.46562 17.1375 96.46562 17.575Q96.46562 18.0125 96.18437 18.309376Q95.91875 18.60625 95.3875 18.60625Q94.87187 18.60625 94.59062 18.309376Q94.325 18.0125 94.325 17.575ZM101.02812 20.3875L101.09062 21.715626Q102.29375 20.184376 104.24687 20.184376Q107.60625 20.184376 107.62187 23.965626L107.62187 30.95L105.825 30.95L105.825 23.95Q105.80937 22.809376 105.29375 22.2625Q104.79375 21.715626 103.7 21.715626Q102.825 21.715626 102.15312 22.184376Q101.49687 22.653126 101.12187 23.41875L101.12187 30.95L99.325 30.95L99.325 20.3875L101.02812 20.3875ZM112.02812 20.3875L112.09062 21.715626Q113.29375 20.184376 115.24687 20.184376Q118.60625 20.184376 118.62187 23.965626L118.62187 30.95L116.825 30.95L116.825 23.95Q116.80937 22.809376 116.29375 22.2625Q115.79375 21.715626 114.7 21.715626Q113.825 21.715626 113.15312 22.184376Q112.49687 22.653126 112.12187 23.41875L112.12187 30.95L110.325 30.95L110.325 20.3875L112.02812 20.3875ZM123.27812 30.95L121.48125 30.95L121.48125 20.3875L123.27812 20.3875L123.27812 30.95ZM121.325 17.575Q121.325 17.1375 121.59062 16.840626Q121.87187 16.528126 122.3875 16.528126Q122.91875 16.528126 123.18437 16.840626Q123.46562 17.1375 123.46562 17.575Q123.46562 18.0125 123.18437 18.309376Q122.91875 18.60625 122.3875 18.60625Q121.87187 18.60625 121.59062 18.309376Q121.325 18.0125 121.325 17.575ZM128.02812 20.3875L128.09062 21.715626Q129.29375 20.184376 131.24687 20.184376Q134.60625 20.184376 134.62187 23.965626L134.62187 30.95L132.825 30.95L132.825 23.95Q132.80937 22.809376 132.29375 22.2625Q131.79375 21.715626 130.7 21.715626Q129.825 21.715626 129.15312 22.184376Q128.49687 22.653126 128.12187 23.41875L128.12187 30.95L126.325 30.95L126.325 20.3875L128.02812 20.3875ZM136.8875 25.575Q136.8875 23.10625 138.02812 21.653126Q139.16875 20.184376 141.05937 20.184376Q142.99687 20.184376 144.075 21.559376L144.16875 20.3875L145.80937 20.3875L145.80937 30.7Q145.80937 32.746876 144.59062 33.91875Q143.3875 35.10625 141.325 35.10625Q140.18437 35.10625 139.09062 34.621876Q137.99687 34.1375 137.41875 33.278126L138.35625 32.2Q139.52812 33.6375 141.2 33.6375Q142.52812 33.6375 143.2625 32.8875Q143.99687 32.153126 143.99687 30.809376L143.99687 29.8875Q142.91875 31.153126 141.04375 31.153126Q139.18437 31.153126 138.02812 29.653126Q136.8875 28.153126 136.8875 25.575ZM138.7 25.778126Q138.7 27.575 139.43437 28.590626Q140.16875 29.60625 141.48125 29.60625Q143.2 29.60625 143.99687 28.059376L143.99687 23.23125Q143.16875 21.715626 141.5125 21.715626Q140.18437 21.715626 139.43437 22.746876Q138.7 23.778126 138.7 25.778126ZM158.41875 21.996876Q158.0125 21.934376 157.54375 21.934376Q155.7625 21.934376 155.12187 23.45L155.12187 30.95L153.325 30.95L153.325 20.3875L155.075 20.3875L155.10625 21.60625Q155.99687 20.184376 157.62187 20.184376Q158.15312 20.184376 158.41875 20.325L158.41875 21.996876ZM166.84062 30.95Q166.68437 30.6375 166.59062 29.840626Q165.325 31.153126 163.575 31.153126Q162.0125 31.153126 161.0125 30.2625Q160.0125 29.371876 160.0125 28.0125Q160.0125 26.371876 161.2625 25.465626Q162.52812 24.54375 164.79375 24.54375L166.55937 24.54375L166.55937 23.715626Q166.55937 22.7625 165.98125 22.2Q165.41875 21.6375 164.325 21.6375Q163.35625 21.6375 162.7 22.1375Q162.04375 22.621876 162.04375 23.309376L160.23125 23.309376Q160.23125 22.528126 160.79375 21.79375Q161.35625 21.04375 162.30937 20.621876Q163.27812 20.184376 164.43437 20.184376Q166.2625 20.184376 167.29375 21.10625Q168.325 22.0125 168.37187 23.621876L168.37187 28.48125Q168.37187 29.934376 168.73125 30.79375L168.73125 30.95L166.84062 30.95ZM163.84062 29.575Q164.7 29.575 165.45 29.1375Q166.21562 28.7 166.55937 27.996876L166.55937 25.825L165.1375 25.825Q161.825 25.825 161.825 27.7625Q161.825 28.621876 162.3875 29.10625Q162.95 29.575 163.84062 29.575ZM173.7625 17.825L173.7625 20.3875L175.74687 20.3875L175.74687 21.778126L173.7625 21.778126L173.7625 28.325Q173.7625 28.965626 174.02812 29.29375Q174.29375 29.60625 174.93437 29.60625Q175.24687 29.60625 175.79375 29.48125L175.79375 30.95Q175.075 31.153126 174.40312 31.153126Q173.2 31.153126 172.575 30.41875Q171.96562 29.684376 171.96562 28.325L171.96562 21.778126L170.04375 21.778126L170.04375 20.3875L171.96562 20.3875L171.96562 17.825L173.7625 17.825ZM180.27812 30.95L178.48125 30.95L178.48125 20.3875L180.27812 20.3875L180.27812 30.95ZM178.325 17.575Q178.325 17.1375 178.59062 16.840626Q178.87187 16.528126 179.3875 16.528126Q179.91875 16.528126 180.18437 16.840626Q180.46562 17.1375 180.46562 17.575Q180.46562 18.0125 180.18437 18.309376Q179.91875 18.60625 179.3875 18.60625Q178.87187 18.60625 178.59062 18.309376Q178.325 18.0125 178.325 17.575ZM182.84062 25.575Q182.84062 24.0125 183.45 22.778126Q184.05937 21.528126 185.1375 20.85625Q186.23125 20.184376 187.6375 20.184376Q189.79375 20.184376 191.12187 21.684376Q192.46562 23.16875 192.46562 25.653126L192.46562 25.778126Q192.46562 27.325 191.87187 28.559376Q191.27812 29.778126 190.16875 30.465626Q189.075 31.153126 187.65312 31.153126Q185.5125 31.153126 184.16875 29.653126Q182.84062 28.153126 182.84062 25.7L182.84062 25.575ZM184.65312 25.778126Q184.65312 27.54375 185.46562 28.60625Q186.29375 29.66875 187.65312 29.66875Q189.02812 29.66875 189.84062 28.590626Q190.65312 27.5125 190.65312 25.575Q190.65312 23.825 189.825 22.746876Q188.99687 21.66875 187.6375 21.66875Q186.29375 21.66875 185.46562 22.73125Q184.65312 23.79375 184.65312 25.778126Z" fill-rule="nonzero"/></svg>