<svg version="1.1" viewBox="0.0 0.0 388.0 239.0" fill="none" stroke="none" stroke-linecap="square" stroke-miterlimit="10" width="388" height="239" xmlns:xlink="http://www.w3.org/1999/xlink" xmlns="http://www.w3.org/2000/svg"><path fill="#ffffff" d="M0 0L388.0 0L388.0 239.0L0 239.0L0 0Z" fill-rule="nonzero"/><path fill="#3d85c6" d="M194.0 43.916668C233.66908 43.916668 268.82666 69.46014 281.08508 107.187675L194.0 135.48334Z" fill-rule="nonzero"/><path fill="#f4b400" d="M281.08508 107.187675C293.3435 144.91522 279.9145 186.24542 247.82153 209.56232L194.0 135.48334Z" fill-rule="nonzero"/><path fill="#c1bc1f" d="M140.17847 209.56232C108.0855 186.24542 94.6565 144.91522 106.914925 107.187675C119.17335 69.46014 154.33092 43.916668 194.0 43.916668L194.0 135.48334Z" fill-rule="nonzero"/><path fill="#cc4125" d="M247.82153 209.56232C215.72858 232.87923 172.27142 232.87923 140.17847 209.56232L194.0 135.48334Z" fill-rule="nonzero"/><path fill="#757575" d="M19.246876 102.97746Q18.809376 103.60246 18.028126 103.91496Q17.246876 104.22746 16.215626 104.22746Q15.184375 104.22746 14.371875 103.74309Q13.559375 103.24309 13.121875 102.33684Q12.684375 101.43059 12.66875 100.24309L12.66875 99.50871Q12.66875 97.57121 13.559375 96.50871Q14.465625 95.44621 16.090626 95.44621Q17.434376 95.44621 18.246876 96.13371Q19.059376 96.82121 19.246876 98.07121L18.121876 98.07121Q17.79375 96.38371 16.10625 96.38371Q14.965625 96.38371 14.3875 97.18059Q13.809375 97.96184 13.79375 99.47746L13.79375 100.16496Q13.79375 101.60246 14.45 102.46184Q15.10625 103.30559 16.23125 103.30559Q16.85625 103.30559 17.325 103.16496Q17.809376 103.02434 18.121876 102.68059L18.121876 100.77434L16.153126 100.77434L16.153126 99.85246L19.246876 99.85246L19.246876 102.97746ZM24.684376 103.47746Q24.059376 104.22746 22.825 104.22746Q21.809376 104.22746 21.278126 103.63371Q20.746876 103.03996 20.746876 101.88371L20.746876 97.75871L21.825 97.75871L21.825 101.85246Q21.825 103.30559 22.996876 103.30559Q24.246876 103.30559 24.653126 102.36809L24.653126 97.75871L25.746876 97.75871L25.746876 104.10246L24.715626 104.10246L24.684376 103.47746ZM28.95 104.10246L27.871876 104.10246L27.871876 97.75871L28.95 97.75871L28.95 104.10246ZM27.778126 96.08684Q27.778126 95.82121 27.934376 95.63371Q28.10625 95.44621 28.41875 95.44621Q28.73125 95.44621 28.8875 95.63371Q29.059376 95.82121 29.059376 96.08684Q29.059376 96.33684 28.8875 96.52434Q28.73125 96.69621 28.41875 96.69621Q28.10625 96.69621 27.934376 96.52434Q27.778126 96.33684 27.778126 96.08684ZM30.5125 100.88371Q30.5125 99.41496 31.2 98.53996Q31.8875 97.64934 33.0125 97.64934Q34.121876 97.64934 34.778126 98.39934L34.778126 95.10246L35.85625 95.10246L35.85625 104.10246L34.85625 104.10246L34.809376 103.41496Q34.153126 104.22746 32.996876 104.22746Q31.903126 104.22746 31.2 103.32121Q30.5125 102.41496 30.5125 100.96184L30.5125 100.88371ZM31.590626 101.00871Q31.590626 102.08684 32.028126 102.69621Q32.48125 103.30559 33.2625 103.30559Q34.29375 103.30559 34.778126 102.36809L34.778126 99.46184Q34.29375 98.57121 33.278126 98.57121Q32.48125 98.57121 32.028126 99.18059Q31.590626 99.78996 31.590626 101.00871ZM37.48125 100.86809Q37.48125 99.94621 37.840626 99.19621Q38.215626 98.44621 38.871876 98.05559Q39.528126 97.64934 40.35625 97.64934Q41.653126 97.64934 42.45 98.53996Q43.2625 99.43059 43.2625 100.93059L43.2625 101.00871Q43.2625 101.93059 42.903126 102.66496Q42.54375 103.39934 41.8875 103.82121Q41.23125 104.22746 40.371876 104.22746Q39.090626 104.22746 38.278126 103.33684Q37.48125 102.43059 37.48125 100.94621L37.48125 100.86809ZM38.575 101.00871Q38.575 102.05559 39.059376 102.69621Q39.559376 103.33684 40.371876 103.33684Q41.2 103.33684 41.684376 102.69621Q42.16875 102.03996 42.16875 100.86809Q42.16875 99.83684 41.66875 99.19621Q41.184376 98.53996 40.35625 98.53996Q39.559376 98.53996 39.059376 99.18059Q38.575 99.80559 38.575 101.00871Z" fill-rule="nonzero"/><path fill="#9e9e9e" d="M17.23125 119.24309L18.41875 119.24309L18.41875 120.11809L17.23125 120.11809L17.23125 122.10246L16.153126 122.10246L16.153126 120.11809L12.2625 120.11809L12.2625 119.47746L16.075 113.57121L17.23125 113.57121L17.23125 119.24309ZM13.496875 119.24309L16.153126 119.24309L16.153126 115.05559L16.0125 115.28996L13.496875 119.24309ZM25.0125 118.46184Q25.0125 120.36809 24.35625 121.30559Q23.715626 122.22746 22.325 122.22746Q20.965626 122.22746 20.309376 121.32121Q19.653126 120.41496 19.621876 118.60246L19.621876 117.16496Q19.621876 115.27434 20.2625 114.36809Q20.91875 113.44621 22.309376 113.44621Q23.684376 113.44621 24.340626 114.33684Q24.996876 115.21184 25.0125 117.05559L25.0125 118.46184ZM23.91875 116.97746Q23.91875 115.60246 23.528126 114.97746Q23.153126 114.33684 22.309376 114.33684Q21.48125 114.33684 21.090626 114.97746Q20.715626 115.60246 20.715626 116.89934L20.715626 118.63371Q20.715626 120.00871 21.10625 120.68059Q21.5125 121.33684 22.325 121.33684Q23.121876 121.33684 23.5125 120.71184Q23.903126 120.08684 23.91875 118.75871L23.91875 116.97746ZM26.79375 121.53996Q26.79375 121.25871 26.95 121.07121Q27.121876 120.88371 27.45 120.88371Q27.79375 120.88371 27.965626 121.07121Q28.1375 121.25871 28.1375 121.53996Q28.1375 121.80559 27.965626 121.99309Q27.79375 122.16496 27.45 122.16496Q27.121876 122.16496 26.95 121.99309Q26.79375 121.80559 26.79375 121.53996ZM35.0125 118.46184Q35.0125 120.36809 34.35625 121.30559Q33.715626 122.22746 32.325 122.22746Q30.965626 122.22746 30.309376 121.32121Q29.653126 120.41496 29.621876 118.60246L29.621876 117.16496Q29.621876 115.27434 30.2625 114.36809Q30.91875 113.44621 32.309376 113.44621Q33.684376 113.44621 34.340626 114.33684Q34.996876 115.21184 35.0125 117.05559L35.0125 118.46184ZM33.91875 116.97746Q33.91875 115.60246 33.528126 114.97746Q33.153126 114.33684 32.309376 114.33684Q31.48125 114.33684 31.090626 114.97746Q30.715626 115.60246 30.715626 116.89934L30.715626 118.63371Q30.715626 120.00871 31.10625 120.68059Q31.5125 121.33684 32.325 121.33684Q33.121876 121.33684 33.5125 120.71184Q33.903126 120.08684 33.91875 118.75871L33.91875 116.97746ZM36.559376 115.21184Q36.559376 114.44621 37.04375 113.94621Q37.54375 113.44621 38.309376 113.44621Q39.090626 113.44621 39.575 113.94621Q40.059376 114.44621 40.059376 115.24309L40.059376 115.66496Q40.059376 116.43059 39.559376 116.93059Q39.075 117.41496 38.325 117.41496Q37.559376 117.41496 37.059376 116.93059Q36.559376 116.43059 36.559376 115.61809L36.559376 115.21184ZM37.371876 115.66496Q37.371876 116.11809 37.621876 116.41496Q37.8875 116.71184 38.325 116.71184Q38.746876 116.71184 38.996876 116.43059Q39.246876 116.13371 39.246876 115.63371L39.246876 115.21184Q39.246876 114.75871 38.996876 114.46184Q38.746876 114.14934 38.309376 114.14934Q37.871876 114.14934 37.621876 114.46184Q37.371876 114.75871 37.371876 115.22746L37.371876 115.66496ZM40.715626 120.00871Q40.715626 119.24309 41.2 118.75871Q41.7 118.25871 42.465626 118.25871Q43.23125 118.25871 43.715626 118.75871Q44.215626 119.24309 44.215626 120.05559L44.215626 120.46184Q44.215626 121.22746 43.73125 121.72746Q43.246876 122.22746 42.48125 122.22746Q41.715626 122.22746 41.215626 121.74309Q40.715626 121.24309 40.715626 120.43059L40.715626 120.00871ZM41.528126 120.46184Q41.528126 120.93059 41.778126 121.22746Q42.04375 121.52434 42.48125 121.52434Q42.903126 121.52434 43.153126 121.24309Q43.403126 120.94621 43.403126 120.44621L43.403126 120.00871Q43.403126 119.53996 43.1375 119.25871Q42.8875 118.96184 42.465626 118.96184Q42.04375 118.96184 41.778126 119.25871Q41.528126 119.53996 41.528126 120.03996L41.528126 120.46184ZM38.575 121.46184L37.95 121.07121L42.121876 114.39934L42.73125 114.78996L38.575 121.46184Z" fill-rule="nonzero"/><path stroke="#757575" stroke-width="1.0" stroke-linecap="butt" d="M11.95 108.60246L96.433334 108.60246L111.26918 108.60246" fill-rule="nonzero"/><path fill="#9e9e9e" d="M113.26918 108.60246C113.26918 107.497894 112.37375 106.60246 111.26918 106.60246C110.16461 106.60246 109.26918 107.497894 109.26918 108.60246C109.26918 109.70703 110.16461 110.60246 111.26918 110.60246C112.37375 110.60246 113.26918 109.70703 113.26918 108.60246" fill-rule="nonzero"/><path fill="#757575" d="M349.7531 58.373917L346.175 58.373917L345.3781 60.60829L344.22186 60.60829L347.47186 52.07704L348.45624 52.07704L351.72186 60.60829L350.5656 60.60829L349.7531 58.373917ZM346.51874 57.45204L349.425 57.45204L347.97186 53.467667L346.51874 57.45204ZM354.05 60.60829L352.97186 60.60829L352.97186 51.60829L354.05 51.60829L354.05 60.60829ZM358.5031 60.73329Q357.20624 60.73329 356.39374 59.88954Q355.59686 59.030167 355.59686 57.60829L355.59686 57.42079Q355.59686 56.467667 355.95624 55.73329Q356.3156 54.98329 356.95624 54.57704Q357.6125 54.155167 358.3625 54.155167Q359.59686 54.155167 360.28436 54.967667Q360.97186 55.780167 360.97186 57.29579L360.97186 57.748917L356.675 57.748917Q356.70624 58.686417 357.22186 59.26454Q357.7531 59.842667 358.5656 59.842667Q359.1281 59.842667 359.51874 59.60829Q359.925 59.373917 360.2375 58.98329L360.89374 59.498917Q360.09686 60.73329 358.5031 60.73329ZM358.3625 55.04579Q357.70624 55.04579 357.2531 55.530167Q356.8156 55.998917 356.72186 56.85829L359.89374 56.85829L359.89374 56.780167Q359.84686 55.95204 359.4406 55.498917Q359.05 55.04579 358.3625 55.04579ZM364.0031 56.57704L365.40936 54.26454L366.675 54.26454L364.59686 57.405167L366.7375 60.60829L365.4875 60.60829L364.01874 58.23329L362.55 60.60829L361.28436 60.60829L363.425 57.405167L361.3625 54.26454L362.6125 54.26454L364.0031 56.57704ZM369.05 60.60829L367.97186 60.60829L367.97186 54.26454L369.05 54.26454L369.05 60.60829ZM367.8781 52.592667Q367.8781 52.32704 368.03436 52.13954Q368.20624 51.95204 368.51874 51.95204Q368.83124 51.95204 368.9875 52.13954Q369.15936 52.32704 369.15936 52.592667Q369.15936 52.842667 368.9875 53.030167Q368.83124 53.20204 368.51874 53.20204Q368.20624 53.20204 368.03436 53.030167Q367.8781 52.842667 367.8781 52.592667ZM374.5656 58.92079Q374.5656 58.48329 374.22186 58.248917Q373.89374 57.998917 373.0656 57.82704Q372.2531 57.655167 371.76874 57.405167Q371.28436 57.155167 371.05 56.82704Q370.83124 56.48329 370.83124 56.01454Q370.83124 55.23329 371.4875 54.70204Q372.14374 54.155167 373.175 54.155167Q374.2531 54.155167 374.90936 54.717667Q375.58124 55.26454 375.58124 56.123917L374.5031 56.123917Q374.5031 55.686417 374.1125 55.373917Q373.7375 55.04579 373.175 55.04579Q372.58124 55.04579 372.2375 55.311417Q371.90936 55.561417 371.90936 55.967667Q371.90936 56.35829 372.22186 56.561417Q372.53436 56.76454 373.34686 56.95204Q374.15936 57.123917 374.65936 57.373917Q375.15936 57.623917 375.39374 57.98329Q375.64374 58.342667 375.64374 58.842667Q375.64374 59.70204 374.95624 60.217667Q374.28436 60.73329 373.20624 60.73329Q372.4406 60.73329 371.84686 60.467667Q371.26874 60.186417 370.9406 59.70204Q370.6125 59.217667 370.6125 58.655167L371.6906 58.655167Q371.72186 59.20204 372.1281 59.530167Q372.53436 59.842667 373.20624 59.842667Q373.8156 59.842667 374.1906 59.592667Q374.5656 59.342667 374.5656 58.92079Z" fill-rule="nonzero"/><path fill="#9e9e9e" d="M349.34686 78.60829L343.7531 78.60829L343.7531 77.82704L346.70624 74.54579Q347.3625 73.79579 347.6125 73.34267Q347.8625 72.87392 347.8625 72.37392Q347.8625 71.70204 347.45624 71.28017Q347.0656 70.84267 346.3781 70.84267Q345.58124 70.84267 345.1281 71.31142Q344.675 71.76454 344.675 72.59267L343.59686 72.59267Q343.59686 71.40517 344.34686 70.68642Q345.1125 69.95204 346.3781 69.95204Q347.58124 69.95204 348.26874 70.57704Q348.95624 71.20204 348.95624 72.24892Q348.95624 73.49892 347.34686 75.24892L345.0656 77.71767L349.34686 77.71767L349.34686 78.60829ZM356.1125 74.96767Q356.1125 76.87392 355.45624 77.81142Q354.8156 78.73329 353.425 78.73329Q352.0656 78.73329 351.40936 77.82704Q350.7531 76.92079 350.72186 75.10829L350.72186 73.67079Q350.72186 71.78017 351.3625 70.87392Q352.01874 69.95204 353.40936 69.95204Q354.78436 69.95204 355.4406 70.84267Q356.09686 71.71767 356.1125 73.56142L356.1125 74.96767ZM355.01874 73.48329Q355.01874 72.10829 354.6281 71.48329Q354.2531 70.84267 353.40936 70.84267Q352.58124 70.84267 352.1906 71.48329Q351.8156 72.10829 351.8156 73.40517L351.8156 75.13954Q351.8156 76.51454 352.20624 77.18642Q352.6125 77.84267 353.425 77.84267Q354.22186 77.84267 354.6125 77.21767Q355.0031 76.59267 355.01874 75.26454L355.01874 73.48329ZM357.89374 78.04579Q357.89374 77.76454 358.05 77.57704Q358.22186 77.38954 358.55 77.38954Q358.89374 77.38954 359.0656 77.57704Q359.2375 77.76454 359.2375 78.04579Q359.2375 78.31142 359.0656 78.49892Q358.89374 78.67079 358.55 78.67079Q358.22186 78.67079 358.05 78.49892Q357.89374 78.31142 357.89374 78.04579ZM366.1125 74.96767Q366.1125 76.87392 365.45624 77.81142Q364.8156 78.73329 363.425 78.73329Q362.0656 78.73329 361.40936 77.82704Q360.7531 76.92079 360.72186 75.10829L360.72186 73.67079Q360.72186 71.78017 361.3625 70.87392Q362.01874 69.95204 363.40936 69.95204Q364.78436 69.95204 365.4406 70.84267Q366.09686 71.71767 366.1125 73.56142L366.1125 74.96767ZM365.01874 73.48329Q365.01874 72.10829 364.6281 71.48329Q364.2531 70.84267 363.40936 70.84267Q362.58124 70.84267 362.1906 71.48329Q361.8156 72.10829 361.8156 73.40517L361.8156 75.13954Q361.8156 76.51454 362.20624 77.18642Q362.6125 77.84267 363.425 77.84267Q364.22186 77.84267 364.6125 77.21767Q365.0031 76.59267 365.01874 75.26454L365.01874 73.48329ZM367.65936 71.71767Q367.65936 70.95204 368.14374 70.45204Q368.64374 69.95204 369.40936 69.95204Q370.1906 69.95204 370.675 70.45204Q371.15936 70.95204 371.15936 71.74892L371.15936 72.17079Q371.15936 72.93642 370.65936 73.43642Q370.175 73.92079 369.425 73.92079Q368.65936 73.92079 368.15936 73.43642Q367.65936 72.93642 367.65936 72.12392L367.65936 71.71767ZM368.47186 72.17079Q368.47186 72.62392 368.72186 72.92079Q368.9875 73.21767 369.425 73.21767Q369.84686 73.21767 370.09686 72.93642Q370.34686 72.63954 370.34686 72.13954L370.34686 71.71767Q370.34686 71.26454 370.09686 70.96767Q369.84686 70.65517 369.40936 70.65517Q368.97186 70.65517 368.72186 70.96767Q368.47186 71.26454 368.47186 71.73329L368.47186 72.17079ZM371.8156 76.51454Q371.8156 75.74892 372.3 75.26454Q372.8 74.76454 373.5656 74.76454Q374.33124 74.76454 374.8156 75.26454Q375.3156 75.74892 375.3156 76.56142L375.3156 76.96767Q375.3156 77.73329 374.83124 78.23329Q374.34686 78.73329 373.58124 78.73329Q372.8156 78.73329 372.3156 78.24892Q371.8156 77.74892 371.8156 76.93642L371.8156 76.51454ZM372.6281 76.96767Q372.6281 77.43642 372.8781 77.73329Q373.14374 78.03017 373.58124 78.03017Q374.0031 78.03017 374.2531 77.74892Q374.5031 77.45204 374.5031 76.95204L374.5031 76.51454Q374.5031 76.04579 374.2375 75.76454Q373.9875 75.46767 373.5656 75.46767Q373.14374 75.46767 372.8781 75.76454Q372.6281 76.04579 372.6281 76.54579L372.6281 76.96767ZM369.675 77.96767L369.05 77.57704L373.22186 70.90517L373.83124 71.29579L369.675 77.96767Z" fill-rule="nonzero"/><path stroke="#757575" stroke-width="1.0" stroke-linecap="butt" d="M376.05 65.10829L291.56668 65.10829L245.13046 65.10829" fill-rule="nonzero"/><path fill="#9e9e9e" d="M247.13046 65.10829C247.13046 64.00372 246.23503 63.10829 245.13046 63.10829C244.0259 63.10829 243.13046 64.00372 243.13046 65.10829C243.13046 66.21286 244.0259 67.10829 245.13046 67.10829C246.23503 67.10829 247.13046 66.21286 247.13046 65.10829" fill-rule="nonzero"/><path fill="#757575" d="M345.83124 152.59859L347.8625 149.33296L349.1906 149.33296L346.5031 153.56734L349.2531 157.86421L347.925 157.86421L345.83124 154.53609L343.72186 157.86421L342.3781 157.86421L345.14374 153.56734L342.45624 149.33296L343.76874 149.33296L345.83124 152.59859ZM354.78436 157.23921Q354.15936 157.98921 352.925 157.98921Q351.90936 157.98921 351.3781 157.39546Q350.84686 156.80171 350.84686 155.64546L350.84686 151.52046L351.925 151.52046L351.925 155.61421Q351.925 157.06734 353.09686 157.06734Q354.34686 157.06734 354.7531 156.12984L354.7531 151.52046L355.84686 151.52046L355.84686 157.86421L354.8156 157.86421L354.78436 157.23921ZM360.5031 157.98921Q359.20624 157.98921 358.39374 157.14546Q357.59686 156.28609 357.59686 154.86421L357.59686 154.67671Q357.59686 153.72359 357.95624 152.98921Q358.3156 152.23921 358.95624 151.83296Q359.6125 151.41109 360.3625 151.41109Q361.59686 151.41109 362.28436 152.22359Q362.97186 153.03609 362.97186 154.55171L362.97186 155.00484L358.675 155.00484Q358.70624 155.94234 359.22186 156.52046Q359.7531 157.09859 360.5656 157.09859Q361.1281 157.09859 361.51874 156.86421Q361.925 156.62984 362.2375 156.23921L362.89374 156.75484Q362.09686 157.98921 360.5031 157.98921ZM360.3625 152.30171Q359.70624 152.30171 359.2531 152.78609Q358.8156 153.25484 358.72186 154.11421L361.89374 154.11421L361.89374 154.03609Q361.84686 153.20796 361.4406 152.75484Q361.05 152.30171 360.3625 152.30171ZM364.40936 157.86421L364.40936 152.36421L363.40936 152.36421L363.40936 151.52046L364.40936 151.52046L364.40936 150.87984Q364.40936 149.84859 364.9406 149.30171Q365.4875 148.73921 366.4875 148.73921Q366.8625 148.73921 367.2375 148.83296L367.175 149.72359Q366.89374 149.66109 366.59686 149.66109Q366.0656 149.66109 365.76874 149.97359Q365.4875 150.28609 365.4875 150.84859L365.4875 151.52046L366.84686 151.52046L366.84686 152.36421L365.4875 152.36421L365.4875 157.86421L364.40936 157.86421ZM370.5031 157.98921Q369.20624 157.98921 368.39374 157.14546Q367.59686 156.28609 367.59686 154.86421L367.59686 154.67671Q367.59686 153.72359 367.95624 152.98921Q368.3156 152.23921 368.95624 151.83296Q369.6125 151.41109 370.3625 151.41109Q371.59686 151.41109 372.28436 152.22359Q372.97186 153.03609 372.97186 154.55171L372.97186 155.00484L368.675 155.00484Q368.70624 155.94234 369.22186 156.52046Q369.7531 157.09859 370.5656 157.09859Q371.1281 157.09859 371.51874 156.86421Q371.925 156.62984 372.2375 156.23921L372.89374 156.75484Q372.09686 157.98921 370.5031 157.98921ZM370.3625 152.30171Q369.70624 152.30171 369.2531 152.78609Q368.8156 153.25484 368.72186 154.11421L371.89374 154.11421L371.89374 154.03609Q371.84686 153.20796 371.4406 152.75484Q371.05 152.30171 370.3625 152.30171ZM375.05 157.86421L373.97186 157.86421L373.97186 151.52046L375.05 151.52046L375.05 157.86421ZM373.8781 149.84859Q373.8781 149.58296 374.03436 149.39546Q374.20624 149.20796 374.51874 149.20796Q374.83124 149.20796 374.9875 149.39546Q375.15936 149.58296 375.15936 149.84859Q375.15936 150.09859 374.9875 150.28609Q374.83124 150.45796 374.51874 150.45796Q374.20624 150.45796 374.03436 150.28609Q373.8781 150.09859 373.8781 149.84859Z" fill-rule="nonzero"/><path fill="#9e9e9e" d="M349.34686 175.86421L343.7531 175.86421L343.7531 175.08296L346.70624 171.80171Q347.3625 171.05171 347.6125 170.59859Q347.8625 170.12984 347.8625 169.62984Q347.8625 168.95796 347.45624 168.53609Q347.0656 168.09859 346.3781 168.09859Q345.58124 168.09859 345.1281 168.56734Q344.675 169.02046 344.675 169.84859L343.59686 169.84859Q343.59686 168.66109 344.34686 167.94234Q345.1125 167.20796 346.3781 167.20796Q347.58124 167.20796 348.26874 167.83296Q348.95624 168.45796 348.95624 169.50484Q348.95624 170.75484 347.34686 172.50484L345.0656 174.97359L349.34686 174.97359L349.34686 175.86421ZM356.1125 172.22359Q356.1125 174.12984 355.45624 175.06734Q354.8156 175.98921 353.425 175.98921Q352.0656 175.98921 351.40936 175.08296Q350.7531 174.17671 350.72186 172.36421L350.72186 170.92671Q350.72186 169.03609 351.3625 168.12984Q352.01874 167.20796 353.40936 167.20796Q354.78436 167.20796 355.4406 168.09859Q356.09686 168.97359 356.1125 170.81734L356.1125 172.22359ZM355.01874 170.73921Q355.01874 169.36421 354.6281 168.73921Q354.2531 168.09859 353.40936 168.09859Q352.58124 168.09859 352.1906 168.73921Q351.8156 169.36421 351.8156 170.66109L351.8156 172.39546Q351.8156 173.77046 352.20624 174.44234Q352.6125 175.09859 353.425 175.09859Q354.22186 175.09859 354.6125 174.47359Q355.0031 173.84859 355.01874 172.52046L355.01874 170.73921ZM357.89374 175.30171Q357.89374 175.02046 358.05 174.83296Q358.22186 174.64546 358.55 174.64546Q358.89374 174.64546 359.0656 174.83296Q359.2375 175.02046 359.2375 175.30171Q359.2375 175.56734 359.0656 175.75484Q358.89374 175.92671 358.55 175.92671Q358.22186 175.92671 358.05 175.75484Q357.89374 175.56734 357.89374 175.30171ZM366.1125 172.22359Q366.1125 174.12984 365.45624 175.06734Q364.8156 175.98921 363.425 175.98921Q362.0656 175.98921 361.40936 175.08296Q360.7531 174.17671 360.72186 172.36421L360.72186 170.92671Q360.72186 169.03609 361.3625 168.12984Q362.01874 167.20796 363.40936 167.20796Q364.78436 167.20796 365.4406 168.09859Q366.09686 168.97359 366.1125 170.81734L366.1125 172.22359ZM365.01874 170.73921Q365.01874 169.36421 364.6281 168.73921Q364.2531 168.09859 363.40936 168.09859Q362.58124 168.09859 362.1906 168.73921Q361.8156 169.36421 361.8156 170.66109L361.8156 172.39546Q361.8156 173.77046 362.20624 174.44234Q362.6125 175.09859 363.425 175.09859Q364.22186 175.09859 364.6125 174.47359Q365.0031 173.84859 365.01874 172.52046L365.01874 170.73921ZM367.65936 168.97359Q367.65936 168.20796 368.14374 167.70796Q368.64374 167.20796 369.40936 167.20796Q370.1906 167.20796 370.675 167.70796Q371.15936 168.20796 371.15936 169.00484L371.15936 169.42671Q371.15936 170.19234 370.65936 170.69234Q370.175 171.17671 369.425 171.17671Q368.65936 171.17671 368.15936 170.69234Q367.65936 170.19234 367.65936 169.37984L367.65936 168.97359ZM368.47186 169.42671Q368.47186 169.87984 368.72186 170.17671Q368.9875 170.47359 369.425 170.47359Q369.84686 170.47359 370.09686 170.19234Q370.34686 169.89546 370.34686 169.39546L370.34686 168.97359Q370.34686 168.52046 370.09686 168.22359Q369.84686 167.91109 369.40936 167.91109Q368.97186 167.91109 368.72186 168.22359Q368.47186 168.52046 368.47186 168.98921L368.47186 169.42671ZM371.8156 173.77046Q371.8156 173.00484 372.3 172.52046Q372.8 172.02046 373.5656 172.02046Q374.33124 172.02046 374.8156 172.52046Q375.3156 173.00484 375.3156 173.81734L375.3156 174.22359Q375.3156 174.98921 374.83124 175.48921Q374.34686 175.98921 373.58124 175.98921Q372.8156 175.98921 372.3156 175.50484Q371.8156 175.00484 371.8156 174.19234L371.8156 173.77046ZM372.6281 174.22359Q372.6281 174.69234 372.8781 174.98921Q373.14374 175.28609 373.58124 175.28609Q374.0031 175.28609 374.2531 175.00484Q374.5031 174.70796 374.5031 174.20796L374.5031 173.77046Q374.5031 173.30171 374.2375 173.02046Q373.9875 172.72359 373.5656 172.72359Q373.14374 172.72359 372.8781 173.02046Q372.6281 173.30171 372.6281 173.80171L372.6281 174.22359ZM369.675 175.22359L369.05 174.83296L373.22186 168.16109L373.83124 168.55171L369.675 175.22359Z" fill-rule="nonzero"/><path stroke="#757575" stroke-width="1.0" stroke-linecap="butt" d="M376.05 162.36421L291.56668 162.36421L276.73083 162.36421" fill-rule="nonzero"/><path fill="#9e9e9e" d="M278.73083 162.36421C278.73083 161.25964 277.8354 160.36421 276.73083 160.36421C275.62625 160.36421 274.73083 161.25964 274.73083 162.36421C274.73083 163.46878 275.62625 164.36421 276.73083 164.36421C277.8354 164.36421 278.73083 163.46878 278.73083 162.36421" fill-rule="nonzero"/><path fill="#757575" d="M358.9406 198.44063L356.1906 198.44063L356.1906 206.05L355.08124 206.05L355.08124 198.44063L352.33124 198.44063L352.33124 197.51875L358.9406 197.51875L358.9406 198.44063ZM360.95624 200.47188Q361.675 199.59688 362.83124 199.59688Q364.84686 199.59688 364.8625 201.8625L364.8625 206.05L363.76874 206.05L363.76874 201.84688Q363.76874 201.175 363.45624 200.84688Q363.15936 200.51875 362.5031 200.51875Q361.97186 200.51875 361.5656 200.8Q361.175 201.08125 360.95624 201.53438L360.95624 206.05L359.8781 206.05L359.8781 197.05L360.95624 197.05L360.95624 200.47188ZM370.78436 206.05Q370.6906 205.8625 370.6281 205.37813Q369.8781 206.175 368.83124 206.175Q367.89374 206.175 367.28436 205.64375Q366.6906 205.1125 366.6906 204.28438Q366.6906 203.3 367.4406 202.75313Q368.1906 202.20625 369.5656 202.20625L370.6125 202.20625L370.6125 201.70625Q370.6125 201.14375 370.26874 200.81563Q369.9406 200.47188 369.26874 200.47188Q368.6906 200.47188 368.3 200.76875Q367.90936 201.05 367.90936 201.47188L366.8156 201.47188Q366.8156 200.9875 367.14374 200.55Q367.4875 200.1125 368.0656 199.8625Q368.64374 199.59688 369.33124 199.59688Q370.4406 199.59688 371.05 200.14375Q371.675 200.69063 371.70624 201.64375L371.70624 204.56563Q371.70624 205.44063 371.925 205.95625L371.925 206.05L370.78436 206.05ZM368.9875 205.22188Q369.5031 205.22188 369.95624 204.95625Q370.40936 204.69063 370.6125 204.26875L370.6125 202.97188L369.76874 202.97188Q367.76874 202.97188 367.76874 204.14375Q367.76874 204.64375 368.1125 204.94063Q368.45624 205.22188 368.9875 205.22188ZM375.05 206.05L373.97186 206.05L373.97186 199.70625L375.05 199.70625L375.05 206.05ZM373.8781 198.03438Q373.8781 197.76875 374.03436 197.58125Q374.20624 197.39375 374.51874 197.39375Q374.83124 197.39375 374.9875 197.58125Q375.15936 197.76875 375.15936 198.03438Q375.15936 198.28438 374.9875 198.47188Q374.83124 198.64375 374.51874 198.64375Q374.20624 198.64375 374.03436 198.47188Q373.8781 198.28438 373.8781 198.03438Z" fill-rule="nonzero"/><path fill="#9e9e9e" d="M349.34686 224.05L343.7531 224.05L343.7531 223.26875L346.70624 219.9875Q347.3625 219.2375 347.6125 218.78438Q347.8625 218.31563 347.8625 217.81563Q347.8625 217.14375 347.45624 216.72188Q347.0656 216.28438 346.3781 216.28438Q345.58124 216.28438 345.1281 216.75313Q344.675 217.20625 344.675 218.03438L343.59686 218.03438Q343.59686 216.84688 344.34686 216.12813Q345.1125 215.39375 346.3781 215.39375Q347.58124 215.39375 348.26874 216.01875Q348.95624 216.64375 348.95624 217.69063Q348.95624 218.94063 347.34686 220.69063L345.0656 223.15938L349.34686 223.15938L349.34686 224.05ZM356.1125 220.40938Q356.1125 222.31563 355.45624 223.25313Q354.8156 224.175 353.425 224.175Q352.0656 224.175 351.40936 223.26875Q350.7531 222.3625 350.72186 220.55L350.72186 219.1125Q350.72186 217.22188 351.3625 216.31563Q352.01874 215.39375 353.40936 215.39375Q354.78436 215.39375 355.4406 216.28438Q356.09686 217.15938 356.1125 219.00313L356.1125 220.40938ZM355.01874 218.925Q355.01874 217.55 354.6281 216.925Q354.2531 216.28438 353.40936 216.28438Q352.58124 216.28438 352.1906 216.925Q351.8156 217.55 351.8156 218.84688L351.8156 220.58125Q351.8156 221.95625 352.20624 222.62813Q352.6125 223.28438 353.425 223.28438Q354.22186 223.28438 354.6125 222.65938Q355.0031 222.03438 355.01874 220.70625L355.01874 218.925ZM357.89374 223.4875Q357.89374 223.20625 358.05 223.01875Q358.22186 222.83125 358.55 222.83125Q358.89374 222.83125 359.0656 223.01875Q359.2375 223.20625 359.2375 223.4875Q359.2375 223.75313 359.0656 223.94063Q358.89374 224.1125 358.55 224.1125Q358.22186 224.1125 358.05 223.94063Q357.89374 223.75313 357.89374 223.4875ZM366.1125 220.40938Q366.1125 222.31563 365.45624 223.25313Q364.8156 224.175 363.425 224.175Q362.0656 224.175 361.40936 223.26875Q360.7531 222.3625 360.72186 220.55L360.72186 219.1125Q360.72186 217.22188 361.3625 216.31563Q362.01874 215.39375 363.40936 215.39375Q364.78436 215.39375 365.4406 216.28438Q366.09686 217.15938 366.1125 219.00313L366.1125 220.40938ZM365.01874 218.925Q365.01874 217.55 364.6281 216.925Q364.2531 216.28438 363.40936 216.28438Q362.58124 216.28438 362.1906 216.925Q361.8156 217.55 361.8156 218.84688L361.8156 220.58125Q361.8156 221.95625 362.20624 222.62813Q362.6125 223.28438 363.425 223.28438Q364.22186 223.28438 364.6125 222.65938Q365.0031 222.03438 365.01874 220.70625L365.01874 218.925ZM367.65936 217.15938Q367.65936 216.39375 368.14374 215.89375Q368.64374 215.39375 369.40936 215.39375Q370.1906 215.39375 370.675 215.89375Q371.15936 216.39375 371.15936 217.19063L371.15936 217.6125Q371.15936 218.37813 370.65936 218.87813Q370.175 219.3625 369.425 219.3625Q368.65936 219.3625 368.15936 218.87813Q367.65936 218.37813 367.65936 217.56563L367.65936 217.15938ZM368.47186 217.6125Q368.47186 218.06563 368.72186 218.3625Q368.9875 218.65938 369.425 218.65938Q369.84686 218.65938 370.09686 218.37813Q370.34686 218.08125 370.34686 217.58125L370.34686 217.15938Q370.34686 216.70625 370.09686 216.40938Q369.84686 216.09688 369.40936 216.09688Q368.97186 216.09688 368.72186 216.40938Q368.47186 216.70625 368.47186 217.175L368.47186 217.6125ZM371.8156 221.95625Q371.8156 221.19063 372.3 220.70625Q372.8 220.20625 373.5656 220.20625Q374.33124 220.20625 374.8156 220.70625Q375.3156 221.19063 375.3156 222.00313L375.3156 222.40938Q375.3156 223.175 374.83124 223.675Q374.34686 224.175 373.58124 224.175Q372.8156 224.175 372.3156 223.69063Q371.8156 223.19063 371.8156 222.37813L371.8156 221.95625ZM372.6281 222.40938Q372.6281 222.87813 372.8781 223.175Q373.14374 223.47188 373.58124 223.47188Q374.0031 223.47188 374.2531 223.19063Q374.5031 222.89375 374.5031 222.39375L374.5031 221.95625Q374.5031 221.4875 374.2375 221.20625Q373.9875 220.90938 373.5656 220.90938Q373.14374 220.90938 372.8781 221.20625Q372.6281 221.4875 372.6281 221.9875L372.6281 222.40938ZM369.675 223.40938L369.05 223.01875L373.22186 216.34688L373.83124 216.7375L369.675 223.40938Z" fill-rule="nonzero"/><path stroke="#757575" stroke-width="1.0" stroke-linecap="butt" d="M376.05 210.55L291.56668 210.55L194.0 222.47166" fill-rule="nonzero"/><path fill="#9e9e9e" d="M196.0 222.47166C196.0 221.3671 195.10457 220.47166 194.0 220.47166C192.89543 220.47166 192.0 221.3671 192.0 222.47166C192.0 223.57623 192.89543 224.47166 194.0 224.47166C195.10457 224.47166 196.0 223.57623 196.0 222.47166" fill-rule="nonzero"/><path fill="#757575" d="M22.66875 28.465626L24.7 20.3875L26.5125 20.3875L23.434376 30.95L21.965626 30.95L19.403126 22.934376L16.903126 30.95L15.434375 30.95L12.371875 20.3875L14.16875 20.3875L16.246876 28.29375L18.715626 20.3875L20.16875 20.3875L22.66875 28.465626ZM32.7 31.153126Q30.559376 31.153126 29.2 29.746876Q27.85625 28.325 27.85625 25.965626L27.85625 25.621876Q27.85625 24.059376 28.45 22.825Q29.059376 21.590626 30.1375 20.8875Q31.215626 20.184376 32.48125 20.184376Q34.54375 20.184376 35.684376 21.54375Q36.825 22.903126 36.825 25.434376L36.825 26.184376L29.66875 26.184376Q29.7 27.746876 30.575 28.715626Q31.45 29.66875 32.79375 29.66875Q33.7625 29.66875 34.41875 29.278126Q35.090626 28.8875 35.590626 28.246876L36.684376 29.10625Q35.35625 31.153126 32.7 31.153126ZM32.48125 21.66875Q31.3875 21.66875 30.6375 22.465626Q29.903126 23.2625 29.73125 24.7L35.0125 24.7L35.0125 24.559376Q34.934376 23.184376 34.2625 22.434376Q33.60625 21.66875 32.48125 21.66875ZM43.7 31.153126Q41.559376 31.153126 40.2 29.746876Q38.85625 28.325 38.85625 25.965626L38.85625 25.621876Q38.85625 24.059376 39.45 22.825Q40.059376 21.590626 41.1375 20.8875Q42.215626 20.184376 43.48125 20.184376Q45.54375 20.184376 46.684376 21.54375Q47.825 22.903126 47.825 25.434376L47.825 26.184376L40.66875 26.184376Q40.7 27.746876 41.575 28.715626Q42.45 29.66875 43.79375 29.66875Q44.7625 29.66875 45.41875 29.278126Q46.090626 28.8875 46.590626 28.246876L47.684376 29.10625Q46.35625 31.153126 43.7 31.153126ZM43.48125 21.66875Q42.3875 21.66875 41.6375 22.465626Q40.903126 23.2625 40.73125 24.7L46.0125 24.7L46.0125 24.559376Q45.934376 23.184376 45.2625 22.434376Q44.60625 21.66875 43.48125 21.66875ZM53.2625 26.059376L52.1375 27.23125L52.1375 30.95L50.325 30.95L50.325 15.950001L52.1375 15.950001L52.1375 25.028126L53.10625 23.85625L56.3875 20.3875L58.590626 20.3875L54.48125 24.79375L59.075 30.95L56.95 30.95L53.2625 26.059376ZM62.278126 30.95L60.48125 30.95L60.48125 15.950001L62.278126 15.950001L62.278126 30.95ZM68.77812 28.309376L71.23125 20.3875L73.16875 20.3875L68.91875 32.575Q67.93437 35.215626 65.79375 35.215626L65.45 35.184376L64.77812 35.059376L64.77812 33.590626L65.2625 33.6375Q66.18437 33.6375 66.68437 33.2625Q67.2 32.8875 67.52812 31.903126L67.93437 30.825L64.16875 20.3875L66.1375 20.3875L68.77812 28.309376ZM88.66875 28.465626L90.7 20.3875L92.5125 20.3875L89.43437 30.95L87.96562 30.95L85.40312 22.934376L82.90312 30.95L81.43437 30.95L78.37187 20.3875L80.16875 20.3875L82.24687 28.29375L84.71562 20.3875L86.16875 20.3875L88.66875 28.465626ZM96.27812 30.95L94.48125 30.95L94.48125 20.3875L96.27812 20.3875L96.27812 30.95ZM94.325 17.575Q94.325 17.1375 94.59062 16.840626Q94.87187 16.528126 95.3875 16.528126Q95.91875 16.528126 96.18437 16.840626Q96.46562 17.1375 96.46562 17.575Q96.46562 18.0125 96.18437 18.309376Q95.91875 18.60625 95.3875 18.60625Q94.87187 18.60625 94.59062 18.309376Q94.325 18.0125 94.325 17.575ZM101.02812 20.3875L101.09062 21.715626Q102.29375 20.184376 104.24687 20.184376Q107.60625 20.184376 107.62187 23.965626L107.62187 30.95L105.825 30.95L105.825 23.95Q105.80937 22.809376 105.29375 22.2625Q104.79375 21.715626 103.7 21.715626Q102.825 21.715626 102.15312 22.184376Q101.49687 22.653126 101.12187 23.41875L101.12187 30.95L99.325 30.95L99.325 20.3875L101.02812 20.3875ZM112.02812 20.3875L112.09062 21.715626Q113.29375 20.184376 115.24687 20.184376Q118.60625 20.184376 118.62187 23.965626L118.62187 30.95L116.825 30.95L116.825 23.95Q116.80937 22.809376 116.29375 22.2625Q115.79375 21.715626 114.7 21.715626Q113.825 21.715626 113.15312 22.184376Q112.49687 22.653126 112.12187 23.41875L112.12187 30.95L110.325 30.95L110.325 20.3875L112.02812 20.3875ZM123.27812 30.95L121.48125 30.95L121.48125 20.3875L123.27812 20.3875L123.27812 30.95ZM121.325 17.575Q121.325 17.1375 121.59062 16.840626Q121.87187 16.528126 122.3875 16.528126Q122.91875 16.528126 123.18437 16.840626Q123.46562 17.1375 123.46562 17.575Q123.46562 18.0125 123.18437 18.309376Q122.91875 18.60625 122.3875 18.60625Q121.87187 18.60625 121.59062 18.309376Q121.325 18.0125 121.325 17.575ZM128.02812 20.3875L128.09062 21.715626Q129.29375 20.184376 131.24687 20.184376Q134.60625 20.184376 134.62187 23.965626L134.62187 30.95L132.825 30.95L132.825 23.95Q132.80937 22.809376 132.29375 22.2625Q131.79375 21.715626 130.7 21.715626Q129.825 21.715626 129.15312 22.184376Q128.49687 22.653126 128.12187 23.41875L128.12187 30.95L126.325 30.95L126.325 20.3875L128.02812 20.3875ZM136.8875 25.575Q136.8875 23.10625 138.02812 21.653126Q139.16875 20.184376 141.05937 20.184376Q142.99687 20.184376 144.075 21.559376L144.16875 20.3875L145.80937 20.3875L145.80937 30.7Q145.80937 32.746876 144.59062 33.91875Q143.3875 35.10625 141.325 35.10625Q140.18437 35.10625 139.09062 34.621876Q137.99687 34.1375 137.41875 33.278126L138.35625 32.2Q139.52812 33.6375 141.2 33.6375Q142.52812 33.6375 143.2625 32.8875Q143.99687 32.153126 143.99687 30.809376L143.99687 29.8875Q142.91875 31.153126 141.04375 31.153126Q139.18437 31.153126 138.02812 29.653126Q136.8875 28.153126 136.8875 25.575ZM138.7 25.778126Q138.7 27.575 139.43437 28.590626Q140.16875 29.60625 141.48125 29.60625Q143.2 29.60625 143.99687 28.059376L143.99687 23.23125Q143.16875 21.715626 141.5125 21.715626Q140.18437 21.715626 139.43437 22.746876Q138.7 23.778126 138.7 25.778126ZM158.41875 21.996876Q158.0125 21.934376 157.54375 21.934376Q155.7625 21.934376 155.12187 23.45L155.12187 30.95L153.325 30.95L153.325 20.3875L155.075 20.3875L155.10625 21.60625Q155.99687 20.184376 157.62187 20.184376Q158.15312 20.184376 158.41875 20.325L158.41875 21.996876ZM166.84062 30.95Q166.68437 30.6375 166.59062 29.840626Q165.325 31.153126 163.575 31.153126Q162.0125 31.153126 161.0125 30.2625Q160.0125 29.371876 160.0125 28.0125Q160.0125 26.371876 161.2625 25.465626Q162.52812 24.54375 164.79375 24.54375L166.55937 24.54375L166.55937 23.715626Q166.55937 22.7625 165.98125 22.2Q165.41875 21.6375 164.325 21.6375Q163.35625 21.6375 162.7 22.1375Q162.04375 22.621876 162.04375 23.309376L160.23125 23.309376Q160.23125 22.528126 160.79375 21.79375Q161.35625 21.04375 162.30937 20.621876Q163.27812 20.184376 164.43437 20.184376Q166.2625 20.184376 167.29375 21.10625Q168.325 22.0125 168.37187 23.621876L168.37187 28.48125Q168.37187 29.934376 168.73125 30.79375L168.73125 30.95L166.84062 30.95ZM163.84062 29.575Q164.7 29.575 165.45 29.1375Q166.21562 28.7 166.55937 27.996876L166.55937 25.825L165.1375 25.825Q161.825 25.825 161.825 27.7625Q161.825 28.621876 162.3875 29.10625Q162.95 29.575 163.84062 29.575ZM173.7625 17.825L173.7625 20.3875L175.74687 20.3875L175.74687 21.778126L173.7625 21.778126L173.7625 28.325Q173.7625 28.965626 174.02812 29.29375Q174.29375 29.60625 174.93437 29.60625Q175.24687 29.60625 175.79375 29.48125L175.79375 30.95Q175.075 31.153126 174.40312 31.153126Q173.2 31.153126 172.575 30.41875Q171.96562 29.684376 171.96562 28.325L171.96562 21.778126L170.04375 21.778126L170.04375 20.3875L171.96562 20.3875L171.96562 17.825L173.7625 17.825ZM180.27812 30.95L178.48125 30.95L178.48125 20.3875L180.27812 20.3875L180.27812 30.95ZM178.325 17.575Q178.325 17.1375 178.59062 16.840626Q178.87187 16.528126 179.3875 16.528126Q179.91875 16.528126 180.18437 16.840626Q180.46562 17.1375 180.46562 17.575Q180.46562 18.0125 180.18437 18.309376Q179.91875 18.60625 179.3875 18.60625Q178.87187 18.60625 178.59062 18.309376Q178.325 18.0125 178.325 17.575ZM182.84062 25.575Q182.84062 24.0125 183.45 22.778126Q184.05937 21.528126 185.1375 20.85625Q186.23125 20.184376 187.6375 20.184376Q189.79375 20.184376 191.12187 21.684376Q192.46562 23.16875 192.46562 25.653126L192.46562 25.778126Q192.46562 27.325 191.87187 28.559376Q191.27812 29.778126 190.16875 30.465626Q189.075 31.153126 187.65312 31.153126Q185.5125 31.153126 184.16875 29.653126Q182.84062 28.153126 182.84062 25.7L182.84062 25.575ZM184.65312 25.778126Q184.65312 27.54375 185.46562 28.60625Q186.29375 29.66875 187.65312 29.66875Q189.02812 29.66875 189.84062 28.590626Q190.65312 27.5125 190.65312 25.575Q190.65312 23.825 189.825 22.746876Q188.99687 21.66875 187.6375 21.66875Q186.29375 21.66875 185.46562 22.73125Q184.65312 23.79375 184.65312 25.778126Z" fill-rule="nonzero"/></svg>